<svg width="1728" height="1232" viewBox="0 0 1728 1232" fill="none" xmlns="http://www.w3.org/2000/svg">
<path d="M345.74 402.383C345.74 405.789 345.069 409.161 343.766 412.308C342.462 415.454 340.552 418.313 338.144 420.722C335.736 423.13 332.877 425.04 329.73 426.344C326.583 427.647 323.211 428.318 319.805 428.318C316.399 428.318 313.027 427.647 309.88 426.344C306.734 425.04 303.875 423.13 301.466 420.722C299.058 418.313 297.148 415.454 295.845 412.308C294.541 409.161 293.87 405.789 293.87 402.383C293.87 395.505 296.603 388.908 301.466 384.044C306.33 379.181 312.927 376.448 319.805 376.448C326.683 376.448 333.28 379.181 338.144 384.044C343.007 388.908 345.74 395.505 345.74 402.383Z" fill="white" fill-opacity="0.05" stroke="#FAFAFA" stroke-opacity="0.05" stroke-width="2.51339" stroke-linecap="round" stroke-linejoin="round"/>
<path d="M343.429 653.426C343.429 656.83 342.077 660.095 339.67 662.502C337.263 664.909 333.998 666.262 330.593 666.262C327.189 666.262 323.924 664.909 321.517 662.502C319.11 660.095 317.758 656.83 317.758 653.426C317.758 650.022 319.11 646.757 321.517 644.35C323.924 641.943 327.189 640.59 330.593 640.59C333.998 640.59 337.263 641.943 339.67 644.35C342.077 646.757 343.429 650.022 343.429 653.426Z" fill="white" fill-opacity="0.05" stroke="#FAFAFA" stroke-opacity="0.05" stroke-width="1.24393" stroke-linecap="round" stroke-linejoin="round"/>
<path d="M468.121 551.177C468.121 552.862 467.789 554.531 467.144 556.089C466.499 557.646 465.553 559.061 464.361 560.253C463.169 561.445 461.754 562.39 460.197 563.035C458.64 563.68 456.971 564.012 455.285 564.012C453.599 564.012 451.93 563.68 450.373 563.035C448.816 562.39 447.401 561.445 446.209 560.253C445.017 559.061 444.071 557.646 443.426 556.089C442.781 554.531 442.449 552.862 442.449 551.177C442.449 547.772 443.801 544.507 446.209 542.1C448.616 539.693 451.881 538.341 455.285 538.341C458.689 538.341 461.954 539.693 464.361 542.1C466.768 544.507 468.121 547.772 468.121 551.177Z" fill="white" fill-opacity="0.05" stroke="#FAFAFA" stroke-opacity="0.05" stroke-width="1.24393" stroke-linecap="round" stroke-linejoin="round"/>
<path d="M166.843 836.736C166.843 840.142 166.172 843.514 164.869 846.661C163.566 849.807 161.655 852.666 159.247 855.075C156.839 857.483 153.98 859.393 150.833 860.697C147.687 862 144.314 862.671 140.908 862.671C134.03 862.671 127.433 859.938 122.57 855.075C117.706 850.211 114.974 843.614 114.974 836.736C114.974 829.858 117.706 823.261 122.57 818.397C127.433 813.534 134.03 810.801 140.908 810.801C147.787 810.801 154.383 813.534 159.247 818.397C164.111 823.261 166.843 829.858 166.843 836.736Z" fill="white" fill-opacity="0.05" stroke="#FAFAFA" stroke-opacity="0.05" stroke-width="2.51339" stroke-linecap="round" stroke-linejoin="round"/>
<path d="M727.481 1072.52C727.481 1079.4 724.749 1085.99 719.885 1090.86C715.022 1095.72 708.425 1098.45 701.547 1098.45C694.668 1098.45 688.072 1095.72 683.208 1090.86C678.344 1085.99 675.612 1079.4 675.612 1072.52C675.612 1065.64 678.344 1059.04 683.208 1054.18C688.072 1049.32 694.668 1046.58 701.547 1046.58C704.952 1046.58 708.325 1047.25 711.471 1048.56C714.618 1049.86 717.477 1051.77 719.885 1054.18C722.293 1056.59 724.204 1059.45 725.507 1062.59C726.811 1065.74 727.481 1069.11 727.481 1072.52Z" fill="white" fill-opacity="0.05" stroke="#FAFAFA" stroke-opacity="0.05" stroke-width="2.51339" stroke-linecap="round" stroke-linejoin="round"/>
<path d="M1222.62 896.991C1222.62 903.869 1219.89 910.466 1215.03 915.33C1210.16 920.193 1203.57 922.926 1196.69 922.926C1189.81 922.926 1183.21 920.193 1178.35 915.33C1173.49 910.466 1170.76 903.869 1170.76 896.991C1170.76 893.585 1171.43 890.213 1172.73 887.066C1174.03 883.92 1175.94 881.061 1178.35 878.652C1180.76 876.244 1183.62 874.334 1186.76 873.03C1189.91 871.727 1193.28 871.056 1196.69 871.056C1200.1 871.056 1203.47 871.727 1206.61 873.03C1209.76 874.334 1212.62 876.244 1215.03 878.652C1217.44 881.061 1219.35 883.92 1220.65 887.066C1221.95 890.213 1222.62 893.585 1222.62 896.991Z" fill="white" fill-opacity="0.05" stroke="#FAFAFA" stroke-opacity="0.05" stroke-width="2.51339" stroke-linecap="round" stroke-linejoin="round"/>
<path d="M1379.81 276.096C1379.81 282.974 1377.08 289.571 1372.22 294.434C1367.35 299.298 1360.76 302.03 1353.88 302.03C1350.47 302.03 1347.1 301.36 1343.95 300.056C1340.81 298.753 1337.95 296.843 1335.54 294.434C1333.13 292.026 1331.22 289.167 1329.92 286.02C1328.61 282.874 1327.94 279.501 1327.94 276.096C1327.94 272.69 1328.61 269.317 1329.92 266.171C1331.22 263.024 1333.13 260.165 1335.54 257.757C1337.95 255.349 1340.81 253.438 1343.95 252.135C1347.1 250.832 1350.47 250.161 1353.88 250.161C1360.76 250.161 1367.35 252.893 1372.22 257.757C1377.08 262.621 1379.81 269.217 1379.81 276.096Z" fill="white" fill-opacity="0.05" stroke="#FAFAFA" stroke-opacity="0.05" stroke-width="2.51339" stroke-linecap="round" stroke-linejoin="round"/>
<path d="M790.357 132.007C790.357 138.886 787.624 145.482 782.761 150.346C777.897 155.21 771.3 157.942 764.422 157.942C761.016 157.942 757.644 157.271 754.497 155.968C751.351 154.665 748.492 152.754 746.083 150.346C743.675 147.938 741.765 145.079 740.461 141.932C739.158 138.786 738.487 135.413 738.487 132.007C738.487 128.601 739.158 125.229 740.461 122.082C741.765 118.936 743.675 116.077 746.083 113.669C748.492 111.26 751.351 109.35 754.497 108.047C757.644 106.743 761.016 106.073 764.422 106.073C771.3 106.073 777.897 108.805 782.761 113.669C787.624 118.532 790.357 125.129 790.357 132.007Z" fill="white" fill-opacity="0.05" stroke="#FAFAFA" stroke-opacity="0.05" stroke-width="2.51339" stroke-linecap="round" stroke-linejoin="round"/>
<path d="M978.983 380.889C978.983 387.767 976.25 394.364 971.386 399.227C966.523 404.091 959.926 406.824 953.048 406.824C946.17 406.824 939.573 404.091 934.709 399.227C929.846 394.364 927.113 387.767 927.113 380.889C927.113 374.011 929.846 367.414 934.709 362.55C939.573 357.687 946.17 354.954 953.048 354.954C956.454 354.954 959.826 355.625 962.973 356.928C966.119 358.232 968.978 360.142 971.386 362.55C973.795 364.958 975.705 367.817 977.008 370.964C978.312 374.111 978.983 377.483 978.983 380.889Z" fill="white" fill-opacity="0.05" stroke="#FAFAFA" stroke-opacity="0.05" stroke-width="2.51339" stroke-linecap="round" stroke-linejoin="round"/>
<path d="M1610.36 726.704C1610.36 733.582 1607.62 740.179 1602.76 745.042C1597.9 749.906 1591.3 752.639 1584.42 752.639C1577.54 752.639 1570.95 749.906 1566.08 745.042C1561.22 740.179 1558.49 733.582 1558.49 726.704C1558.49 723.298 1559.16 719.926 1560.46 716.779C1561.76 713.633 1563.67 710.773 1566.08 708.365C1568.49 705.957 1571.35 704.047 1574.5 702.743C1577.64 701.44 1581.02 700.769 1584.42 700.769C1591.3 700.769 1597.9 703.501 1602.76 708.365C1607.62 713.229 1610.36 719.825 1610.36 726.704Z" fill="white" fill-opacity="0.05" stroke="#FAFAFA" stroke-opacity="0.05" stroke-width="2.51339" stroke-linecap="round" stroke-linejoin="round"/>
<path d="M59.4311 1130.15C59.4311 1133.56 58.0788 1136.82 55.6716 1139.23C53.2644 1141.63 49.9996 1142.99 46.5954 1142.99C43.1911 1142.99 39.9263 1141.63 37.5192 1139.23C35.112 1136.82 33.7596 1133.56 33.7596 1130.15C33.7596 1126.75 35.112 1123.48 37.5192 1121.08C39.9263 1118.67 43.1911 1117.32 46.5954 1117.32C49.9996 1117.32 53.2644 1118.67 55.6716 1121.08C58.0788 1123.48 59.4311 1126.75 59.4311 1130.15Z" fill="white" fill-opacity="0.05" stroke="#FAFAFA" stroke-opacity="0.05" stroke-width="1.24393" stroke-linecap="round" stroke-linejoin="round"/>
<path d="M46.332 197.503C46.332 200.909 45.6612 204.281 44.3578 207.428C43.0545 210.574 41.1442 213.433 38.7359 215.842C36.3276 218.25 33.4686 220.16 30.3221 221.464C27.1755 222.767 23.8031 223.438 20.3973 223.438C16.9915 223.438 13.619 222.767 10.4725 221.464C7.32592 220.16 4.46688 218.25 2.05861 215.842C-0.34965 213.433 -2.25998 210.574 -3.56332 207.428C-4.86667 204.281 -5.53748 200.909 -5.53748 197.503C-5.53747 190.625 -2.80509 184.028 2.05861 179.164C6.92232 174.301 13.5189 171.568 20.3973 171.568C23.8031 171.568 27.1755 172.239 30.3221 173.543C33.4686 174.846 36.3276 176.756 38.7359 179.164C41.1442 181.573 43.0545 184.432 44.3578 187.578C45.6612 190.725 46.332 194.097 46.332 197.503Z" fill="white" fill-opacity="0.05" stroke="#FAFAFA" stroke-opacity="0.05" stroke-width="2.51339" stroke-linecap="round" stroke-linejoin="round"/>
<path d="M313.552 69.1309C313.552 72.5351 312.2 75.7999 309.793 78.2071C307.385 80.6143 304.121 81.9666 300.716 81.9666C297.312 81.9666 294.047 80.6143 291.64 78.2071C289.233 75.7999 287.881 72.5351 287.881 69.1309C287.881 65.7267 289.233 62.4618 291.64 60.0547C294.047 57.6475 297.312 56.2952 300.716 56.2952C304.121 56.2952 307.385 57.6475 309.793 60.0547C312.2 62.4618 313.552 65.7267 313.552 69.1309Z" fill="white" fill-opacity="0.05" stroke="#FAFAFA" stroke-opacity="0.05" stroke-width="1.24393" stroke-linecap="round" stroke-linejoin="round"/>
<path d="M515.277 236.8C515.277 240.204 513.925 243.469 511.518 245.876C509.11 248.283 505.846 249.636 502.441 249.636C499.037 249.636 495.772 248.283 493.365 245.876C490.958 243.469 489.606 240.204 489.606 236.8C489.606 233.396 490.958 230.131 493.365 227.724C495.772 225.316 499.037 223.964 502.441 223.964C505.846 223.964 509.11 225.316 511.518 227.724C513.925 230.131 515.277 233.396 515.277 236.8Z" fill="white" fill-opacity="0.05" stroke="#FAFAFA" stroke-opacity="0.05" stroke-width="1.24393" stroke-linecap="round" stroke-linejoin="round"/>
<path d="M444.542 818.396C444.542 821.801 443.19 825.065 440.783 827.473C438.376 829.88 435.111 831.232 431.707 831.232C428.302 831.232 425.038 829.88 422.63 827.473C420.223 825.065 418.871 821.801 418.871 818.396C418.871 814.992 420.223 811.727 422.63 809.32C425.038 806.913 428.302 805.561 431.707 805.561C435.111 805.561 438.376 806.913 440.783 809.32C443.19 811.727 444.542 814.992 444.542 818.396Z" fill="white" fill-opacity="0.05" stroke="#FAFAFA" stroke-opacity="0.05" stroke-width="1.24393" stroke-linecap="round" stroke-linejoin="round"/>
<path d="M405.245 1179.93C405.245 1183.33 403.893 1186.6 401.486 1189.01C399.079 1191.41 395.814 1192.77 392.409 1192.77C390.724 1192.77 389.055 1192.43 387.497 1191.79C385.94 1191.14 384.525 1190.2 383.333 1189.01C382.141 1187.81 381.196 1186.4 380.551 1184.84C379.906 1183.28 379.574 1181.62 379.574 1179.93C379.574 1178.24 379.906 1176.57 380.551 1175.02C381.196 1173.46 382.141 1172.05 383.333 1170.85C384.525 1169.66 385.94 1168.72 387.497 1168.07C389.055 1167.43 390.724 1167.09 392.409 1167.09C395.814 1167.09 399.079 1168.45 401.486 1170.85C403.893 1173.26 405.245 1176.53 405.245 1179.93Z" fill="white" fill-opacity="0.05" stroke="#FAFAFA" stroke-opacity="0.05" stroke-width="1.24393" stroke-linecap="round" stroke-linejoin="round"/>
<path d="M1047.1 1151.11C1047.1 1154.52 1045.75 1157.78 1043.34 1160.19C1040.93 1162.6 1037.67 1163.95 1034.26 1163.95C1030.86 1163.95 1027.59 1162.6 1025.19 1160.19C1022.78 1157.78 1021.43 1154.52 1021.43 1151.11C1021.43 1147.71 1022.78 1144.44 1025.19 1142.04C1027.59 1139.63 1030.86 1138.28 1034.26 1138.28C1037.67 1138.28 1040.93 1139.63 1043.34 1142.04C1045.75 1144.44 1047.1 1147.71 1047.1 1151.11Z" fill="white" fill-opacity="0.05" stroke="#FAFAFA" stroke-opacity="0.05" stroke-width="1.24393" stroke-linecap="round" stroke-linejoin="round"/>
<path d="M863.711 907.471C863.711 910.875 862.359 914.14 859.952 916.547C857.545 918.954 854.28 920.307 850.876 920.307C847.471 920.307 844.207 918.954 841.799 916.547C839.392 914.14 838.04 910.875 838.04 907.471C838.04 904.067 839.392 900.802 841.799 898.395C844.207 895.988 847.471 894.635 850.876 894.635C854.28 894.635 857.545 895.988 859.952 898.395C862.359 900.802 863.711 904.067 863.711 907.471Z" fill="white" fill-opacity="0.05" stroke="#FAFAFA" stroke-opacity="0.05" stroke-width="1.24393" stroke-linecap="round" stroke-linejoin="round"/>
<path d="M1492.46 1122.29C1492.46 1125.7 1491.11 1128.96 1488.71 1131.37C1486.3 1133.78 1483.03 1135.13 1479.63 1135.13C1477.94 1135.13 1476.27 1134.8 1474.72 1134.15C1473.16 1133.51 1471.74 1132.56 1470.55 1131.37C1469.36 1130.18 1468.42 1128.76 1467.77 1127.21C1467.13 1125.65 1466.79 1123.98 1466.79 1122.29C1466.79 1120.61 1467.13 1118.94 1467.77 1117.38C1468.42 1115.83 1469.36 1114.41 1470.55 1113.22C1471.74 1112.03 1473.16 1111.08 1474.72 1110.44C1476.27 1109.79 1477.94 1109.46 1479.63 1109.46C1483.03 1109.46 1486.3 1110.81 1488.71 1113.22C1491.11 1115.63 1492.46 1118.89 1492.46 1122.29Z" fill="white" fill-opacity="0.05" stroke="#FAFAFA" stroke-opacity="0.05" stroke-width="1.24393" stroke-linecap="round" stroke-linejoin="round"/>
<path d="M1309.08 608.812C1309.08 612.216 1307.73 615.481 1305.32 617.888C1302.91 620.295 1299.65 621.648 1296.24 621.648C1292.84 621.648 1289.57 620.295 1287.17 617.888C1284.76 615.481 1283.41 612.216 1283.41 608.812C1283.41 605.408 1284.76 602.143 1287.17 599.736C1289.57 597.328 1292.84 595.976 1296.24 595.976C1299.65 595.976 1302.91 597.328 1305.32 599.736C1307.73 602.143 1309.08 605.408 1309.08 608.812Z" fill="white" fill-opacity="0.05" stroke="#FAFAFA" stroke-opacity="0.05" stroke-width="1.24393" stroke-linecap="round" stroke-linejoin="round"/>
<path d="M1702.05 378.269C1702.05 381.673 1700.7 384.938 1698.29 387.345C1695.88 389.752 1692.62 391.105 1689.21 391.105C1685.81 391.105 1682.54 389.752 1680.14 387.345C1677.73 384.938 1676.38 381.673 1676.38 378.269C1676.38 374.865 1677.73 371.6 1680.14 369.193C1682.54 366.785 1685.81 365.433 1689.21 365.433C1692.62 365.433 1695.88 366.785 1698.29 369.193C1700.7 371.6 1702.05 374.865 1702.05 378.269Z" fill="white" fill-opacity="0.05" stroke="#FAFAFA" stroke-opacity="0.05" stroke-width="1.24393" stroke-linecap="round" stroke-linejoin="round"/>
<path d="M1576.3 92.7098C1576.3 96.114 1574.95 99.3788 1572.54 101.786C1570.13 104.193 1566.87 105.545 1563.46 105.545C1560.06 105.545 1556.79 104.193 1554.39 101.786C1551.98 99.3788 1550.63 96.114 1550.63 92.7098C1550.63 89.3055 1551.98 86.0407 1554.39 83.6335C1556.79 81.2264 1560.06 79.874 1563.46 79.874C1566.87 79.874 1570.13 81.2264 1572.54 83.6335C1574.95 86.0407 1576.3 89.3055 1576.3 92.7098Z" fill="white" fill-opacity="0.05" stroke="#FAFAFA" stroke-opacity="0.05" stroke-width="1.24393" stroke-linecap="round" stroke-linejoin="round"/>
<path d="M1149.27 129.389C1149.27 132.793 1147.92 136.058 1145.51 138.465C1143.1 140.872 1139.84 142.225 1136.43 142.225C1133.03 142.225 1129.77 140.872 1127.36 138.465C1124.95 136.058 1123.6 132.793 1123.6 129.389C1123.6 125.985 1124.95 122.72 1127.36 120.313C1129.77 117.906 1133.03 116.553 1136.43 116.553C1139.84 116.553 1143.1 117.906 1145.51 120.313C1147.92 122.72 1149.27 125.985 1149.27 129.389Z" fill="white" fill-opacity="0.05" stroke="#FAFAFA" stroke-opacity="0.05" stroke-width="1.24393" stroke-linecap="round" stroke-linejoin="round"/>
<path fill-rule="evenodd" clip-rule="evenodd" d="M864.435 639.499L455.285 551.176L864.435 639.499Z" fill="white" fill-opacity="0.05"/>
<path d="M864.435 639.499L455.285 551.176" stroke="#FAFAFA" stroke-opacity="0.05" stroke-width="3"/>
<path fill-rule="evenodd" clip-rule="evenodd" d="M864.435 639.5L431.707 818.397L864.435 639.5Z" fill="white" fill-opacity="0.05"/>
<path d="M864.435 639.5L431.707 818.397" stroke="#FAFAFA" stroke-opacity="0.05" stroke-width="3"/>
<path fill-rule="evenodd" clip-rule="evenodd" d="M701.547 1072.52L431.707 818.397L701.547 1072.52Z" fill="white" fill-opacity="0.05"/>
<path d="M701.547 1072.52L431.707 818.397" stroke="#FAFAFA" stroke-opacity="0.05" stroke-width="3"/>
<path fill-rule="evenodd" clip-rule="evenodd" d="M392.41 1179.93L431.707 818.397L392.41 1179.93Z" fill="white" fill-opacity="0.05"/>
<path d="M392.41 1179.93L431.707 818.397" stroke="#FAFAFA" stroke-opacity="0.05" stroke-width="3"/>
<path fill-rule="evenodd" clip-rule="evenodd" d="M392.41 1179.93L46.5953 1130.15L392.41 1179.93Z" fill="white" fill-opacity="0.05"/>
<path d="M392.41 1179.93L46.5953 1130.15" stroke="#FAFAFA" stroke-opacity="0.05" stroke-width="3"/>
<path fill-rule="evenodd" clip-rule="evenodd" d="M140.908 836.735L46.5953 1130.15L140.908 836.735Z" fill="white" fill-opacity="0.05"/>
<path d="M140.908 836.735L46.5953 1130.15" stroke="#FAFAFA" stroke-opacity="0.05" stroke-width="3"/>
<path fill-rule="evenodd" clip-rule="evenodd" d="M-100.114 944.146L46.5953 1130.15L-100.114 944.146Z" fill="white" fill-opacity="0.05"/>
<path d="M-100.114 944.146L46.5953 1130.15" stroke="#FAFAFA" stroke-opacity="0.05" stroke-width="3"/>
<path fill-rule="evenodd" clip-rule="evenodd" d="M-194.427 1206.13L46.5955 1130.15L-194.427 1206.13Z" fill="white" fill-opacity="0.05"/>
<path d="M-194.427 1206.13L46.5955 1130.15" stroke="#FAFAFA" stroke-opacity="0.05" stroke-width="3"/>
<path fill-rule="evenodd" clip-rule="evenodd" d="M140.908 836.735L-42.4781 655.969L140.908 836.735Z" fill="white" fill-opacity="0.05"/>
<path d="M140.908 836.735L-42.4781 655.969" stroke="#FAFAFA" stroke-opacity="0.05" stroke-width="3"/>
<path fill-rule="evenodd" clip-rule="evenodd" d="M140.908 836.736L330.593 653.425L140.908 836.736Z" fill="white" fill-opacity="0.05"/>
<path d="M140.908 836.736L330.593 653.425" stroke="#FAFAFA" stroke-opacity="0.05" stroke-width="3"/>
<path fill-rule="evenodd" clip-rule="evenodd" d="M319.805 402.382L330.593 653.425L319.805 402.382Z" fill="white" fill-opacity="0.05"/>
<path d="M319.805 402.382L330.593 653.425" stroke="#FAFAFA" stroke-opacity="0.05" stroke-width="3"/>
<path fill-rule="evenodd" clip-rule="evenodd" d="M140.908 836.735L-107.973 396.607L140.908 836.735Z" fill="white" fill-opacity="0.05"/>
<path d="M140.908 836.735L-107.973 396.607" stroke="#FAFAFA" stroke-opacity="0.05" stroke-width="3"/>
<path fill-rule="evenodd" clip-rule="evenodd" d="M140.908 836.735L392.409 1179.93L140.908 836.735Z" fill="white" fill-opacity="0.05"/>
<path d="M140.908 836.735L392.409 1179.93" stroke="#FAFAFA" stroke-opacity="0.05" stroke-width="3"/>
<path fill-rule="evenodd" clip-rule="evenodd" d="M140.908 836.736L431.706 818.397L140.908 836.736Z" fill="white" fill-opacity="0.05"/>
<path d="M140.908 836.736L431.706 818.397" stroke="#FAFAFA" stroke-opacity="0.05" stroke-width="3"/>
<path fill-rule="evenodd" clip-rule="evenodd" d="M20.3972 197.502L330.593 653.424L20.3972 197.502Z" fill="white" fill-opacity="0.05"/>
<path d="M20.3972 197.502L330.593 653.424" stroke="#FAFAFA" stroke-opacity="0.05" stroke-width="3"/>
<path fill-rule="evenodd" clip-rule="evenodd" d="M20.3972 197.502L300.716 69.1318L20.3972 197.502Z" fill="white" fill-opacity="0.05"/>
<path d="M20.3972 197.502L300.716 69.1318" stroke="#FAFAFA" stroke-opacity="0.05" stroke-width="3"/>
<path fill-rule="evenodd" clip-rule="evenodd" d="M502.441 236.799L300.716 69.1318L502.441 236.799Z" fill="white" fill-opacity="0.05"/>
<path d="M502.441 236.799L300.716 69.1318" stroke="#FAFAFA" stroke-opacity="0.05" stroke-width="3"/>
<path fill-rule="evenodd" clip-rule="evenodd" d="M502.441 236.8L764.422 132.008L502.441 236.8Z" fill="white" fill-opacity="0.05"/>
<path d="M502.441 236.8L764.422 132.008" stroke="#FAFAFA" stroke-opacity="0.05" stroke-width="3"/>
<path fill-rule="evenodd" clip-rule="evenodd" d="M953.048 380.889L764.422 132.008L953.048 380.889Z" fill="white" fill-opacity="0.05"/>
<path d="M953.048 380.889L764.422 132.008" stroke="#FAFAFA" stroke-opacity="0.05" stroke-width="3"/>
<path fill-rule="evenodd" clip-rule="evenodd" d="M953.048 380.888L1353.88 276.096L953.048 380.888Z" fill="white" fill-opacity="0.05"/>
<path d="M953.048 380.888L1353.88 276.096" stroke="#FAFAFA" stroke-opacity="0.05" stroke-width="3"/>
<path fill-rule="evenodd" clip-rule="evenodd" d="M1136.43 129.388L1353.88 276.097L1136.43 129.388Z" fill="white" fill-opacity="0.05"/>
<path d="M1136.43 129.388L1353.88 276.097" stroke="#FAFAFA" stroke-opacity="0.05" stroke-width="3"/>
<path fill-rule="evenodd" clip-rule="evenodd" d="M1563.46 92.7109L1353.88 276.097L1563.46 92.7109Z" fill="white" fill-opacity="0.05"/>
<path d="M1563.46 92.7109L1353.88 276.097" stroke="#FAFAFA" stroke-opacity="0.05" stroke-width="3"/>
<path fill-rule="evenodd" clip-rule="evenodd" d="M1689.21 378.269L1353.88 276.096L1689.21 378.269Z" fill="white" fill-opacity="0.05"/>
<path d="M1689.21 378.269L1353.88 276.096" stroke="#FAFAFA" stroke-opacity="0.05" stroke-width="3"/>
<path fill-rule="evenodd" clip-rule="evenodd" d="M1296.24 608.811L1353.88 276.096L1296.24 608.811Z" fill="white" fill-opacity="0.05"/>
<path d="M1296.24 608.811L1353.88 276.096" stroke="#FAFAFA" stroke-opacity="0.05" stroke-width="3"/>
<path fill-rule="evenodd" clip-rule="evenodd" d="M1296.24 608.813L1584.42 726.704L1296.24 608.813Z" fill="white" fill-opacity="0.05"/>
<path d="M1296.24 608.813L1584.42 726.704" stroke="#FAFAFA" stroke-opacity="0.05" stroke-width="3"/>
<path fill-rule="evenodd" clip-rule="evenodd" d="M1196.69 896.99L1584.42 726.703L1196.69 896.99Z" fill="white" fill-opacity="0.05"/>
<path d="M1196.69 896.99L1584.42 726.703" stroke="#FAFAFA" stroke-opacity="0.05" stroke-width="3"/>
<path fill-rule="evenodd" clip-rule="evenodd" d="M1479.63 1122.29L1584.42 726.703L1479.63 1122.29Z" fill="white" fill-opacity="0.05"/>
<path d="M1479.63 1122.29L1584.42 726.703" stroke="#FAFAFA" stroke-opacity="0.05" stroke-width="3"/>
<path fill-rule="evenodd" clip-rule="evenodd" d="M1196.69 896.989L850.876 907.468L1196.69 896.989Z" fill="white" fill-opacity="0.05"/>
<path d="M1196.69 896.989L850.876 907.468" stroke="#FAFAFA" stroke-opacity="0.05" stroke-width="3"/>
<path fill-rule="evenodd" clip-rule="evenodd" d="M1034.26 1151.11L850.876 907.47L1034.26 1151.11Z" fill="white" fill-opacity="0.05"/>
<path d="M1034.26 1151.11L850.876 907.47" stroke="#FAFAFA" stroke-opacity="0.05" stroke-width="3"/>
<path fill-rule="evenodd" clip-rule="evenodd" d="M701.546 1072.52L850.875 907.47L701.546 1072.52Z" fill="white" fill-opacity="0.05"/>
<path d="M701.546 1072.52L850.875 907.47" stroke="#FAFAFA" stroke-opacity="0.05" stroke-width="3"/>
<path d="M1188.49 1206.36C1188.49 1209.76 1187.14 1213.03 1184.73 1215.44C1182.32 1217.84 1179.06 1219.19 1175.65 1219.19C1172.25 1219.19 1168.98 1217.84 1166.58 1215.44C1164.17 1213.03 1162.82 1209.76 1162.82 1206.36C1162.82 1204.67 1163.15 1203 1163.79 1201.45C1164.44 1199.89 1165.38 1198.47 1166.58 1197.28C1167.77 1196.09 1169.18 1195.15 1170.74 1194.5C1172.3 1193.86 1173.97 1193.52 1175.65 1193.52C1177.34 1193.52 1179.01 1193.86 1180.56 1194.5C1182.12 1195.15 1183.54 1196.09 1184.73 1197.28C1185.92 1198.47 1186.87 1199.89 1187.51 1201.45C1188.16 1203 1188.49 1204.67 1188.49 1206.36Z" fill="white" fill-opacity="0.05" stroke="#FAFAFA" stroke-opacity="0.05" stroke-width="1.24393" stroke-linecap="round" stroke-linejoin="round"/>
<path d="M1377.44 1232.3C1377.44 1235.7 1376.09 1238.96 1373.68 1241.37C1371.27 1243.78 1368.01 1245.13 1364.61 1245.13C1361.2 1245.13 1357.94 1243.78 1355.53 1241.37C1353.12 1238.96 1351.77 1235.7 1351.77 1232.3C1351.77 1228.89 1353.12 1225.63 1355.53 1223.22C1357.94 1220.81 1361.2 1219.46 1364.61 1219.46C1368.01 1219.46 1371.27 1220.81 1373.68 1223.22C1376.09 1225.63 1377.44 1228.89 1377.44 1232.3Z" fill="white" fill-opacity="0.05" stroke="#FAFAFA" stroke-opacity="0.05" stroke-width="1.24393" stroke-linecap="round" stroke-linejoin="round"/>
<path fill-rule="evenodd" clip-rule="evenodd" d="M20.3973 197.502L-45.0979 3.63599L20.3973 197.502Z" fill="white" fill-opacity="0.05"/>
<path d="M20.3973 197.502L-45.0979 3.63599" stroke="#FAFAFA" stroke-opacity="0.05" stroke-width="3"/>
<path fill-rule="evenodd" clip-rule="evenodd" d="M20.3972 197.503L-220.625 124.149L20.3972 197.503Z" fill="white" fill-opacity="0.05"/>
<path d="M20.3972 197.503L-220.625 124.149" stroke="#FAFAFA" stroke-opacity="0.05" stroke-width="3"/>
<path fill-rule="evenodd" clip-rule="evenodd" d="M140.908 836.736L-147.27 776.48L140.908 836.736Z" fill="white" fill-opacity="0.05"/>
<path d="M140.908 836.736L-147.27 776.48" stroke="#FAFAFA" stroke-opacity="0.05" stroke-width="3"/>
<path fill-rule="evenodd" clip-rule="evenodd" d="M1296.24 608.812L953.048 380.889L1296.24 608.812Z" fill="white" fill-opacity="0.05"/>
<path d="M1296.24 608.812L953.048 380.889" stroke="#FAFAFA" stroke-opacity="0.05" stroke-width="3"/>
<path fill-rule="evenodd" clip-rule="evenodd" d="M1296.24 608.813L1196.69 896.992L1296.24 608.813Z" fill="white" fill-opacity="0.05"/>
<path d="M1296.24 608.813L1196.69 896.992" stroke="#FAFAFA" stroke-opacity="0.05" stroke-width="3"/>
<path fill-rule="evenodd" clip-rule="evenodd" d="M1175.65 1206.36L1196.69 896.989L1175.65 1206.36Z" fill="white" fill-opacity="0.05"/>
<path d="M1175.65 1206.36L1196.69 896.989" stroke="#FAFAFA" stroke-opacity="0.05" stroke-width="3"/>
<path fill-rule="evenodd" clip-rule="evenodd" d="M1364.61 1232.29L1196.69 896.989L1364.61 1232.29Z" fill="white" fill-opacity="0.05"/>
<path d="M1364.61 1232.29L1196.69 896.989" stroke="#FAFAFA" stroke-opacity="0.05" stroke-width="3"/>
<path fill-rule="evenodd" clip-rule="evenodd" d="M1820.32 595.041L1584.42 726.704L1820.32 595.041Z" fill="white" fill-opacity="0.05"/>
<path d="M1820.32 595.041L1584.42 726.704" stroke="#FAFAFA" stroke-opacity="0.05" stroke-width="3"/>
<path fill-rule="evenodd" clip-rule="evenodd" d="M1846.25 865.502L1584.42 726.703L1846.25 865.502Z" fill="white" fill-opacity="0.05"/>
<path d="M1846.25 865.502L1584.42 726.703" stroke="#FAFAFA" stroke-opacity="0.05" stroke-width="3"/>
<path fill-rule="evenodd" clip-rule="evenodd" d="M319.805 402.382L455.285 551.176L319.805 402.382Z" fill="white" fill-opacity="0.05"/>
<path d="M319.805 402.382L455.285 551.176" stroke="#FAFAFA" stroke-opacity="0.05" stroke-width="3"/>
<path fill-rule="evenodd" clip-rule="evenodd" d="M319.805 402.381L502.441 236.799L319.805 402.381Z" fill="white" fill-opacity="0.05"/>
<path d="M319.805 402.381L502.441 236.799" stroke="#FAFAFA" stroke-opacity="0.05" stroke-width="3"/>
<path fill-rule="evenodd" clip-rule="evenodd" d="M319.805 402.381L20.3972 197.502L319.805 402.381Z" fill="white" fill-opacity="0.05"/>
<path d="M319.805 402.381L20.3972 197.502" stroke="#FAFAFA" stroke-opacity="0.05" stroke-width="3"/>
<path fill-rule="evenodd" clip-rule="evenodd" d="M764.422 132.008L455.285 551.177L764.422 132.008Z" fill="white" fill-opacity="0.05"/>
<path d="M764.422 132.008L455.285 551.177" stroke="#FAFAFA" stroke-opacity="0.05" stroke-width="3"/>
<path fill-rule="evenodd" clip-rule="evenodd" d="M502.441 236.799L455.285 551.176L502.441 236.799Z" fill="white" fill-opacity="0.05"/>
<path d="M502.441 236.799L455.285 551.176" stroke="#FAFAFA" stroke-opacity="0.05" stroke-width="3"/>
<path fill-rule="evenodd" clip-rule="evenodd" d="M953.048 380.889L455.285 551.176L953.048 380.889Z" fill="white" fill-opacity="0.05"/>
<path d="M953.048 380.889L455.285 551.176" stroke="#FAFAFA" stroke-opacity="0.05" stroke-width="3"/>
<path fill-rule="evenodd" clip-rule="evenodd" d="M864.435 639.5L850.876 907.47L864.435 639.5Z" fill="white" fill-opacity="0.05"/>
<path d="M864.435 639.5L850.876 907.47" stroke="#FAFAFA" stroke-opacity="0.05" stroke-width="3"/>
<path fill-rule="evenodd" clip-rule="evenodd" d="M1296.24 608.813L864.435 639.5L1296.24 608.813Z" fill="white" fill-opacity="0.05"/>
<path d="M1296.24 608.813L864.435 639.5" stroke="#FAFAFA" stroke-opacity="0.05" stroke-width="3"/>
<path fill-rule="evenodd" clip-rule="evenodd" d="M953.048 380.889L864.435 639.5L953.048 380.889Z" fill="white" fill-opacity="0.05"/>
<path d="M953.048 380.889L864.435 639.5" stroke="#FAFAFA" stroke-opacity="0.05" stroke-width="3"/>
<path d="M1571.95 517.236C1571.95 520.64 1570.6 523.905 1568.19 526.312C1565.79 528.72 1562.52 530.072 1559.12 530.072C1555.71 530.072 1552.45 528.72 1550.04 526.312C1547.63 523.905 1546.28 520.64 1546.28 517.236C1546.28 513.832 1547.63 510.567 1550.04 508.16C1552.45 505.753 1555.71 504.4 1559.12 504.4C1562.52 504.4 1565.79 505.753 1568.19 508.16C1570.6 510.567 1571.95 513.832 1571.95 517.236Z" fill="white" fill-opacity="0.05" stroke="#FAFAFA" stroke-opacity="0.05" stroke-width="1.24393" stroke-linecap="round" stroke-linejoin="round"/>
<path fill-rule="evenodd" clip-rule="evenodd" d="M1689.21 378.268L1833.3 210.601L1689.21 378.268Z" fill="white" fill-opacity="0.05"/>
<path d="M1689.21 378.268L1833.3 210.601" stroke="#FAFAFA" stroke-opacity="0.05" stroke-width="3"/>
<path fill-rule="evenodd" clip-rule="evenodd" d="M1689.21 378.268L1559.12 517.235L1689.21 378.268Z" fill="white" fill-opacity="0.05"/>
<path d="M1689.21 378.268L1559.12 517.235" stroke="#FAFAFA" stroke-opacity="0.05" stroke-width="3"/>
<path fill-rule="evenodd" clip-rule="evenodd" d="M1584.42 726.703L1559.12 517.235L1584.42 726.703Z" fill="white" fill-opacity="0.05"/>
<path d="M1584.42 726.703L1559.12 517.235" stroke="#FAFAFA" stroke-opacity="0.05" stroke-width="3"/>
<path fill-rule="evenodd" clip-rule="evenodd" d="M1296.24 608.812L1559.12 517.235L1296.24 608.812Z" fill="white" fill-opacity="0.05"/>
<path d="M1296.24 608.812L1559.12 517.235" stroke="#FAFAFA" stroke-opacity="0.05" stroke-width="3"/>
<path fill-rule="evenodd" clip-rule="evenodd" d="M1353.88 276.096L1559.12 517.235L1353.88 276.096Z" fill="white" fill-opacity="0.05"/>
<path d="M1353.88 276.096L1559.12 517.235" stroke="#FAFAFA" stroke-opacity="0.05" stroke-width="3"/>
<path fill-rule="evenodd" clip-rule="evenodd" d="M1479.63 1122.29L1773.05 1088.24L1479.63 1122.29Z" fill="white" fill-opacity="0.05"/>
<path d="M1479.63 1122.29L1773.05 1088.24" stroke="#FAFAFA" stroke-opacity="0.05" stroke-width="3"/>
<path fill-rule="evenodd" clip-rule="evenodd" d="M1479.63 1122.29L1196.69 896.989L1479.63 1122.29Z" fill="white" fill-opacity="0.05"/>
<path d="M1479.63 1122.29L1196.69 896.989" stroke="#FAFAFA" stroke-opacity="0.05" stroke-width="3"/>
<path fill-rule="evenodd" clip-rule="evenodd" d="M1672.12 1284.16L1773.05 1088.24L1672.12 1284.16Z" fill="white" fill-opacity="0.05"/>
<path d="M1672.12 1284.16L1773.05 1088.24" stroke="#FAFAFA" stroke-opacity="0.05" stroke-width="3"/>
<path d="M613.52 1241.49C613.52 1244.9 612.168 1248.16 609.76 1250.57C607.353 1252.98 604.088 1254.33 600.684 1254.33C598.999 1254.33 597.33 1254 595.772 1253.35C594.215 1252.71 592.8 1251.76 591.608 1250.57C590.416 1249.38 589.471 1247.96 588.826 1246.41C588.181 1244.85 587.849 1243.18 587.849 1241.49C587.849 1239.81 588.181 1238.14 588.826 1236.58C589.471 1235.03 590.416 1233.61 591.608 1232.42C592.8 1231.23 594.215 1230.28 595.772 1229.64C597.33 1228.99 598.999 1228.66 600.684 1228.66C604.088 1228.66 607.353 1230.01 609.76 1232.42C612.168 1234.83 613.52 1238.09 613.52 1241.49Z" fill="white" fill-opacity="0.05" stroke="#FAFAFA" stroke-opacity="0.05" stroke-width="1.24393" stroke-linecap="round" stroke-linejoin="round"/>
<path d="M599.399 -5.16428C599.399 -1.76004 598.046 1.50478 595.639 3.91195C593.232 6.31911 589.967 7.67144 586.563 7.67144C583.159 7.67144 579.894 6.31911 577.487 3.91195C575.079 1.50478 573.727 -1.76004 573.727 -5.16428C573.727 -8.56852 575.079 -11.8333 577.487 -14.2405C579.894 -16.6477 583.159 -18 586.563 -18C589.967 -18 593.232 -16.6477 595.639 -14.2405C598.046 -11.8333 599.399 -8.56852 599.399 -5.16428Z" fill="white" fill-opacity="0.05" stroke="#FAFAFA" stroke-opacity="0.05" stroke-width="1.24393" stroke-linecap="round" stroke-linejoin="round"/>
<path d="M961.898 3.96585C961.898 7.37009 960.546 10.6349 958.139 13.0421C955.731 15.4492 952.467 16.8016 949.062 16.8016C945.658 16.8016 942.393 15.4492 939.986 13.0421C937.579 10.6349 936.227 7.37009 936.227 3.96585C936.227 0.561604 937.579 -2.70322 939.986 -5.11038C942.393 -7.51754 945.658 -8.86987 949.062 -8.86987C952.467 -8.86987 955.731 -7.51754 958.139 -5.11038C960.546 -2.70322 961.898 0.561604 961.898 3.96585Z" fill="white" fill-opacity="0.05" stroke="#FAFAFA" stroke-opacity="0.05" stroke-width="1.24393" stroke-linecap="round" stroke-linejoin="round"/>
<path fill-rule="evenodd" clip-rule="evenodd" d="M586.563 -5.16504L764.422 132.007L586.563 -5.16504Z" fill="white" fill-opacity="0.05"/>
<path d="M586.563 -5.16504L764.422 132.007" stroke="#FAFAFA" stroke-opacity="0.05" stroke-width="3"/>
<path fill-rule="evenodd" clip-rule="evenodd" d="M949.062 3.9668L764.422 132.008L949.062 3.9668Z" fill="white" fill-opacity="0.05"/>
<path d="M949.062 3.9668L764.422 132.008" stroke="#FAFAFA" stroke-opacity="0.05" stroke-width="3"/>
<path fill-rule="evenodd" clip-rule="evenodd" d="M701.547 1072.52L600.684 1241.5L701.547 1072.52Z" fill="white" fill-opacity="0.05"/>
<path d="M701.547 1072.52L600.684 1241.5" stroke="#FAFAFA" stroke-opacity="0.05" stroke-width="3"/>
<path fill-rule="evenodd" clip-rule="evenodd" d="M701.546 1072.52L874.454 1258.52L701.546 1072.52Z" fill="white" fill-opacity="0.05"/>
<path d="M701.546 1072.52L874.454 1258.52" stroke="#FAFAFA" stroke-opacity="0.05" stroke-width="3"/>
<path fill-rule="evenodd" clip-rule="evenodd" d="M431.707 818.397L850.876 907.471L431.707 818.397Z" fill="white" fill-opacity="0.05"/>
<path d="M431.707 818.397L850.876 907.471" stroke="#FAFAFA" stroke-opacity="0.05" stroke-width="3"/>
<path fill-rule="evenodd" clip-rule="evenodd" d="M330.594 653.425L431.707 818.397L330.594 653.425Z" fill="white" fill-opacity="0.05"/>
<path d="M330.594 653.425L431.707 818.397" stroke="#FAFAFA" stroke-opacity="0.05" stroke-width="3"/>
<path fill-rule="evenodd" clip-rule="evenodd" d="M455.285 551.176L431.707 818.396L455.285 551.176Z" fill="white" fill-opacity="0.05"/>
<path d="M455.285 551.176L431.707 818.396" stroke="#FAFAFA" stroke-opacity="0.05" stroke-width="3"/>
</svg>
