<svg width="64" height="64" viewBox="0 0 64 64" fill="none" xmlns="http://www.w3.org/2000/svg">
<rect width="64" height="64" rx="32" fill="#F1F6FA"/>
<path d="M18.5 18H45.5C45.8978 18 46.2794 18.158 46.5607 18.4393C46.842 18.7206 47 19.1022 47 19.5V43.5C47 43.8978 46.842 44.2794 46.5607 44.5607C46.2794 44.842 45.8978 45 45.5 45H18.5C18.1022 45 17.7206 44.842 17.4393 44.5607C17.158 44.2794 17 43.8978 17 43.5V19.5C17 19.1022 17.158 18.7206 17.4393 18.4393C17.7206 18.158 18.1022 18 18.5 18V18ZM44 31.5H20V42H44V31.5ZM44 25.5V21H20V25.5H44Z" fill="#0088DC"/>
</svg>
