<svg width="50" height="51" viewBox="0 0 50 51" fill="none" xmlns="http://www.w3.org/2000/svg">
<rect y="0.5" width="50" height="50" rx="25" fill="#F1F6FA"/>
<path d="M25 38C18.3724 38 13 32.6276 13 26C13 19.3724 18.3724 14 25 14C31.6276 14 37 19.3724 37 26C37 32.6276 31.6276 38 25 38ZM25 35.6C27.5461 35.6 29.9879 34.5886 31.7882 32.7882C33.5886 30.9879 34.6 28.5461 34.6 26C34.6 23.4539 33.5886 21.0121 31.7882 19.2118C29.9879 17.4114 27.5461 16.4 25 16.4C22.4539 16.4 20.0121 17.4114 18.2118 19.2118C16.4114 21.0121 15.4 23.4539 15.4 26C15.4 28.5461 16.4114 30.9879 18.2118 32.7882C20.0121 34.5886 22.4539 35.6 25 35.6ZM21.4 21.2H28.6L31.6 25.4L25 32L18.4 25.4L21.4 21.2ZM22.636 23.6L21.532 25.148L25 28.616L28.468 25.148L27.364 23.6H22.636Z" fill="#0088DC"/>
</svg>
