<svg width="380" height="800" viewBox="0 0 380 800" fill="none" xmlns="http://www.w3.org/2000/svg">
<rect x="5" y="5" width="370" height="790" rx="45" fill="white"/>
<rect x="5" y="5" width="370" height="790" rx="45" stroke="#1A191E" stroke-width="10"/>
<path d="M44.828 53.9999H57V55.9999H44.828L50.192 61.3639L48.778 62.7779L41 54.9999L48.778 47.2219L50.192 48.6359L44.828 53.9999Z" fill="#1A191E"/>
<path d="M113.94 62V48H115.94V60.42H122.34V62H113.94ZM124.103 62V52.02H126.103V62H124.103ZM125.103 50.08C124.73 50.08 124.416 49.96 124.163 49.72C123.91 49.48 123.783 49.1733 123.783 48.8C123.783 48.44 123.91 48.1467 124.163 47.92C124.416 47.68 124.73 47.56 125.103 47.56C125.476 47.56 125.79 47.68 126.043 47.92C126.296 48.1467 126.423 48.44 126.423 48.8C126.423 49.1733 126.296 49.48 126.043 49.72C125.79 49.96 125.476 50.08 125.103 50.08ZM132.263 62.24C131.436 62.24 130.696 62.1 130.043 61.82C129.403 61.54 128.89 61.1467 128.503 60.64C128.13 60.1333 127.903 59.5467 127.823 58.88H129.843C129.923 59.1867 130.063 59.4733 130.263 59.74C130.463 60.0067 130.73 60.22 131.063 60.38C131.396 60.54 131.796 60.62 132.263 60.62C132.703 60.62 133.063 60.56 133.343 60.44C133.623 60.3067 133.83 60.1333 133.963 59.92C134.096 59.7067 134.163 59.4733 134.163 59.22C134.163 58.86 134.07 58.5867 133.883 58.4C133.71 58.2133 133.443 58.0667 133.083 57.96C132.736 57.84 132.316 57.7267 131.823 57.62C131.396 57.54 130.97 57.4333 130.543 57.3C130.116 57.1667 129.73 56.9933 129.383 56.78C129.036 56.5667 128.756 56.3 128.543 55.98C128.33 55.66 128.223 55.2667 128.223 54.8C128.223 54.2133 128.376 53.6933 128.683 53.24C128.99 52.7867 129.423 52.4333 129.983 52.18C130.543 51.9133 131.21 51.78 131.983 51.78C133.09 51.78 133.983 52.0467 134.663 52.58C135.356 53.1 135.756 53.8533 135.863 54.84H133.943C133.876 54.3867 133.67 54.0333 133.323 53.78C132.99 53.5267 132.543 53.4 131.983 53.4C131.41 53.4 130.97 53.5133 130.663 53.74C130.37 53.9667 130.223 54.2667 130.223 54.64C130.223 54.88 130.31 55.0933 130.483 55.28C130.67 55.4533 130.93 55.6067 131.263 55.74C131.61 55.86 132.016 55.9667 132.483 56.06C133.163 56.2067 133.776 56.38 134.323 56.58C134.883 56.7667 135.336 57.0533 135.683 57.44C136.03 57.8133 136.203 58.36 136.203 59.08C136.216 59.7067 136.056 60.26 135.723 60.74C135.403 61.2067 134.95 61.5733 134.363 61.84C133.776 62.1067 133.076 62.24 132.263 62.24ZM141.668 62C141.028 62 140.475 61.9 140.008 61.7C139.542 61.5 139.182 61.1667 138.928 60.7C138.675 60.2333 138.548 59.6 138.548 58.8V53.7H136.828V52.02H138.548L138.808 49.52H140.548V52.02H143.388V53.7H140.548V58.82C140.548 59.3933 140.668 59.7867 140.908 60C141.148 60.2 141.562 60.3 142.148 60.3H143.288V62H141.668ZM148.316 62.24C147.489 62.24 146.802 62.1 146.256 61.82C145.709 61.54 145.302 61.1667 145.036 60.7C144.769 60.2333 144.636 59.7267 144.636 59.18C144.636 58.5267 144.802 57.9667 145.136 57.5C145.482 57.0333 145.976 56.6733 146.616 56.42C147.256 56.1667 148.029 56.04 148.936 56.04H151.556C151.556 55.4533 151.462 54.9733 151.276 54.6C151.102 54.2133 150.842 53.9267 150.496 53.74C150.162 53.54 149.742 53.44 149.236 53.44C148.636 53.44 148.116 53.5867 147.676 53.88C147.236 54.1733 146.962 54.6067 146.856 55.18H144.856C144.936 54.46 145.176 53.8467 145.576 53.34C145.989 52.8333 146.516 52.4467 147.156 52.18C147.809 51.9133 148.502 51.78 149.236 51.78C150.169 51.78 150.956 51.9467 151.596 52.28C152.236 52.6133 152.722 53.0867 153.056 53.7C153.389 54.3 153.556 55.0133 153.556 55.84V62H151.816L151.656 60.3C151.522 60.5667 151.349 60.82 151.136 61.06C150.936 61.3 150.696 61.5067 150.416 61.68C150.149 61.8533 149.836 61.9867 149.476 62.08C149.129 62.1867 148.742 62.24 148.316 62.24ZM148.696 60.62C149.122 60.62 149.509 60.5333 149.856 60.36C150.202 60.1867 150.496 59.9533 150.736 59.66C150.989 59.3533 151.176 59.0133 151.296 58.64C151.429 58.2667 151.502 57.88 151.516 57.48V57.44H149.136C148.562 57.44 148.096 57.5133 147.736 57.66C147.376 57.7933 147.116 57.98 146.956 58.22C146.809 58.46 146.736 58.74 146.736 59.06C146.736 59.38 146.809 59.66 146.956 59.9C147.116 60.1267 147.342 60.3067 147.636 60.44C147.929 60.56 148.282 60.62 148.696 60.62ZM164.506 62.24C163.546 62.24 162.693 62.0133 161.946 61.56C161.213 61.1067 160.639 60.4867 160.226 59.7C159.826 58.9 159.626 58 159.626 57C159.626 55.9867 159.826 55.0867 160.226 54.3C160.639 53.5133 161.219 52.9 161.966 52.46C162.713 52.0067 163.566 51.78 164.526 51.78C165.313 51.78 166.006 51.94 166.606 52.26C167.219 52.5667 167.693 53 168.026 53.56V47.6H170.026V62H168.226L168.026 60.44C167.813 60.7467 167.546 61.04 167.226 61.32C166.906 61.5867 166.519 61.8067 166.066 61.98C165.613 62.1533 165.093 62.24 164.506 62.24ZM164.826 60.5C165.453 60.5 166.006 60.3533 166.486 60.06C166.966 59.7667 167.339 59.36 167.606 58.84C167.873 58.3067 168.006 57.6933 168.006 57C168.006 56.3067 167.873 55.7 167.606 55.18C167.339 54.66 166.966 54.2533 166.486 53.96C166.006 53.6667 165.453 53.52 164.826 53.52C164.213 53.52 163.666 53.6667 163.186 53.96C162.706 54.2533 162.333 54.66 162.066 55.18C161.799 55.7 161.666 56.3067 161.666 57C161.666 57.6933 161.799 58.3067 162.066 58.84C162.333 59.36 162.706 59.7667 163.186 60.06C163.666 60.3533 164.213 60.5 164.826 60.5ZM176.72 62.24C175.747 62.24 174.887 62.0267 174.14 61.6C173.394 61.16 172.807 60.5533 172.38 59.78C171.967 58.9933 171.76 58.08 171.76 57.04C171.76 55.9867 171.967 55.0667 172.38 54.28C172.794 53.4933 173.374 52.88 174.12 52.44C174.88 52 175.754 51.78 176.74 51.78C177.727 51.78 178.574 52 179.28 52.44C180 52.8667 180.547 53.44 180.92 54.16C181.307 54.88 181.5 55.6733 181.5 56.54C181.5 56.6733 181.5 56.82 181.5 56.98C181.5 57.1267 181.494 57.2933 181.48 57.48H173.22V56.06H179.52C179.48 55.2467 179.2 54.6067 178.68 54.14C178.16 53.6733 177.507 53.44 176.72 53.44C176.187 53.44 175.687 53.56 175.22 53.8C174.767 54.04 174.4 54.3933 174.12 54.86C173.854 55.3267 173.72 55.9133 173.72 56.62V57.2C173.72 57.9333 173.854 58.5533 174.12 59.06C174.4 59.5533 174.767 59.9333 175.22 60.2C175.674 60.4533 176.167 60.58 176.7 60.58C177.34 60.58 177.867 60.44 178.28 60.16C178.707 59.8667 179.02 59.48 179.22 59H181.22C181.047 59.6133 180.754 60.1667 180.34 60.66C179.927 61.14 179.414 61.5267 178.8 61.82C178.2 62.1 177.507 62.24 176.72 62.24ZM192.3 62.24C191.326 62.24 190.46 62.02 189.7 61.58C188.94 61.14 188.34 60.5267 187.9 59.74C187.473 58.9533 187.26 58.0467 187.26 57.02C187.26 55.98 187.473 55.0667 187.9 54.28C188.34 53.4933 188.94 52.88 189.7 52.44C190.46 52 191.326 51.78 192.3 51.78C193.526 51.78 194.546 52.1 195.36 52.74C196.186 53.3667 196.713 54.22 196.94 55.3H194.86C194.726 54.7267 194.42 54.2867 193.94 53.98C193.473 53.66 192.92 53.5 192.28 53.5C191.746 53.5 191.253 53.6333 190.8 53.9C190.346 54.1667 189.98 54.56 189.7 55.08C189.433 55.6 189.3 56.24 189.3 57C189.3 57.5733 189.38 58.08 189.54 58.52C189.7 58.96 189.913 59.3333 190.18 59.64C190.46 59.9333 190.78 60.16 191.14 60.32C191.5 60.4667 191.88 60.54 192.28 60.54C192.72 60.54 193.113 60.4733 193.46 60.34C193.806 60.1933 194.1 59.9867 194.34 59.72C194.593 59.44 194.766 59.1067 194.86 58.72H196.94C196.713 59.7733 196.186 60.6267 195.36 61.28C194.533 61.92 193.513 62.24 192.3 62.24ZM203.28 62.24C202.334 62.24 201.48 62.0267 200.72 61.6C199.974 61.16 199.38 60.5467 198.94 59.76C198.514 58.9733 198.3 58.06 198.3 57.02C198.3 55.9667 198.52 55.0467 198.96 54.26C199.4 53.4733 200 52.8667 200.76 52.44C201.52 52 202.367 51.78 203.3 51.78C204.26 51.78 205.114 52 205.86 52.44C206.62 52.8667 207.214 53.4733 207.64 54.26C208.08 55.0333 208.3 55.9533 208.3 57.02C208.3 58.06 208.08 58.9733 207.64 59.76C207.2 60.5467 206.6 61.16 205.84 61.6C205.08 62.0267 204.227 62.24 203.28 62.24ZM203.28 60.52C203.814 60.52 204.3 60.3933 204.74 60.14C205.194 59.8733 205.56 59.48 205.84 58.96C206.12 58.4267 206.26 57.7733 206.26 57C206.26 56.2267 206.12 55.58 205.84 55.06C205.574 54.54 205.214 54.1533 204.76 53.9C204.32 53.6333 203.834 53.5 203.3 53.5C202.794 53.5 202.307 53.6333 201.84 53.9C201.387 54.1533 201.02 54.54 200.74 55.06C200.474 55.58 200.34 56.2333 200.34 57.02C200.34 57.78 200.474 58.4267 200.74 58.96C201.02 59.48 201.38 59.8733 201.82 60.14C202.274 60.3933 202.76 60.52 203.28 60.52ZM210.033 62V52.02H211.813L211.973 53.42C212.293 52.9133 212.72 52.5133 213.253 52.22C213.787 51.9267 214.387 51.78 215.053 51.78C215.56 51.78 216.02 51.8467 216.433 51.98C216.86 52.1133 217.233 52.32 217.553 52.6C217.873 52.88 218.14 53.2333 218.353 53.66C218.7 53.06 219.18 52.6 219.793 52.28C220.407 51.9467 221.06 51.78 221.753 51.78C222.567 51.78 223.267 51.9467 223.853 52.28C224.44 52.6 224.887 53.0867 225.193 53.74C225.513 54.3933 225.673 55.2067 225.673 56.18V62H223.693V56.38C223.693 55.4333 223.5 54.7133 223.113 54.22C222.727 53.7267 222.167 53.48 221.433 53.48C220.94 53.48 220.493 53.6133 220.093 53.88C219.707 54.1333 219.4 54.5067 219.173 55C218.96 55.48 218.853 56.0733 218.853 56.78V62H216.853V56.38C216.853 55.4333 216.66 54.7133 216.273 54.22C215.9 53.7267 215.34 53.48 214.593 53.48C214.113 53.48 213.673 53.6133 213.273 53.88C212.887 54.1333 212.58 54.5067 212.353 55C212.14 55.48 212.033 56.0733 212.033 56.78V62H210.033ZM227.617 66.4V52.02H229.417L229.617 53.58C229.83 53.2733 230.097 52.98 230.417 52.7C230.737 52.42 231.117 52.2 231.557 52.04C232.01 51.8667 232.537 51.78 233.137 51.78C234.097 51.78 234.937 52.0133 235.657 52.48C236.39 52.9333 236.964 53.5533 237.377 54.34C237.79 55.1267 237.997 56.0267 237.997 57.04C237.997 58.04 237.79 58.9333 237.377 59.72C236.964 60.5067 236.39 61.1267 235.657 61.58C234.924 62.02 234.077 62.24 233.117 62.24C232.33 62.24 231.637 62.0867 231.037 61.78C230.437 61.46 229.964 61.02 229.617 60.46V66.4H227.617ZM232.797 60.5C233.424 60.5 233.977 60.3533 234.457 60.06C234.937 59.7667 235.31 59.36 235.577 58.84C235.844 58.32 235.977 57.7133 235.977 57.02C235.977 56.3267 235.844 55.72 235.577 55.2C235.31 54.6667 234.937 54.2533 234.457 53.96C233.977 53.6667 233.424 53.52 232.797 53.52C232.17 53.52 231.617 53.6667 231.137 53.96C230.657 54.2533 230.284 54.66 230.017 55.18C229.75 55.7 229.617 56.3067 229.617 57C229.617 57.7067 229.75 58.32 230.017 58.84C230.284 59.36 230.657 59.7667 231.137 60.06C231.617 60.3533 232.17 60.5 232.797 60.5ZM239.732 62V52.02H241.532L241.712 53.92C241.925 53.4667 242.205 53.0867 242.552 52.78C242.912 52.46 243.332 52.2133 243.812 52.04C244.292 51.8667 244.839 51.78 245.452 51.78V53.88H244.832C244.405 53.88 243.999 53.9333 243.612 54.04C243.239 54.1467 242.912 54.32 242.632 54.56C242.352 54.8 242.132 55.1267 241.972 55.54C241.812 55.9533 241.732 56.4733 241.732 57.1V62H239.732ZM250.03 62.24C249.204 62.24 248.517 62.1 247.97 61.82C247.424 61.54 247.017 61.1667 246.75 60.7C246.484 60.2333 246.35 59.7267 246.35 59.18C246.35 58.5267 246.517 57.9667 246.85 57.5C247.197 57.0333 247.69 56.6733 248.33 56.42C248.97 56.1667 249.744 56.04 250.65 56.04H253.27C253.27 55.4533 253.177 54.9733 252.99 54.6C252.817 54.2133 252.557 53.9267 252.21 53.74C251.877 53.54 251.457 53.44 250.95 53.44C250.35 53.44 249.83 53.5867 249.39 53.88C248.95 54.1733 248.677 54.6067 248.57 55.18H246.57C246.65 54.46 246.89 53.8467 247.29 53.34C247.704 52.8333 248.23 52.4467 248.87 52.18C249.524 51.9133 250.217 51.78 250.95 51.78C251.884 51.78 252.67 51.9467 253.31 52.28C253.95 52.6133 254.437 53.0867 254.77 53.7C255.104 54.3 255.27 55.0133 255.27 55.84V62H253.53L253.37 60.3C253.237 60.5667 253.064 60.82 252.85 61.06C252.65 61.3 252.41 61.5067 252.13 61.68C251.864 61.8533 251.55 61.9867 251.19 62.08C250.844 62.1867 250.457 62.24 250.03 62.24ZM250.41 60.62C250.837 60.62 251.224 60.5333 251.57 60.36C251.917 60.1867 252.21 59.9533 252.45 59.66C252.704 59.3533 252.89 59.0133 253.01 58.64C253.144 58.2667 253.217 57.88 253.23 57.48V57.44H250.85C250.277 57.44 249.81 57.5133 249.45 57.66C249.09 57.7933 248.83 57.98 248.67 58.22C248.524 58.46 248.45 58.74 248.45 59.06C248.45 59.38 248.524 59.66 248.67 59.9C248.83 60.1267 249.057 60.3067 249.35 60.44C249.644 60.56 249.997 60.62 250.41 60.62ZM261.104 62.24C260.277 62.24 259.537 62.1 258.884 61.82C258.244 61.54 257.73 61.1467 257.344 60.64C256.97 60.1333 256.744 59.5467 256.664 58.88H258.684C258.764 59.1867 258.904 59.4733 259.104 59.74C259.304 60.0067 259.57 60.22 259.904 60.38C260.237 60.54 260.637 60.62 261.104 60.62C261.544 60.62 261.904 60.56 262.184 60.44C262.464 60.3067 262.67 60.1333 262.804 59.92C262.937 59.7067 263.004 59.4733 263.004 59.22C263.004 58.86 262.91 58.5867 262.724 58.4C262.55 58.2133 262.284 58.0667 261.924 57.96C261.577 57.84 261.157 57.7267 260.664 57.62C260.237 57.54 259.81 57.4333 259.384 57.3C258.957 57.1667 258.57 56.9933 258.224 56.78C257.877 56.5667 257.597 56.3 257.384 55.98C257.17 55.66 257.064 55.2667 257.064 54.8C257.064 54.2133 257.217 53.6933 257.524 53.24C257.83 52.7867 258.264 52.4333 258.824 52.18C259.384 51.9133 260.05 51.78 260.824 51.78C261.93 51.78 262.824 52.0467 263.504 52.58C264.197 53.1 264.597 53.8533 264.704 54.84H262.784C262.717 54.3867 262.51 54.0333 262.164 53.78C261.83 53.5267 261.384 53.4 260.824 53.4C260.25 53.4 259.81 53.5133 259.504 53.74C259.21 53.9667 259.064 54.2667 259.064 54.64C259.064 54.88 259.15 55.0933 259.324 55.28C259.51 55.4533 259.77 55.6067 260.104 55.74C260.45 55.86 260.857 55.9667 261.324 56.06C262.004 56.2067 262.617 56.38 263.164 56.58C263.724 56.7667 264.177 57.0533 264.524 57.44C264.87 57.8133 265.044 58.36 265.044 59.08C265.057 59.7067 264.897 60.26 264.564 60.74C264.244 61.2067 263.79 61.5733 263.204 61.84C262.617 62.1067 261.917 62.24 261.104 62.24Z" fill="#1A191E"/>
<path d="M330 65C324.477 65 320 60.523 320 55C320 49.477 324.477 45 330 45C335.523 45 340 49.477 340 55C340 60.523 335.523 65 330 65ZM330 63C332.122 63 334.157 62.1571 335.657 60.6569C337.157 59.1566 338 57.1217 338 55C338 52.8783 337.157 50.8434 335.657 49.3431C334.157 47.8429 332.122 47 330 47C327.878 47 325.843 47.8429 324.343 49.3431C322.843 50.8434 322 52.8783 322 55C322 57.1217 322.843 59.1566 324.343 60.6569C325.843 62.1571 327.878 63 330 63ZM329 58H331V60H329V58ZM331 56.355V57H329V55.5C329 55.2348 329.105 54.9804 329.293 54.7929C329.48 54.6054 329.735 54.5 330 54.5C330.284 54.5 330.562 54.4193 330.802 54.2673C331.042 54.1154 331.234 53.8984 331.356 53.6416C331.477 53.3848 331.523 53.0988 331.489 52.8168C331.454 52.5349 331.34 52.2686 331.16 52.0489C330.98 51.8292 330.741 51.6652 330.471 51.576C330.202 51.4867 329.912 51.4759 329.636 51.5447C329.361 51.6135 329.11 51.7592 328.914 51.9648C328.718 52.1704 328.585 52.4274 328.529 52.706L326.567 52.313C326.689 51.7051 326.97 51.1404 327.381 50.6766C327.792 50.2128 328.32 49.8666 328.909 49.6733C329.498 49.4801 330.127 49.4467 330.734 49.5766C331.34 49.7065 331.901 49.9951 332.359 50.4128C332.817 50.8305 333.156 51.3624 333.341 51.9541C333.526 52.5457 333.551 53.1759 333.413 53.7803C333.275 54.3847 332.978 54.9415 332.555 55.3939C332.131 55.8462 331.594 56.1779 331 56.355Z" fill="#1A191E"/>
<rect x="30" y="103" width="147" height="138" rx="10" fill="#E8F2EE"/>
<path d="M125.333 186.795C124.777 185.511 124.139 184.117 122.667 184.117H121.333C122.805 184.117 124 182.919 124 181.44V158.677C124.001 158.326 123.932 157.979 123.799 157.654C123.665 157.33 123.469 157.035 123.221 156.786C122.974 156.538 122.679 156.34 122.355 156.205C122.032 156.071 121.684 156.001 121.333 156H86.6667C85.1947 156 84 157.199 84 158.677V181.44C84 182.919 85.1947 184.117 86.6667 184.117H85.3333C83.8613 184.117 83.1107 185.456 82.6667 186.795L80 193.321C80 194.801 81.1947 196 82.6667 196H125.333C126.805 196 128 194.801 128 193.323L125.333 186.795Z" fill="#CCD6DD"/>
<path d="M80.0107 193.433L80.0187 193.509L80.2454 194.432C80.4559 194.898 80.7961 195.294 81.2255 195.572C81.6549 195.85 82.1552 195.999 82.6667 196H125.333C126.022 195.998 126.683 195.729 127.178 195.251C127.673 194.773 127.964 194.121 127.989 193.433H80.0107Z" fill="#9AAAB4"/>
<path d="M121.334 180.1C121.334 180.84 120.738 181.439 120 181.439H88.0003C87.2643 181.439 86.667 180.84 86.667 180.1V160.017C86.667 159.277 87.2643 158.679 88.0003 158.679H120C120.738 158.679 121.334 159.279 121.334 160.017V180.1Z" fill="#0088DC"/>
<path d="M123.875 189.389L122.861 186.489C122.543 185.876 122.015 185.373 121.277 185.373H86.8135C86.0775 185.373 85.6055 185.917 85.2721 186.755L84.3548 189.391C84.0628 190.185 84.9521 190.729 85.6881 190.729H95.7921C95.7921 190.729 97.0415 190.667 97.2628 189.919C97.5188 189.055 97.8161 187.753 97.8801 187.524C97.9788 187.172 98.3975 186.816 99.0215 186.816H110.459C111.125 186.816 111.453 187.153 111.54 187.571C111.596 187.843 111.956 189.092 112.124 189.947C112.272 190.708 113.752 190.728 113.752 190.728H122.544C123.279 190.728 124.167 190.1 123.875 189.389Z" fill="#AEBBC1"/>
<path d="M109.833 192.151H99.4586C98.9586 192.151 98.7413 191.693 98.8133 191.251C98.8853 190.809 99.2919 188.86 99.3239 188.633C99.3546 188.405 99.6893 188.133 100.023 188.133H109.376C109.772 188.133 110.029 188.351 110.109 188.785C110.188 189.221 110.512 190.973 110.537 191.373C110.563 191.775 110.312 192.151 109.833 192.151Z" fill="#9AAAB4"/>
<path d="M31.168 265V253.8H32.768L38.48 262.392V253.8H40.08V265H38.48L32.768 256.424V265H31.168ZM45.5224 265.192C44.765 265.192 44.0824 265.021 43.4744 264.68C42.877 264.328 42.4024 263.837 42.0504 263.208C41.709 262.568 41.5384 261.827 41.5384 260.984C41.5384 260.141 41.7144 259.405 42.0664 258.776C42.4184 258.136 42.8984 257.645 43.5064 257.304C44.1144 256.952 44.7917 256.776 45.5384 256.776C46.3064 256.776 46.989 256.952 47.5864 257.304C48.1944 257.645 48.669 258.131 49.0104 258.76C49.3624 259.389 49.5384 260.131 49.5384 260.984C49.5384 261.827 49.3624 262.568 49.0104 263.208C48.6584 263.837 48.1784 264.328 47.5704 264.68C46.973 265.021 46.2904 265.192 45.5224 265.192ZM45.5224 263.816C45.9597 263.816 46.3544 263.715 46.7064 263.512C47.069 263.299 47.357 262.979 47.5704 262.552C47.7944 262.125 47.9064 261.603 47.9064 260.984C47.9064 260.355 47.7997 259.832 47.5864 259.416C47.373 258.989 47.085 258.675 46.7224 258.472C46.3704 258.259 45.981 258.152 45.5544 258.152C45.1384 258.152 44.7437 258.259 44.3704 258.472C44.0077 258.675 43.7144 258.989 43.4904 259.416C43.277 259.832 43.1704 260.355 43.1704 260.984C43.1704 261.603 43.277 262.125 43.4904 262.552C43.7144 262.979 44.0024 263.299 44.3544 263.512C44.717 263.715 45.1064 263.816 45.5224 263.816ZM52.8063 265L49.7983 256.968H51.4783L53.7503 263.464L56.0543 256.968H57.7023L54.6943 265H52.8063ZM61.953 265.192C61.1957 265.192 60.513 265.021 59.905 264.68C59.3077 264.328 58.833 263.837 58.481 263.208C58.1397 262.568 57.969 261.827 57.969 260.984C57.969 260.141 58.145 259.405 58.497 258.776C58.849 258.136 59.329 257.645 59.937 257.304C60.545 256.952 61.2223 256.776 61.969 256.776C62.737 256.776 63.4197 256.952 64.017 257.304C64.625 257.645 65.0997 258.131 65.441 258.76C65.793 259.389 65.969 260.131 65.969 260.984C65.969 261.827 65.793 262.568 65.441 263.208C65.089 263.837 64.609 264.328 64.001 264.68C63.4037 265.021 62.721 265.192 61.953 265.192ZM61.953 263.816C62.3903 263.816 62.785 263.715 63.137 263.512C63.4997 263.299 63.7877 262.979 64.001 262.552C64.225 262.125 64.337 261.603 64.337 260.984C64.337 260.355 64.2303 259.832 64.017 259.416C63.8037 258.989 63.5157 258.675 63.153 258.472C62.801 258.259 62.4117 258.152 61.985 258.152C61.569 258.152 61.1743 258.259 60.801 258.472C60.4383 258.675 60.145 258.989 59.921 259.416C59.7077 259.832 59.601 260.355 59.601 260.984C59.601 261.603 59.7077 262.125 59.921 262.552C60.145 262.979 60.433 263.299 60.785 263.512C61.1477 263.715 61.537 263.816 61.953 263.816ZM71.0492 265V253.8H74.8732C75.7586 253.8 76.4892 253.949 77.0652 254.248C77.6412 254.536 78.0679 254.936 78.3452 255.448C78.6332 255.949 78.7772 256.515 78.7772 257.144C78.7772 257.763 78.6386 258.328 78.3612 258.84C78.0946 259.341 77.6732 259.747 77.0972 260.056C76.5212 260.355 75.7799 260.504 74.8732 260.504H72.6492V265H71.0492ZM72.6492 259.176H74.8092C75.6412 259.176 76.2332 258.995 76.5852 258.632C76.9479 258.259 77.1292 257.763 77.1292 257.144C77.1292 256.504 76.9479 256.008 76.5852 255.656C76.2332 255.304 75.6412 255.128 74.8092 255.128H72.6492V259.176ZM84.9504 265.192C83.8517 265.192 82.9024 264.952 82.1024 264.472C81.3024 263.981 80.6837 263.304 80.2464 262.44C79.8197 261.565 79.6064 260.552 79.6064 259.4C79.6064 258.259 79.8197 257.251 80.2464 256.376C80.6837 255.501 81.3024 254.824 82.1024 254.344C82.9024 253.853 83.8517 253.608 84.9504 253.608C86.2517 253.608 87.313 253.923 88.1344 254.552C88.9557 255.181 89.473 256.067 89.6864 257.208H87.9424C87.7717 256.547 87.4357 256.019 86.9344 255.624C86.4437 255.229 85.777 255.032 84.9344 255.032C84.1877 255.032 83.5317 255.208 82.9664 255.56C82.4117 255.912 81.985 256.413 81.6864 257.064C81.3877 257.715 81.2384 258.493 81.2384 259.4C81.2384 260.307 81.3877 261.091 81.6864 261.752C81.985 262.403 82.4117 262.904 82.9664 263.256C83.5317 263.597 84.1877 263.768 84.9344 263.768C85.777 263.768 86.4437 263.581 86.9344 263.208C87.4357 262.824 87.7664 262.307 87.9264 261.656H89.6864C89.473 262.765 88.9557 263.635 88.1344 264.264C87.313 264.883 86.2517 265.192 84.9504 265.192Z" fill="#1A191E"/>
<path d="M31.1186 287V276.818H34.7479C35.5367 276.818 36.1913 276.954 36.7116 277.226C37.2353 277.498 37.6264 277.874 37.8849 278.354C38.1435 278.832 38.2727 279.384 38.2727 280.01C38.2727 280.633 38.1418 281.182 37.88 281.656C37.6214 282.126 37.2304 282.492 36.7067 282.754C36.1863 283.016 35.5317 283.147 34.7429 283.147H31.9936V281.825H34.6037C35.1009 281.825 35.5052 281.753 35.8168 281.611C36.1316 281.468 36.362 281.261 36.5078 280.989C36.6536 280.718 36.7266 280.391 36.7266 280.01C36.7266 279.625 36.652 279.292 36.5028 279.011C36.357 278.729 36.1267 278.513 35.8118 278.364C35.5002 278.212 35.0909 278.136 34.5838 278.136H32.6548V287H31.1186ZM36.1449 282.406L38.6605 287H36.9105L34.4446 282.406H36.1449ZM43.1449 288.273V275.545H43.9602V288.273H43.1449ZM45.6953 279.493C45.6423 279.022 45.4235 278.658 45.0391 278.399C44.6546 278.137 44.1707 278.006 43.5874 278.006C43.1697 278.006 42.8085 278.073 42.5036 278.205C42.1986 278.335 41.9616 278.513 41.7926 278.742C41.6269 278.968 41.544 279.224 41.544 279.513C41.544 279.755 41.6004 279.964 41.7131 280.139C41.8291 280.315 41.9799 280.462 42.1655 280.582C42.3544 280.698 42.5566 280.795 42.772 280.875C42.9875 280.951 43.1946 281.014 43.3935 281.064L44.3878 281.322C44.7126 281.402 45.0457 281.51 45.3871 281.646C45.7285 281.781 46.045 281.96 46.3366 282.183C46.6283 282.405 46.8636 282.68 47.0426 283.008C47.2249 283.336 47.3161 283.729 47.3161 284.186C47.3161 284.763 47.1669 285.275 46.8686 285.722C46.5736 286.17 46.1444 286.523 45.581 286.781C45.0208 287.04 44.343 287.169 43.5476 287.169C42.7853 287.169 42.1257 287.048 41.5689 286.806C41.0121 286.564 40.5762 286.221 40.2614 285.777C39.9465 285.33 39.7725 284.799 39.7393 284.186H41.2805C41.3104 284.554 41.4297 284.861 41.6385 285.106C41.8506 285.348 42.1207 285.528 42.4489 285.648C42.7803 285.764 43.1432 285.822 43.5376 285.822C43.9718 285.822 44.358 285.754 44.696 285.618C45.0374 285.479 45.3059 285.286 45.5014 285.041C45.697 284.793 45.7947 284.503 45.7947 284.171C45.7947 283.87 45.7086 283.623 45.5362 283.43C45.3672 283.238 45.1368 283.079 44.8452 282.953C44.5568 282.827 44.2304 282.716 43.8658 282.62L42.6626 282.292C41.8473 282.07 41.201 281.743 40.7237 281.312C40.2498 280.882 40.0128 280.312 40.0128 279.602C40.0128 279.016 40.1719 278.504 40.4901 278.066C40.8082 277.629 41.2391 277.289 41.7827 277.047C42.3262 276.802 42.9394 276.679 43.6222 276.679C44.3116 276.679 44.9197 276.8 45.4467 277.042C45.977 277.284 46.3946 277.617 46.6996 278.041C47.0045 278.462 47.1636 278.946 47.1768 279.493H45.6953ZM52.5039 285.011V283.768L56.9038 276.818H57.8832V278.648H57.2617L54.1147 283.629V283.709H60.1452V285.011H52.5039ZM57.3313 287V284.634L57.3413 284.067V276.818H58.7979V287H57.3313ZM65.4226 287.169C64.6371 287.166 63.9659 286.959 63.4091 286.548C62.8523 286.137 62.4264 285.538 62.1314 284.753C61.8364 283.967 61.6889 283.021 61.6889 281.914C61.6889 280.81 61.8364 279.867 62.1314 279.085C62.4297 278.303 62.8572 277.706 63.4141 277.295C63.9742 276.884 64.6437 276.679 65.4226 276.679C66.2015 276.679 66.8693 276.886 67.4261 277.3C67.983 277.711 68.4089 278.308 68.7038 279.09C69.0021 279.869 69.1513 280.81 69.1513 281.914C69.1513 283.024 69.0038 283.972 68.7088 284.758C68.4138 285.54 67.9879 286.138 67.4311 286.553C66.8743 286.964 66.2048 287.169 65.4226 287.169ZM65.4226 285.842C66.112 285.842 66.6506 285.505 67.0384 284.832C67.4295 284.16 67.625 283.187 67.625 281.914C67.625 281.069 67.5355 280.355 67.3565 279.771C67.1809 279.185 66.9273 278.741 66.5959 278.439C66.2678 278.134 65.8767 277.982 65.4226 277.982C64.7365 277.982 64.1979 278.32 63.8068 278.996C63.4157 279.672 63.2185 280.645 63.2152 281.914C63.2152 282.763 63.303 283.48 63.4787 284.067C63.6577 284.65 63.9112 285.093 64.2393 285.394C64.5675 285.692 64.9619 285.842 65.4226 285.842ZM74.4597 287.169C73.6742 287.166 73.003 286.959 72.4462 286.548C71.8894 286.137 71.4635 285.538 71.1685 284.753C70.8735 283.967 70.726 283.021 70.726 281.914C70.726 280.81 70.8735 279.867 71.1685 279.085C71.4668 278.303 71.8944 277.706 72.4512 277.295C73.0113 276.884 73.6808 276.679 74.4597 276.679C75.2386 276.679 75.9064 276.886 76.4632 277.3C77.0201 277.711 77.446 278.308 77.7409 279.09C78.0392 279.869 78.1884 280.81 78.1884 281.914C78.1884 283.024 78.0409 283.972 77.7459 284.758C77.4509 285.54 77.025 286.138 76.4682 286.553C75.9114 286.964 75.2419 287.169 74.4597 287.169ZM74.4597 285.842C75.1491 285.842 75.6877 285.505 76.0755 284.832C76.4666 284.16 76.6621 283.187 76.6621 281.914C76.6621 281.069 76.5726 280.355 76.3936 279.771C76.218 279.185 75.9644 278.741 75.633 278.439C75.3049 278.134 74.9138 277.982 74.4597 277.982C73.7736 277.982 73.235 278.32 72.8439 278.996C72.4528 279.672 72.2556 280.645 72.2523 281.914C72.2523 282.763 72.3401 283.48 72.5158 284.067C72.6948 284.65 72.9483 285.093 73.2765 285.394C73.6046 285.692 73.999 285.842 74.4597 285.842Z" fill="#1A191E" fill-opacity="0.5"/>
<rect x="193" y="103" width="147" height="138" rx="10" fill="#F1DFDF"/>
<g clip-path="url(#clip0_1316_3813)">
<path d="M250.5 181C253.435 181 255.949 182.702 257.182 185.158L262.398 182.55C260.232 178.087 255.669 175 250.374 175C248.486 175 246.62 175.403 244.9 176.181L247.402 181.686C248.374 181.237 249.43 181.004 250.5 181ZM283.5 181C285.7 181 287.658 181.965 289.032 183.472L293.377 179.52C292.127 178.099 290.587 176.961 288.863 176.182C287.138 175.403 285.267 175 283.374 175C278.01 175 273.396 178.166 271.264 182.725L276.736 185.308C277.939 182.77 280.504 181 283.5 181Z" fill="#EA596E"/>
<path d="M250.5 178C249.121 178 247.756 178.272 246.482 178.799C245.208 179.327 244.05 180.1 243.075 181.075C242.1 182.05 241.327 183.208 240.799 184.482C240.272 185.756 240 187.121 240 188.5C240 189.879 240.272 191.244 240.799 192.518C241.327 193.792 242.1 194.95 243.075 195.925C244.05 196.9 245.208 197.673 246.482 198.201C247.756 198.728 249.121 199 250.5 199C253.285 199 255.955 197.894 257.925 195.925C259.894 193.955 261 191.285 261 188.5C261 185.715 259.894 183.045 257.925 181.075C255.955 179.106 253.285 178 250.5 178ZM250.5 196C248.511 196 246.603 195.21 245.197 193.803C243.79 192.397 243 190.489 243 188.5C243 186.511 243.79 184.603 245.197 183.197C246.603 181.79 248.511 181 250.5 181C252.489 181 254.397 181.79 255.803 183.197C257.21 184.603 258 186.511 258 188.5C258 190.489 257.21 192.397 255.803 193.803C254.397 195.21 252.489 196 250.5 196ZM283.5 178C280.715 178 278.044 179.107 276.075 181.076C274.106 183.046 273 185.717 273 188.501C273 191.286 274.107 193.957 276.076 195.926C278.046 197.896 280.717 199.002 283.501 199.001C284.88 199.001 286.246 198.73 287.52 198.202C288.794 197.674 289.951 196.901 290.926 195.925C291.901 194.95 292.675 193.793 293.202 192.519C293.73 191.244 294.002 189.879 294.001 188.5C294.001 187.121 293.73 185.756 293.202 184.482C292.674 183.208 291.901 182.05 290.925 181.075C289.95 180.1 288.793 179.327 287.519 178.799C286.244 178.271 284.879 178 283.5 178ZM283.5 196C281.511 196 279.603 195.21 278.197 193.803C276.79 192.397 276 190.489 276 188.5C276 186.511 276.79 184.603 278.197 183.197C279.603 181.79 281.511 181 283.5 181C285.489 181 287.397 181.79 288.803 183.197C290.21 184.603 291 186.511 291 188.5C291 190.489 290.21 192.397 288.803 193.803C287.397 195.21 285.489 196 283.5 196Z" fill="#292F33"/>
<path d="M284.976 188.383C284.966 188.282 284.946 188.183 284.916 188.086C284.89 187.99 284.854 187.896 284.809 187.807C284.79 187.771 284.787 187.729 284.766 187.694L274.266 171.194C274.16 171.028 274.023 170.884 273.861 170.771C273.7 170.658 273.518 170.578 273.326 170.535C273.133 170.492 272.934 170.488 272.74 170.522C272.546 170.556 272.361 170.628 272.194 170.734C271.985 170.871 271.814 171.059 271.697 171.28C271.58 171.501 271.522 171.748 271.527 171.998H258C257.602 171.998 257.221 172.157 256.939 172.438C256.658 172.719 256.5 173.101 256.5 173.498C256.5 173.896 256.658 174.278 256.939 174.559C257.221 174.84 257.602 174.998 258 174.998H273C273.041 174.998 273.075 174.977 273.115 174.974L280.767 187H267C266.602 187 266.221 187.158 265.939 187.439C265.658 187.721 265.5 188.102 265.5 188.5C265.5 188.898 265.658 189.279 265.939 189.561C266.221 189.842 266.602 190 267 190H283.501C283.731 189.995 283.957 189.937 284.161 189.832C284.208 189.806 284.26 189.796 284.307 189.766C284.352 189.736 284.379 189.689 284.42 189.658C284.574 189.537 284.703 189.385 284.796 189.212C284.841 189.128 284.878 189.047 284.908 188.954C284.939 188.856 284.959 188.755 284.969 188.653C284.975 188.599 285 188.554 285 188.5C285 188.459 284.979 188.424 284.976 188.383Z" fill="#DD2E44"/>
<path d="M272.372 169L268.023 181.176L259.13 171.013C259.001 170.862 258.843 170.739 258.666 170.649C258.489 170.56 258.296 170.506 258.098 170.492C257.9 170.478 257.702 170.503 257.514 170.566C257.325 170.629 257.152 170.729 257.002 170.859C256.853 170.99 256.731 171.149 256.644 171.327C256.556 171.505 256.505 171.699 256.493 171.897C256.481 172.095 256.508 172.293 256.573 172.481C256.638 172.668 256.74 172.841 256.872 172.989L266.868 184.411L265.587 187.996C265.454 188.371 265.474 188.783 265.645 189.143C265.815 189.502 266.122 189.779 266.496 189.913C266.871 190.047 267.284 190.026 267.643 189.856C268.003 189.685 268.28 189.379 268.413 189.004L275.558 169H272.372Z" fill="#DD2E44"/>
<path d="M250.5 190C250.244 190 249.993 189.934 249.77 189.809C249.547 189.685 249.36 189.505 249.225 189.288C249.091 189.07 249.015 188.822 249.003 188.567C248.992 188.312 249.046 188.058 249.16 187.829L253.753 178.67C253.779 178.628 256.5 174.476 256.5 170.5C256.5 165.637 253.06 164.435 253.026 164.423C252.836 164.363 252.661 164.266 252.51 164.137C252.358 164.008 252.234 163.851 252.144 163.674C252.054 163.497 252 163.303 251.986 163.105C251.971 162.907 251.996 162.708 252.059 162.52C252.122 162.331 252.221 162.157 252.352 162.007C252.483 161.858 252.642 161.736 252.82 161.648C252.998 161.561 253.192 161.509 253.391 161.497C253.589 161.485 253.788 161.513 253.975 161.578C254.2 161.653 259.5 163.499 259.5 170.5C259.5 175.102 256.746 179.563 256.303 180.245L251.842 189.169C251.718 189.419 251.527 189.629 251.29 189.776C251.052 189.923 250.779 190 250.5 190Z" fill="#DD2E44"/>
<path d="M261.918 165.495C261.835 165.495 261.752 165.488 261.67 165.474L252.67 163.974C252.278 163.908 251.928 163.689 251.696 163.366C251.465 163.042 251.372 162.64 251.437 162.247C251.503 161.855 251.722 161.504 252.045 161.273C252.369 161.042 252.771 160.949 253.164 161.014L262.164 162.514C262.536 162.575 262.872 162.773 263.105 163.071C263.337 163.368 263.449 163.742 263.418 164.118C263.387 164.494 263.215 164.845 262.937 165.1C262.659 165.355 262.295 165.496 261.918 165.495ZM279.574 170.5C279.53 170.5 279.485 170.497 279.441 170.491L270.933 169.429C270.656 169.406 270.399 169.276 270.218 169.066C270.036 168.856 269.944 168.583 269.961 168.305C269.978 168.028 270.103 167.769 270.309 167.583C270.515 167.396 270.786 167.298 271.063 167.31C271.125 167.31 277.164 167.283 280.047 165.361C280.232 165.239 280.45 165.177 280.671 165.184C280.893 165.191 281.106 165.266 281.283 165.4C281.458 165.535 281.587 165.722 281.652 165.933C281.717 166.145 281.714 166.372 281.644 166.582L280.581 169.773C280.511 169.985 280.376 170.169 280.196 170.3C280.015 170.43 279.797 170.5 279.574 170.5Z" fill="#292F33"/>
<path d="M270 188.5C270 189.296 269.684 190.059 269.121 190.621C268.559 191.184 267.796 191.5 267 191.5C266.204 191.5 265.441 191.184 264.879 190.621C264.316 190.059 264 189.296 264 188.5C264 187.704 264.316 186.941 264.879 186.379C265.441 185.816 266.204 185.5 267 185.5C267.796 185.5 268.559 185.816 269.121 186.379C269.684 186.941 270 187.704 270 188.5Z" fill="#66757F"/>
</g>
<path d="M194.168 265V253.8H198.312C199.091 253.8 199.741 253.928 200.264 254.184C200.787 254.429 201.176 254.771 201.432 255.208C201.699 255.635 201.832 256.12 201.832 256.664C201.832 257.229 201.709 257.704 201.464 258.088C201.219 258.472 200.893 258.771 200.488 258.984C200.083 259.187 199.656 259.304 199.208 259.336L199.432 259.176C199.923 259.187 200.371 259.32 200.776 259.576C201.181 259.821 201.501 260.152 201.736 260.568C201.971 260.984 202.088 261.443 202.088 261.944C202.088 262.52 201.949 263.043 201.672 263.512C201.395 263.971 200.984 264.333 200.44 264.6C199.896 264.867 199.229 265 198.44 265H194.168ZM195.768 263.672H198.232C198.936 263.672 199.48 263.512 199.864 263.192C200.259 262.861 200.456 262.397 200.456 261.8C200.456 261.213 200.253 260.744 199.848 260.392C199.453 260.04 198.904 259.864 198.2 259.864H195.768V263.672ZM195.768 258.632H198.136C198.808 258.632 199.32 258.477 199.672 258.168C200.024 257.848 200.2 257.411 200.2 256.856C200.2 256.323 200.024 255.901 199.672 255.592C199.32 255.272 198.792 255.112 198.088 255.112H195.768V258.632ZM203.548 265V256.968H205.148V265H203.548ZM204.348 255.432C204.049 255.432 203.799 255.336 203.596 255.144C203.404 254.952 203.308 254.707 203.308 254.408C203.308 254.12 203.404 253.885 203.596 253.704C203.799 253.512 204.049 253.416 204.348 253.416C204.657 253.416 204.913 253.512 205.116 253.704C205.319 253.885 205.42 254.12 205.42 254.408C205.42 254.707 205.319 254.952 205.116 255.144C204.913 255.336 204.657 255.432 204.348 255.432ZM212.028 265L208.3 260.6L211.676 256.968H213.612L209.596 261.208L209.612 260.008L214.044 265H212.028ZM206.956 265V253.48H208.556V265H206.956ZM217.968 265.192C217.19 265.192 216.502 265.021 215.904 264.68C215.307 264.328 214.838 263.837 214.496 263.208C214.166 262.579 214 261.843 214 261C214 260.157 214.166 259.421 214.496 258.792C214.838 258.163 215.307 257.672 215.904 257.32C216.502 256.957 217.195 256.776 217.984 256.776C218.774 256.776 219.451 256.952 220.016 257.304C220.582 257.645 221.019 258.109 221.328 258.696C221.638 259.272 221.792 259.912 221.792 260.616C221.792 260.723 221.792 260.84 221.792 260.968C221.792 261.085 221.782 261.213 221.76 261.352H215.168V260.232H220.192C220.16 259.571 219.936 259.053 219.52 258.68C219.104 258.296 218.587 258.104 217.968 258.104C217.542 258.104 217.142 258.2 216.768 258.392C216.406 258.584 216.112 258.872 215.888 259.256C215.675 259.629 215.568 260.104 215.568 260.68V261.128C215.568 261.725 215.675 262.227 215.888 262.632C216.112 263.037 216.406 263.347 216.768 263.56C217.131 263.763 217.526 263.864 217.952 263.864C218.464 263.864 218.886 263.752 219.216 263.528C219.558 263.293 219.808 262.984 219.968 262.6H221.568C221.419 263.101 221.179 263.549 220.848 263.944C220.528 264.328 220.123 264.632 219.632 264.856C219.152 265.08 218.598 265.192 217.968 265.192ZM230.288 265.192C229.52 265.192 228.842 265.011 228.256 264.648C227.669 264.275 227.21 263.773 226.88 263.144C226.56 262.504 226.4 261.779 226.4 260.968C226.4 260.157 226.56 259.437 226.88 258.808C227.21 258.179 227.669 257.683 228.256 257.32C228.853 256.957 229.541 256.776 230.32 256.776C230.949 256.776 231.504 256.904 231.984 257.16C232.464 257.405 232.837 257.752 233.104 258.2V253.48H234.704V265H233.264L233.104 263.752C232.933 263.997 232.72 264.232 232.464 264.456C232.208 264.669 231.898 264.845 231.536 264.984C231.184 265.123 230.768 265.192 230.288 265.192ZM230.56 263.8C231.05 263.8 231.488 263.683 231.872 263.448C232.256 263.213 232.554 262.888 232.768 262.472C232.981 262.045 233.088 261.549 233.088 260.984C233.088 260.419 232.981 259.928 232.768 259.512C232.554 259.085 232.256 258.755 231.872 258.52C231.488 258.285 231.045 258.168 230.544 258.168C230.064 258.168 229.632 258.285 229.248 258.52C228.864 258.755 228.565 259.085 228.352 259.512C228.138 259.928 228.032 260.419 228.032 260.984C228.032 261.539 228.138 262.029 228.352 262.456C228.565 262.883 228.864 263.213 229.248 263.448C229.632 263.683 230.069 263.8 230.56 263.8ZM240.075 265.192C239.318 265.192 238.635 265.021 238.027 264.68C237.43 264.328 236.955 263.837 236.603 263.208C236.262 262.568 236.091 261.827 236.091 260.984C236.091 260.141 236.267 259.405 236.619 258.776C236.971 258.136 237.451 257.645 238.059 257.304C238.667 256.952 239.345 256.776 240.091 256.776C240.859 256.776 241.542 256.952 242.139 257.304C242.747 257.645 243.222 258.131 243.563 258.76C243.915 259.389 244.091 260.131 244.091 260.984C244.091 261.827 243.915 262.568 243.563 263.208C243.211 263.837 242.731 264.328 242.123 264.68C241.526 265.021 240.843 265.192 240.075 265.192ZM240.075 263.816C240.513 263.816 240.907 263.715 241.259 263.512C241.622 263.299 241.91 262.979 242.123 262.552C242.347 262.125 242.459 261.603 242.459 260.984C242.459 260.355 242.353 259.832 242.139 259.416C241.926 258.989 241.638 258.675 241.275 258.472C240.923 258.259 240.534 258.152 240.107 258.152C239.691 258.152 239.297 258.259 238.923 258.472C238.561 258.675 238.267 258.989 238.043 259.416C237.83 259.832 237.723 260.355 237.723 260.984C237.723 261.603 237.83 262.125 238.043 262.552C238.267 262.979 238.555 263.299 238.907 263.512C239.27 263.715 239.659 263.816 240.075 263.816ZM248.598 265.192C247.926 265.192 247.329 265.08 246.806 264.856C246.294 264.632 245.889 264.317 245.59 263.912C245.291 263.507 245.11 263.032 245.046 262.488H246.662C246.726 262.744 246.833 262.979 246.982 263.192C247.142 263.405 247.355 263.576 247.622 263.704C247.899 263.832 248.225 263.896 248.598 263.896C248.95 263.896 249.238 263.848 249.462 263.752C249.686 263.645 249.851 263.507 249.958 263.336C250.075 263.155 250.134 262.968 250.134 262.776C250.134 262.477 250.059 262.253 249.91 262.104C249.771 261.944 249.558 261.821 249.27 261.736C248.993 261.64 248.651 261.555 248.246 261.48C247.894 261.405 247.542 261.315 247.19 261.208C246.849 261.101 246.539 260.963 246.262 260.792C245.985 260.621 245.766 260.408 245.606 260.152C245.446 259.885 245.366 259.565 245.366 259.192C245.366 258.723 245.489 258.307 245.734 257.944C245.979 257.581 246.326 257.299 246.774 257.096C247.233 256.883 247.771 256.776 248.39 256.776C249.275 256.776 249.99 256.989 250.534 257.416C251.089 257.832 251.409 258.429 251.494 259.208H249.958C249.905 258.856 249.739 258.579 249.462 258.376C249.195 258.173 248.833 258.072 248.374 258.072C247.915 258.072 247.563 258.168 247.318 258.36C247.073 258.541 246.95 258.776 246.95 259.064C246.95 259.256 247.019 259.427 247.158 259.576C247.307 259.725 247.515 259.853 247.782 259.96C248.059 260.056 248.39 260.147 248.774 260.232C249.329 260.339 249.83 260.472 250.278 260.632C250.726 260.781 251.083 261.011 251.35 261.32C251.627 261.629 251.766 262.072 251.766 262.648C251.766 263.149 251.638 263.592 251.382 263.976C251.126 264.36 250.758 264.659 250.278 264.872C249.809 265.085 249.249 265.192 248.598 265.192ZM259.904 265.192C259.232 265.192 258.634 265.08 258.112 264.856C257.6 264.632 257.194 264.317 256.896 263.912C256.597 263.507 256.416 263.032 256.352 262.488H257.968C258.032 262.744 258.138 262.979 258.288 263.192C258.448 263.405 258.661 263.576 258.928 263.704C259.205 263.832 259.53 263.896 259.904 263.896C260.256 263.896 260.544 263.848 260.768 263.752C260.992 263.645 261.157 263.507 261.264 263.336C261.381 263.155 261.44 262.968 261.44 262.776C261.44 262.477 261.365 262.253 261.216 262.104C261.077 261.944 260.864 261.821 260.576 261.736C260.298 261.64 259.957 261.555 259.552 261.48C259.2 261.405 258.848 261.315 258.496 261.208C258.154 261.101 257.845 260.963 257.568 260.792C257.29 260.621 257.072 260.408 256.912 260.152C256.752 259.885 256.672 259.565 256.672 259.192C256.672 258.723 256.794 258.307 257.04 257.944C257.285 257.581 257.632 257.299 258.08 257.096C258.538 256.883 259.077 256.776 259.696 256.776C260.581 256.776 261.296 256.989 261.84 257.416C262.394 257.832 262.714 258.429 262.8 259.208H261.264C261.21 258.856 261.045 258.579 260.768 258.376C260.501 258.173 260.138 258.072 259.68 258.072C259.221 258.072 258.869 258.168 258.624 258.36C258.378 258.541 258.256 258.776 258.256 259.064C258.256 259.256 258.325 259.427 258.464 259.576C258.613 259.725 258.821 259.853 259.088 259.96C259.365 260.056 259.696 260.147 260.08 260.232C260.634 260.339 261.136 260.472 261.584 260.632C262.032 260.781 262.389 261.011 262.656 261.32C262.933 261.629 263.072 262.072 263.072 262.648C263.072 263.149 262.944 263.592 262.688 263.976C262.432 264.36 262.064 264.659 261.584 264.872C261.114 265.085 260.554 265.192 259.904 265.192ZM268.155 265.192C267.398 265.192 266.715 265.021 266.107 264.68C265.51 264.328 265.035 263.837 264.683 263.208C264.342 262.568 264.171 261.827 264.171 260.984C264.171 260.141 264.347 259.405 264.699 258.776C265.051 258.136 265.531 257.645 266.139 257.304C266.747 256.952 267.425 256.776 268.171 256.776C268.939 256.776 269.622 256.952 270.219 257.304C270.827 257.645 271.302 258.131 271.643 258.76C271.995 259.389 272.171 260.131 272.171 260.984C272.171 261.827 271.995 262.568 271.643 263.208C271.291 263.837 270.811 264.328 270.203 264.68C269.606 265.021 268.923 265.192 268.155 265.192ZM268.155 263.816C268.593 263.816 268.987 263.715 269.339 263.512C269.702 263.299 269.99 262.979 270.203 262.552C270.427 262.125 270.539 261.603 270.539 260.984C270.539 260.355 270.433 259.832 270.219 259.416C270.006 258.989 269.718 258.675 269.355 258.472C269.003 258.259 268.614 258.152 268.187 258.152C267.771 258.152 267.377 258.259 267.003 258.472C266.641 258.675 266.347 258.989 266.123 259.416C265.91 259.832 265.803 260.355 265.803 260.984C265.803 261.603 265.91 262.125 266.123 262.552C266.347 262.979 266.635 263.299 266.987 263.512C267.35 263.715 267.739 263.816 268.155 263.816ZM273.558 265V256.968H274.998L275.094 258.344C275.35 257.864 275.713 257.485 276.182 257.208C276.651 256.92 277.195 256.776 277.814 256.776C278.443 256.776 278.987 256.904 279.446 257.16C279.905 257.416 280.262 257.805 280.518 258.328C280.774 258.84 280.902 259.485 280.902 260.264V265H279.302V260.424C279.302 259.677 279.137 259.112 278.806 258.728C278.475 258.333 278.001 258.136 277.382 258.136C276.955 258.136 276.571 258.237 276.23 258.44C275.899 258.643 275.638 258.936 275.446 259.32C275.254 259.704 275.158 260.179 275.158 260.744V265H273.558ZM282.469 265V253.48H284.069V258.28C284.335 257.811 284.703 257.443 285.173 257.176C285.653 256.909 286.181 256.776 286.757 256.776C287.397 256.776 287.946 256.904 288.405 257.16C288.863 257.416 289.215 257.805 289.461 258.328C289.706 258.851 289.829 259.501 289.829 260.28V265H288.245V260.456C288.245 259.688 288.085 259.112 287.765 258.728C287.445 258.333 286.97 258.136 286.341 258.136C285.914 258.136 285.525 258.243 285.173 258.456C284.831 258.659 284.559 258.952 284.357 259.336C284.165 259.72 284.069 260.195 284.069 260.76V265H282.469ZM295.059 265.192C294.302 265.192 293.619 265.021 293.011 264.68C292.414 264.328 291.939 263.837 291.587 263.208C291.246 262.568 291.075 261.827 291.075 260.984C291.075 260.141 291.251 259.405 291.603 258.776C291.955 258.136 292.435 257.645 293.043 257.304C293.651 256.952 294.329 256.776 295.075 256.776C295.843 256.776 296.526 256.952 297.123 257.304C297.731 257.645 298.206 258.131 298.547 258.76C298.899 259.389 299.075 260.131 299.075 260.984C299.075 261.827 298.899 262.568 298.547 263.208C298.195 263.837 297.715 264.328 297.107 264.68C296.51 265.021 295.827 265.192 295.059 265.192ZM295.059 263.816C295.497 263.816 295.891 263.715 296.243 263.512C296.606 263.299 296.894 262.979 297.107 262.552C297.331 262.125 297.443 261.603 297.443 260.984C297.443 260.355 297.337 259.832 297.123 259.416C296.91 258.989 296.622 258.675 296.259 258.472C295.907 258.259 295.518 258.152 295.091 258.152C294.675 258.152 294.281 258.259 293.907 258.472C293.545 258.675 293.251 258.989 293.027 259.416C292.814 259.832 292.707 260.355 292.707 260.984C292.707 261.603 292.814 262.125 293.027 262.552C293.251 262.979 293.539 263.299 293.891 263.512C294.254 263.715 294.643 263.816 295.059 263.816ZM303.582 265.192C302.91 265.192 302.312 265.08 301.79 264.856C301.278 264.632 300.872 264.317 300.574 263.912C300.275 263.507 300.094 263.032 300.03 262.488H301.646C301.71 262.744 301.816 262.979 301.966 263.192C302.126 263.405 302.339 263.576 302.606 263.704C302.883 263.832 303.208 263.896 303.582 263.896C303.934 263.896 304.222 263.848 304.446 263.752C304.67 263.645 304.835 263.507 304.942 263.336C305.059 263.155 305.118 262.968 305.118 262.776C305.118 262.477 305.043 262.253 304.894 262.104C304.755 261.944 304.542 261.821 304.254 261.736C303.976 261.64 303.635 261.555 303.23 261.48C302.878 261.405 302.526 261.315 302.174 261.208C301.832 261.101 301.523 260.963 301.246 260.792C300.968 260.621 300.75 260.408 300.59 260.152C300.43 259.885 300.35 259.565 300.35 259.192C300.35 258.723 300.472 258.307 300.718 257.944C300.963 257.581 301.31 257.299 301.758 257.096C302.216 256.883 302.755 256.776 303.374 256.776C304.259 256.776 304.974 256.989 305.518 257.416C306.072 257.832 306.392 258.429 306.478 259.208H304.942C304.888 258.856 304.723 258.579 304.446 258.376C304.179 258.173 303.816 258.072 303.358 258.072C302.899 258.072 302.547 258.168 302.302 258.36C302.056 258.541 301.934 258.776 301.934 259.064C301.934 259.256 302.003 259.427 302.142 259.576C302.291 259.725 302.499 259.853 302.766 259.96C303.043 260.056 303.374 260.147 303.758 260.232C304.312 260.339 304.814 260.472 305.262 260.632C305.71 260.781 306.067 261.011 306.334 261.32C306.611 261.629 306.75 262.072 306.75 262.648C306.75 263.149 306.622 263.592 306.366 263.976C306.11 264.36 305.742 264.659 305.262 264.872C304.792 265.085 304.232 265.192 303.582 265.192Z" fill="#1A191E"/>
<path d="M194.119 287V276.818H197.748C198.537 276.818 199.191 276.954 199.712 277.226C200.235 277.498 200.626 277.874 200.885 278.354C201.143 278.832 201.273 279.384 201.273 280.01C201.273 280.633 201.142 281.182 200.88 281.656C200.621 282.126 200.23 282.492 199.707 282.754C199.186 283.016 198.532 283.147 197.743 283.147H194.994V281.825H197.604C198.101 281.825 198.505 281.753 198.817 281.611C199.132 281.468 199.362 281.261 199.508 280.989C199.654 280.718 199.727 280.391 199.727 280.01C199.727 279.625 199.652 279.292 199.503 279.011C199.357 278.729 199.127 278.513 198.812 278.364C198.5 278.212 198.091 278.136 197.584 278.136H195.655V287H194.119ZM199.145 282.406L201.661 287H199.911L197.445 282.406H199.145ZM206.145 288.273V275.545H206.96V288.273H206.145ZM208.695 279.493C208.642 279.022 208.424 278.658 208.039 278.399C207.655 278.137 207.171 278.006 206.587 278.006C206.17 278.006 205.808 278.073 205.504 278.205C205.199 278.335 204.962 278.513 204.793 278.742C204.627 278.968 204.544 279.224 204.544 279.513C204.544 279.755 204.6 279.964 204.713 280.139C204.829 280.315 204.98 280.462 205.165 280.582C205.354 280.698 205.557 280.795 205.772 280.875C205.987 280.951 206.195 281.014 206.393 281.064L207.388 281.322C207.713 281.402 208.046 281.51 208.387 281.646C208.728 281.781 209.045 281.96 209.337 282.183C209.628 282.405 209.864 282.68 210.043 283.008C210.225 283.336 210.316 283.729 210.316 284.186C210.316 284.763 210.167 285.275 209.869 285.722C209.574 286.17 209.144 286.523 208.581 286.781C208.021 287.04 207.343 287.169 206.548 287.169C205.785 287.169 205.126 287.048 204.569 286.806C204.012 286.564 203.576 286.221 203.261 285.777C202.946 285.33 202.772 284.799 202.739 284.186H204.281C204.31 284.554 204.43 284.861 204.638 285.106C204.851 285.348 205.121 285.528 205.449 285.648C205.78 285.764 206.143 285.822 206.538 285.822C206.972 285.822 207.358 285.754 207.696 285.618C208.037 285.479 208.306 285.286 208.501 285.041C208.697 284.793 208.795 284.503 208.795 284.171C208.795 283.87 208.709 283.623 208.536 283.43C208.367 283.238 208.137 283.079 207.845 282.953C207.557 282.827 207.23 282.716 206.866 282.62L205.663 282.292C204.847 282.07 204.201 281.743 203.724 281.312C203.25 280.882 203.013 280.312 203.013 279.602C203.013 279.016 203.172 278.504 203.49 278.066C203.808 277.629 204.239 277.289 204.783 277.047C205.326 276.802 205.939 276.679 206.622 276.679C207.312 276.679 207.92 276.8 208.447 277.042C208.977 277.284 209.395 277.617 209.7 278.041C210.004 278.462 210.164 278.946 210.177 279.493H208.695ZM215.718 287V285.886L219.163 282.317C219.531 281.929 219.834 281.589 220.073 281.298C220.315 281.003 220.495 280.723 220.615 280.457C220.734 280.192 220.794 279.911 220.794 279.612C220.794 279.274 220.714 278.982 220.555 278.737C220.396 278.489 220.179 278.298 219.904 278.165C219.629 278.03 219.319 277.962 218.974 277.962C218.609 277.962 218.291 278.036 218.02 278.185C217.748 278.335 217.539 278.545 217.393 278.817C217.247 279.089 217.174 279.407 217.174 279.771H215.708C215.708 279.152 215.85 278.61 216.135 278.146C216.42 277.682 216.811 277.322 217.309 277.067C217.806 276.808 218.371 276.679 219.004 276.679C219.644 276.679 220.207 276.807 220.694 277.062C221.185 277.314 221.568 277.658 221.843 278.096C222.118 278.53 222.255 279.021 222.255 279.567C222.255 279.945 222.184 280.315 222.042 280.676C221.902 281.037 221.659 281.44 221.311 281.884C220.963 282.325 220.479 282.86 219.859 283.49L217.836 285.608V285.683H222.419V287H215.718ZM227.848 287.169C227.063 287.166 226.392 286.959 225.835 286.548C225.278 286.137 224.852 285.538 224.557 284.753C224.262 283.967 224.115 283.021 224.115 281.914C224.115 280.81 224.262 279.867 224.557 279.085C224.855 278.303 225.283 277.706 225.84 277.295C226.4 276.884 227.069 276.679 227.848 276.679C228.627 276.679 229.295 276.886 229.852 277.3C230.409 277.711 230.835 278.308 231.13 279.09C231.428 279.869 231.577 280.81 231.577 281.914C231.577 283.024 231.43 283.972 231.135 284.758C230.84 285.54 230.414 286.138 229.857 286.553C229.3 286.964 228.631 287.169 227.848 287.169ZM227.848 285.842C228.538 285.842 229.076 285.505 229.464 284.832C229.855 284.16 230.051 283.187 230.051 281.914C230.051 281.069 229.961 280.355 229.782 279.771C229.607 279.185 229.353 278.741 229.022 278.439C228.694 278.134 228.302 277.982 227.848 277.982C227.162 277.982 226.624 278.32 226.233 278.996C225.842 279.672 225.644 280.645 225.641 281.914C225.641 282.763 225.729 283.48 225.904 284.067C226.083 284.65 226.337 285.093 226.665 285.394C226.993 285.692 227.388 285.842 227.848 285.842ZM236.885 287.169C236.1 287.166 235.429 286.959 234.872 286.548C234.315 286.137 233.889 285.538 233.594 284.753C233.299 283.967 233.152 283.021 233.152 281.914C233.152 280.81 233.299 279.867 233.594 279.085C233.893 278.303 234.32 277.706 234.877 277.295C235.437 276.884 236.107 276.679 236.885 276.679C237.664 276.679 238.332 276.886 238.889 277.3C239.446 277.711 239.872 278.308 240.167 279.09C240.465 279.869 240.614 280.81 240.614 281.914C240.614 283.024 240.467 283.972 240.172 284.758C239.877 285.54 239.451 286.138 238.894 286.553C238.337 286.964 237.668 287.169 236.885 287.169ZM236.885 285.842C237.575 285.842 238.113 285.505 238.501 284.832C238.892 284.16 239.088 283.187 239.088 281.914C239.088 281.069 238.998 280.355 238.819 279.771C238.644 279.185 238.39 278.741 238.059 278.439C237.731 278.134 237.34 277.982 236.885 277.982C236.199 277.982 235.661 278.32 235.27 278.996C234.879 279.672 234.681 280.645 234.678 281.914C234.678 282.763 234.766 283.48 234.942 284.067C235.121 284.65 235.374 285.093 235.702 285.394C236.03 285.692 236.425 285.842 236.885 285.842Z" fill="#1A191E" fill-opacity="0.5"/>
<rect x="30" y="313" width="147" height="138" rx="10" fill="#DFE1F1"/>
<g clip-path="url(#clip1_1316_3813)">
<path d="M118.667 389.123C118.553 389.237 118.419 389.327 118.271 389.389C118.122 389.451 117.963 389.483 117.803 389.483C117.642 389.483 117.483 389.451 117.335 389.389C117.186 389.327 117.052 389.237 116.939 389.123L115.21 387.395C115.096 387.282 115.006 387.147 114.944 386.999C114.883 386.85 114.851 386.691 114.851 386.531C114.851 386.37 114.883 386.211 114.944 386.063C115.006 385.915 115.096 385.78 115.21 385.667L118.667 382.21C118.78 382.097 118.915 382.007 119.063 381.945C119.211 381.884 119.37 381.852 119.531 381.852C119.691 381.852 119.85 381.884 119.999 381.945C120.147 382.007 120.282 382.097 120.395 382.21L122.123 383.938C122.237 384.052 122.327 384.186 122.389 384.335C122.451 384.483 122.483 384.642 122.483 384.803C122.483 384.963 122.451 385.122 122.389 385.271C122.327 385.419 122.237 385.553 122.123 385.667L118.667 389.123ZM100.333 370.79C100.22 370.904 100.086 370.994 99.9372 371.056C99.7889 371.117 99.6299 371.149 99.4693 371.149C99.3087 371.149 99.1497 371.117 99.0014 371.056C98.8531 370.994 98.7184 370.904 98.6052 370.79L96.877 369.062C96.7631 368.948 96.6727 368.814 96.611 368.665C96.5493 368.517 96.5176 368.358 96.5176 368.197C96.5176 368.037 96.5493 367.878 96.611 367.73C96.6727 367.581 96.7631 367.447 96.877 367.333L100.333 363.877C100.447 363.763 100.581 363.673 100.73 363.612C100.878 363.55 101.037 363.519 101.198 363.519C101.358 363.519 101.517 363.55 101.665 363.612C101.814 363.673 101.948 363.763 102.062 363.877L103.79 365.605C103.904 365.718 103.994 365.853 104.056 366.001C104.117 366.15 104.149 366.309 104.149 366.469C104.149 366.63 104.117 366.789 104.056 366.937C103.994 367.085 103.904 367.22 103.79 367.333L100.333 370.79Z" fill="#66757F"/>
<path d="M84.444 386.889C86.8884 386.889 97.8884 388.111 97.8884 388.111C97.8884 388.111 99.1107 399.111 99.1107 401.556C99.1107 404 96.6662 404 95.444 402.778C94.2218 401.556 90.5551 395.444 90.5551 395.444C90.5551 395.444 84.444 391.778 83.2218 390.556C81.9995 389.333 81.9995 386.889 84.444 386.889ZM86.8884 367.381C90.5551 367.333 117.444 368.556 117.444 368.556C117.444 368.556 118.573 395.444 118.62 399.111C118.666 402.778 115.243 404.002 113.9 399.112C112.556 394.222 107.666 378.333 107.666 378.333C107.666 378.333 90.6101 372.935 86.8823 372.098C81.9995 371 83.2205 367.427 86.8884 367.381Z" fill="#55ACEE"/>
<path d="M115 363.667C117.444 361.222 123.555 360 124.778 361.222C126 362.444 124.778 368.555 122.333 371C119.889 373.444 99.1109 393 99.1109 393C99.1109 393 91.1665 398.5 89.3331 396.667C87.4998 394.833 92.9998 386.889 92.9998 386.889C92.9998 386.889 112.555 366.111 115 363.667Z" fill="#CCD6DD"/>
<path d="M99.111 386.889C99.111 386.889 99.7221 387.5 94.2221 393C88.7221 398.5 88.111 397.889 88.111 397.889C88.111 397.889 87.4999 397.278 92.9999 391.778C98.4999 386.278 99.111 386.889 99.111 386.889ZM117.444 364.889C118.417 364.889 119.349 365.275 120.037 365.963C120.725 366.651 121.111 367.583 121.111 368.556H122.095C122.234 368.171 122.333 367.767 122.333 367.333C122.333 366.361 121.947 365.428 121.259 364.741C120.572 364.053 119.639 363.667 118.667 363.667C118.233 363.667 117.829 363.766 117.444 363.905V364.889Z" fill="#66757F"/>
</g>
<path d="M34.48 475L30.32 463.8H32.048L35.44 473.336L38.864 463.8H40.56L36.4 475H34.48ZM41.595 475V466.968H43.195V475H41.595ZM42.395 465.432C42.0963 465.432 41.8457 465.336 41.643 465.144C41.451 464.952 41.355 464.707 41.355 464.408C41.355 464.12 41.451 463.885 41.643 463.704C41.8457 463.512 42.0963 463.416 42.395 463.416C42.7043 463.416 42.9603 463.512 43.163 463.704C43.3657 463.885 43.467 464.12 43.467 464.408C43.467 464.707 43.3657 464.952 43.163 465.144C42.9603 465.336 42.7043 465.432 42.395 465.432ZM47.675 475.192C47.0137 475.192 46.4643 475.08 46.027 474.856C45.5897 474.632 45.2643 474.333 45.051 473.96C44.8377 473.587 44.731 473.176 44.731 472.728C44.731 472.205 44.8643 471.757 45.131 471.384C45.4083 471 45.803 470.707 46.315 470.504C46.8377 470.301 47.4563 470.2 48.171 470.2H50.267C50.267 469.731 50.1977 469.341 50.059 469.032C49.9203 468.723 49.7123 468.493 49.435 468.344C49.1683 468.184 48.827 468.104 48.411 468.104C47.931 468.104 47.515 468.221 47.163 468.456C46.8217 468.691 46.6137 469.032 46.539 469.48H44.923C44.987 468.904 45.179 468.419 45.499 468.024C45.8297 467.619 46.251 467.309 46.763 467.096C47.275 466.883 47.8243 466.776 48.411 466.776C49.1577 466.776 49.787 466.909 50.299 467.176C50.8217 467.443 51.211 467.821 51.467 468.312C51.7337 468.792 51.867 469.363 51.867 470.024V475H50.475L50.347 473.64C50.2297 473.853 50.091 474.056 49.931 474.248C49.771 474.44 49.579 474.605 49.355 474.744C49.1417 474.883 48.891 474.989 48.603 475.064C48.3257 475.149 48.0163 475.192 47.675 475.192ZM47.979 473.896C48.3203 473.896 48.6297 473.827 48.907 473.688C49.1843 473.549 49.419 473.363 49.611 473.128C49.8137 472.883 49.963 472.611 50.059 472.312C50.1657 472.013 50.2243 471.699 50.235 471.368V471.336H48.331C47.8723 471.336 47.499 471.395 47.211 471.512C46.9337 471.619 46.731 471.768 46.603 471.96C46.475 472.152 46.411 472.376 46.411 472.632C46.411 472.888 46.4697 473.112 46.587 473.304C46.715 473.485 46.8963 473.629 47.131 473.736C47.3657 473.843 47.6483 473.896 47.979 473.896ZM51.8932 478.52V477.16H52.5172C52.9119 477.16 53.1892 477.08 53.3492 476.92C53.5092 476.76 53.5892 476.493 53.5892 476.12V466.968H55.1892V476.152C55.1892 476.707 55.0932 477.16 54.9012 477.512C54.7199 477.864 54.4479 478.12 54.0852 478.28C53.7226 478.44 53.2852 478.52 52.7732 478.52H51.8932ZM54.4052 465.432C54.0959 465.432 53.8399 465.336 53.6372 465.144C53.4452 464.952 53.3492 464.707 53.3492 464.408C53.3492 464.12 53.4452 463.885 53.6372 463.704C53.8399 463.512 54.0959 463.416 54.4052 463.416C54.7039 463.416 54.9492 463.512 55.1412 463.704C55.3439 463.885 55.4452 464.12 55.4452 464.408C55.4452 464.707 55.3439 464.952 55.1412 465.144C54.9492 465.336 54.7039 465.432 54.4052 465.432ZM59.6525 475.192C58.9912 475.192 58.4418 475.08 58.0045 474.856C57.5672 474.632 57.2418 474.333 57.0285 473.96C56.8152 473.587 56.7085 473.176 56.7085 472.728C56.7085 472.205 56.8418 471.757 57.1085 471.384C57.3858 471 57.7805 470.707 58.2925 470.504C58.8152 470.301 59.4338 470.2 60.1485 470.2H62.2445C62.2445 469.731 62.1752 469.341 62.0365 469.032C61.8978 468.723 61.6898 468.493 61.4125 468.344C61.1458 468.184 60.8045 468.104 60.3885 468.104C59.9085 468.104 59.4925 468.221 59.1405 468.456C58.7992 468.691 58.5912 469.032 58.5165 469.48H56.9005C56.9645 468.904 57.1565 468.419 57.4765 468.024C57.8072 467.619 58.2285 467.309 58.7405 467.096C59.2525 466.883 59.8018 466.776 60.3885 466.776C61.1352 466.776 61.7645 466.909 62.2765 467.176C62.7992 467.443 63.1885 467.821 63.4445 468.312C63.7112 468.792 63.8445 469.363 63.8445 470.024V475H62.4525L62.3245 473.64C62.2072 473.853 62.0685 474.056 61.9085 474.248C61.7485 474.44 61.5565 474.605 61.3325 474.744C61.1192 474.883 60.8685 474.989 60.5805 475.064C60.3032 475.149 59.9938 475.192 59.6525 475.192ZM59.9565 473.896C60.2978 473.896 60.6072 473.827 60.8845 473.688C61.1618 473.549 61.3965 473.363 61.5885 473.128C61.7912 472.883 61.9405 472.611 62.0365 472.312C62.1432 472.013 62.2018 471.699 62.2125 471.368V471.336H60.3085C59.8498 471.336 59.4765 471.395 59.1885 471.512C58.9112 471.619 58.7085 471.768 58.5805 471.96C58.4525 472.152 58.3885 472.376 58.3885 472.632C58.3885 472.888 58.4472 473.112 58.5645 473.304C58.6925 473.485 58.8738 473.629 59.1085 473.736C59.3432 473.843 59.6258 473.896 59.9565 473.896ZM65.4067 475V466.968H66.8467L66.9907 468.488C67.1721 468.125 67.4014 467.821 67.6787 467.576C67.9667 467.32 68.3027 467.123 68.6867 466.984C69.0814 466.845 69.5241 466.776 70.0147 466.776V468.456H69.4867C69.1454 468.456 68.8254 468.499 68.5267 468.584C68.2281 468.669 67.9614 468.808 67.7267 469C67.5027 469.192 67.3267 469.453 67.1987 469.784C67.0707 470.115 67.0067 470.525 67.0067 471.016V475H65.4067Z" fill="#1A191E"/>
<path d="M31.1186 497V486.818H34.7479C35.5367 486.818 36.1913 486.954 36.7116 487.226C37.2353 487.498 37.6264 487.874 37.8849 488.354C38.1435 488.832 38.2727 489.384 38.2727 490.01C38.2727 490.633 38.1418 491.182 37.88 491.656C37.6214 492.126 37.2304 492.492 36.7067 492.754C36.1863 493.016 35.5317 493.147 34.7429 493.147H31.9936V491.825H34.6037C35.1009 491.825 35.5052 491.753 35.8168 491.611C36.1316 491.468 36.362 491.261 36.5078 490.989C36.6536 490.718 36.7266 490.391 36.7266 490.01C36.7266 489.625 36.652 489.292 36.5028 489.011C36.357 488.729 36.1267 488.513 35.8118 488.364C35.5002 488.212 35.0909 488.136 34.5838 488.136H32.6548V497H31.1186ZM36.1449 492.406L38.6605 497H36.9105L34.4446 492.406H36.1449ZM43.1449 498.273V485.545H43.9602V498.273H43.1449ZM45.6953 489.493C45.6423 489.022 45.4235 488.658 45.0391 488.399C44.6546 488.137 44.1707 488.006 43.5874 488.006C43.1697 488.006 42.8085 488.073 42.5036 488.205C42.1986 488.335 41.9616 488.513 41.7926 488.742C41.6269 488.968 41.544 489.224 41.544 489.513C41.544 489.755 41.6004 489.964 41.7131 490.139C41.8291 490.315 41.9799 490.462 42.1655 490.582C42.3544 490.698 42.5566 490.795 42.772 490.875C42.9875 490.951 43.1946 491.014 43.3935 491.064L44.3878 491.322C44.7126 491.402 45.0457 491.51 45.3871 491.646C45.7285 491.781 46.045 491.96 46.3366 492.183C46.6283 492.405 46.8636 492.68 47.0426 493.008C47.2249 493.336 47.3161 493.729 47.3161 494.186C47.3161 494.763 47.1669 495.275 46.8686 495.722C46.5736 496.17 46.1444 496.523 45.581 496.781C45.0208 497.04 44.343 497.169 43.5476 497.169C42.7853 497.169 42.1257 497.048 41.5689 496.806C41.0121 496.564 40.5762 496.221 40.2614 495.777C39.9465 495.33 39.7725 494.799 39.7393 494.186H41.2805C41.3104 494.554 41.4297 494.861 41.6385 495.106C41.8506 495.348 42.1207 495.528 42.4489 495.648C42.7803 495.764 43.1432 495.822 43.5376 495.822C43.9718 495.822 44.358 495.754 44.696 495.618C45.0374 495.479 45.3059 495.286 45.5014 495.041C45.697 494.793 45.7947 494.503 45.7947 494.171C45.7947 493.87 45.7086 493.623 45.5362 493.43C45.3672 493.238 45.1368 493.079 44.8452 492.953C44.5568 492.827 44.2304 492.716 43.8658 492.62L42.6626 492.292C41.8473 492.07 41.201 491.743 40.7237 491.312C40.2498 490.882 40.0128 490.312 40.0128 489.602C40.0128 489.016 40.1719 488.504 40.4901 488.066C40.8082 487.629 41.2391 487.289 41.7827 487.047C42.3262 486.802 42.9394 486.679 43.6222 486.679C44.3116 486.679 44.9197 486.8 45.4467 487.042C45.977 487.284 46.3946 487.617 46.6996 488.041C47.0045 488.462 47.1636 488.946 47.1768 489.493H45.6953ZM52.5039 495.011V493.768L56.9038 486.818H57.8832V488.648H57.2617L54.1147 493.629V493.709H60.1452V495.011H52.5039ZM57.3313 497V494.634L57.3413 494.067V486.818H58.7979V497H57.3313ZM65.4226 497.169C64.6371 497.166 63.9659 496.959 63.4091 496.548C62.8523 496.137 62.4264 495.538 62.1314 494.753C61.8364 493.967 61.6889 493.021 61.6889 491.914C61.6889 490.81 61.8364 489.867 62.1314 489.085C62.4297 488.303 62.8572 487.706 63.4141 487.295C63.9742 486.884 64.6437 486.679 65.4226 486.679C66.2015 486.679 66.8693 486.886 67.4261 487.3C67.983 487.711 68.4089 488.308 68.7038 489.09C69.0021 489.869 69.1513 490.81 69.1513 491.914C69.1513 493.024 69.0038 493.972 68.7088 494.758C68.4138 495.54 67.9879 496.138 67.4311 496.553C66.8743 496.964 66.2048 497.169 65.4226 497.169ZM65.4226 495.842C66.112 495.842 66.6506 495.505 67.0384 494.832C67.4295 494.16 67.625 493.187 67.625 491.914C67.625 491.069 67.5355 490.355 67.3565 489.771C67.1809 489.185 66.9273 488.741 66.5959 488.439C66.2678 488.134 65.8767 487.982 65.4226 487.982C64.7365 487.982 64.1979 488.32 63.8068 488.996C63.4157 489.672 63.2185 490.645 63.2152 491.914C63.2152 492.763 63.303 493.48 63.4787 494.067C63.6577 494.65 63.9112 495.093 64.2393 495.394C64.5675 495.692 64.9619 495.842 65.4226 495.842ZM74.4597 497.169C73.6742 497.166 73.003 496.959 72.4462 496.548C71.8894 496.137 71.4635 495.538 71.1685 494.753C70.8735 493.967 70.726 493.021 70.726 491.914C70.726 490.81 70.8735 489.867 71.1685 489.085C71.4668 488.303 71.8944 487.706 72.4512 487.295C73.0113 486.884 73.6808 486.679 74.4597 486.679C75.2386 486.679 75.9064 486.886 76.4632 487.3C77.0201 487.711 77.446 488.308 77.7409 489.09C78.0392 489.869 78.1884 490.81 78.1884 491.914C78.1884 493.024 78.0409 493.972 77.7459 494.758C77.4509 495.54 77.025 496.138 76.4682 496.553C75.9114 496.964 75.2419 497.169 74.4597 497.169ZM74.4597 495.842C75.1491 495.842 75.6877 495.505 76.0755 494.832C76.4666 494.16 76.6621 493.187 76.6621 491.914C76.6621 491.069 76.5726 490.355 76.3936 489.771C76.218 489.185 75.9644 488.741 75.633 488.439C75.3049 488.134 74.9138 487.982 74.4597 487.982C73.7736 487.982 73.235 488.32 72.8439 488.996C72.4528 489.672 72.2556 490.645 72.2523 491.914C72.2523 492.763 72.3401 493.48 72.5158 494.067C72.6948 494.65 72.9483 495.093 73.2765 495.394C73.6046 495.692 73.999 495.842 74.4597 495.842Z" fill="#1A191E" fill-opacity="0.5"/>
<rect x="193" y="313" width="147" height="138" rx="10" fill="#DFEBF1"/>
<path d="M245 372.222C245 372.222 245 367.333 249.889 367.333H284.111C284.111 367.333 289 367.333 289 372.222V394.222C289 394.222 289 399.111 284.111 399.111H249.889C249.889 399.111 245 399.111 245 394.222V372.222Z" fill="#31373D"/>
<path d="M270.667 395.444C277.417 395.444 282.889 389.972 282.889 383.222C282.889 376.472 277.417 371 270.667 371C263.916 371 258.444 376.472 258.444 383.222C258.444 389.972 263.916 395.444 270.667 395.444Z" fill="#CCD6DD"/>
<path d="M270.666 393C276.067 393 280.444 388.622 280.444 383.222C280.444 377.822 276.067 373.444 270.666 373.444C265.266 373.444 260.889 377.822 260.889 383.222C260.889 388.622 265.266 393 270.666 393Z" fill="#31373D"/>
<path d="M270.667 389.333C274.042 389.333 276.778 386.597 276.778 383.222C276.778 379.847 274.042 377.111 270.667 377.111C267.292 377.111 264.556 379.847 264.556 383.222C264.556 386.597 267.292 389.333 270.667 389.333Z" fill="#3B88C3"/>
<path d="M284.722 373.444C285.735 373.444 286.555 372.624 286.555 371.611C286.555 370.599 285.735 369.778 284.722 369.778C283.709 369.778 282.889 370.599 282.889 371.611C282.889 372.624 283.709 373.444 284.722 373.444Z" fill="white"/>
<path d="M264.556 371L268.222 363.667L260.889 366.111L256 360L253.556 366.111L246.222 364.889L251.111 372.222L245 377.111H252.333L249.889 384.444L257.222 380.778L264.556 386.889L263.333 377.111L270.667 375.889L264.556 371Z" fill="#FFAC33"/>
<path d="M257.222 377.111L253.556 379.556L254.778 375.889L251.111 374.667L254.778 372.222L251.111 368.556H256L257.222 364.889L259.667 368.556L263.334 367.333L260.889 371L264.556 374.667L260.889 375.889L262.111 380.778L257.222 377.111Z" fill="white"/>
<path d="M199.096 475.192C197.997 475.192 197.048 474.952 196.248 474.472C195.448 473.981 194.829 473.304 194.392 472.44C193.965 471.565 193.752 470.552 193.752 469.4C193.752 468.259 193.965 467.251 194.392 466.376C194.829 465.501 195.448 464.824 196.248 464.344C197.048 463.853 197.997 463.608 199.096 463.608C200.397 463.608 201.459 463.923 202.28 464.552C203.101 465.181 203.619 466.067 203.832 467.208H202.088C201.917 466.547 201.581 466.019 201.08 465.624C200.589 465.229 199.923 465.032 199.08 465.032C198.333 465.032 197.677 465.208 197.112 465.56C196.557 465.912 196.131 466.413 195.832 467.064C195.533 467.715 195.384 468.493 195.384 469.4C195.384 470.307 195.533 471.091 195.832 471.752C196.131 472.403 196.557 472.904 197.112 473.256C197.677 473.597 198.333 473.768 199.08 473.768C199.923 473.768 200.589 473.581 201.08 473.208C201.581 472.824 201.912 472.307 202.072 471.656H203.832C203.619 472.765 203.101 473.635 202.28 474.264C201.459 474.883 200.397 475.192 199.096 475.192ZM207.858 475.192C207.197 475.192 206.647 475.08 206.21 474.856C205.773 474.632 205.447 474.333 205.234 473.96C205.021 473.587 204.914 473.176 204.914 472.728C204.914 472.205 205.047 471.757 205.314 471.384C205.591 471 205.986 470.707 206.498 470.504C207.021 470.301 207.639 470.2 208.354 470.2H210.45C210.45 469.731 210.381 469.341 210.242 469.032C210.103 468.723 209.895 468.493 209.618 468.344C209.351 468.184 209.01 468.104 208.594 468.104C208.114 468.104 207.698 468.221 207.346 468.456C207.005 468.691 206.797 469.032 206.722 469.48H205.106C205.17 468.904 205.362 468.419 205.682 468.024C206.013 467.619 206.434 467.309 206.946 467.096C207.458 466.883 208.007 466.776 208.594 466.776C209.341 466.776 209.97 466.909 210.482 467.176C211.005 467.443 211.394 467.821 211.65 468.312C211.917 468.792 212.05 469.363 212.05 470.024V475H210.658L210.53 473.64C210.413 473.853 210.274 474.056 210.114 474.248C209.954 474.44 209.762 474.605 209.538 474.744C209.325 474.883 209.074 474.989 208.786 475.064C208.509 475.149 208.199 475.192 207.858 475.192ZM208.162 473.896C208.503 473.896 208.813 473.827 209.09 473.688C209.367 473.549 209.602 473.363 209.794 473.128C209.997 472.883 210.146 472.611 210.242 472.312C210.349 472.013 210.407 471.699 210.418 471.368V471.336H208.514C208.055 471.336 207.682 471.395 207.394 471.512C207.117 471.619 206.914 471.768 206.786 471.96C206.658 472.152 206.594 472.376 206.594 472.632C206.594 472.888 206.653 473.112 206.77 473.304C206.898 473.485 207.079 473.629 207.314 473.736C207.549 473.843 207.831 473.896 208.162 473.896ZM206.258 466.232V465.016L208.498 463.736L210.754 465.016V466.232L208.498 464.888L206.258 466.232ZM213.612 475V466.968H215.052L215.164 468.088C215.42 467.683 215.762 467.363 216.188 467.128C216.615 466.893 217.095 466.776 217.628 466.776C218.034 466.776 218.402 466.829 218.732 466.936C219.074 467.043 219.372 467.208 219.628 467.432C219.884 467.656 220.092 467.939 220.252 468.28C220.53 467.8 220.908 467.432 221.388 467.176C221.879 466.909 222.402 466.776 222.956 466.776C223.607 466.776 224.167 466.904 224.636 467.16C225.106 467.416 225.463 467.805 225.708 468.328C225.954 468.851 226.076 469.501 226.076 470.28V475H224.492V470.44C224.492 469.683 224.338 469.112 224.028 468.728C223.73 468.333 223.287 468.136 222.7 468.136C222.306 468.136 221.954 468.237 221.644 468.44C221.335 468.643 221.09 468.941 220.908 469.336C220.738 469.72 220.652 470.189 220.652 470.744V475H219.052V470.44C219.052 469.683 218.898 469.112 218.588 468.728C218.279 468.333 217.836 468.136 217.26 468.136C216.876 468.136 216.53 468.237 216.22 468.44C215.911 468.643 215.666 468.941 215.484 469.336C215.303 469.72 215.212 470.189 215.212 470.744V475H213.612ZM231.312 475.192C230.533 475.192 229.845 475.021 229.248 474.68C228.651 474.328 228.181 473.837 227.84 473.208C227.509 472.579 227.344 471.843 227.344 471C227.344 470.157 227.509 469.421 227.84 468.792C228.181 468.163 228.651 467.672 229.248 467.32C229.845 466.957 230.539 466.776 231.328 466.776C232.117 466.776 232.795 466.952 233.36 467.304C233.925 467.645 234.363 468.109 234.672 468.696C234.981 469.272 235.136 469.912 235.136 470.616C235.136 470.723 235.136 470.84 235.136 470.968C235.136 471.085 235.125 471.213 235.104 471.352H228.512V470.232H233.536C233.504 469.571 233.28 469.053 232.864 468.68C232.448 468.296 231.931 468.104 231.312 468.104C230.885 468.104 230.485 468.2 230.112 468.392C229.749 468.584 229.456 468.872 229.232 469.256C229.019 469.629 228.912 470.104 228.912 470.68V471.128C228.912 471.725 229.019 472.227 229.232 472.632C229.456 473.037 229.749 473.347 230.112 473.56C230.475 473.763 230.869 473.864 231.296 473.864C231.808 473.864 232.229 473.752 232.56 473.528C232.901 473.293 233.152 472.984 233.312 472.6H234.912C234.763 473.101 234.523 473.549 234.192 473.944C233.872 474.328 233.467 474.632 232.976 474.856C232.496 475.08 231.941 475.192 231.312 475.192ZM236.434 475V466.968H237.874L238.018 468.488C238.199 468.125 238.428 467.821 238.706 467.576C238.994 467.32 239.33 467.123 239.714 466.984C240.108 466.845 240.551 466.776 241.042 466.776V468.456H240.514C240.172 468.456 239.852 468.499 239.554 468.584C239.255 468.669 238.988 468.808 238.754 469C238.53 469.192 238.354 469.453 238.226 469.784C238.098 470.115 238.034 470.525 238.034 471.016V475H236.434ZM244.719 475.192C244.058 475.192 243.509 475.08 243.071 474.856C242.634 474.632 242.309 474.333 242.095 473.96C241.882 473.587 241.775 473.176 241.775 472.728C241.775 472.205 241.909 471.757 242.175 471.384C242.453 471 242.847 470.707 243.359 470.504C243.882 470.301 244.501 470.2 245.215 470.2H247.311C247.311 469.731 247.242 469.341 247.103 469.032C246.965 468.723 246.757 468.493 246.479 468.344C246.213 468.184 245.871 468.104 245.455 468.104C244.975 468.104 244.559 468.221 244.207 468.456C243.866 468.691 243.658 469.032 243.583 469.48H241.967C242.031 468.904 242.223 468.419 242.543 468.024C242.874 467.619 243.295 467.309 243.807 467.096C244.319 466.883 244.869 466.776 245.455 466.776C246.202 466.776 246.831 466.909 247.343 467.176C247.866 467.443 248.255 467.821 248.511 468.312C248.778 468.792 248.911 469.363 248.911 470.024V475H247.519L247.391 473.64C247.274 473.853 247.135 474.056 246.975 474.248C246.815 474.44 246.623 474.605 246.399 474.744C246.186 474.883 245.935 474.989 245.647 475.064C245.37 475.149 245.061 475.192 244.719 475.192ZM245.023 473.896C245.365 473.896 245.674 473.827 245.951 473.688C246.229 473.549 246.463 473.363 246.655 473.128C246.858 472.883 247.007 472.611 247.103 472.312C247.21 472.013 247.269 471.699 247.279 471.368V471.336H245.375C244.917 471.336 244.543 471.395 244.255 471.512C243.978 471.619 243.775 471.768 243.647 471.96C243.519 472.152 243.455 472.376 243.455 472.632C243.455 472.888 243.514 473.112 243.631 473.304C243.759 473.485 243.941 473.629 244.175 473.736C244.41 473.843 244.693 473.896 245.023 473.896Z" fill="#1A191E"/>
<path d="M194.119 497V486.818H197.748C198.537 486.818 199.191 486.954 199.712 487.226C200.235 487.498 200.626 487.874 200.885 488.354C201.143 488.832 201.273 489.384 201.273 490.01C201.273 490.633 201.142 491.182 200.88 491.656C200.621 492.126 200.23 492.492 199.707 492.754C199.186 493.016 198.532 493.147 197.743 493.147H194.994V491.825H197.604C198.101 491.825 198.505 491.753 198.817 491.611C199.132 491.468 199.362 491.261 199.508 490.989C199.654 490.718 199.727 490.391 199.727 490.01C199.727 489.625 199.652 489.292 199.503 489.011C199.357 488.729 199.127 488.513 198.812 488.364C198.5 488.212 198.091 488.136 197.584 488.136H195.655V497H194.119ZM199.145 492.406L201.661 497H199.911L197.445 492.406H199.145ZM206.145 498.273V485.545H206.96V498.273H206.145ZM208.695 489.493C208.642 489.022 208.424 488.658 208.039 488.399C207.655 488.137 207.171 488.006 206.587 488.006C206.17 488.006 205.808 488.073 205.504 488.205C205.199 488.335 204.962 488.513 204.793 488.742C204.627 488.968 204.544 489.224 204.544 489.513C204.544 489.755 204.6 489.964 204.713 490.139C204.829 490.315 204.98 490.462 205.165 490.582C205.354 490.698 205.557 490.795 205.772 490.875C205.987 490.951 206.195 491.014 206.393 491.064L207.388 491.322C207.713 491.402 208.046 491.51 208.387 491.646C208.728 491.781 209.045 491.96 209.337 492.183C209.628 492.405 209.864 492.68 210.043 493.008C210.225 493.336 210.316 493.729 210.316 494.186C210.316 494.763 210.167 495.275 209.869 495.722C209.574 496.17 209.144 496.523 208.581 496.781C208.021 497.04 207.343 497.169 206.548 497.169C205.785 497.169 205.126 497.048 204.569 496.806C204.012 496.564 203.576 496.221 203.261 495.777C202.946 495.33 202.772 494.799 202.739 494.186H204.281C204.31 494.554 204.43 494.861 204.638 495.106C204.851 495.348 205.121 495.528 205.449 495.648C205.78 495.764 206.143 495.822 206.538 495.822C206.972 495.822 207.358 495.754 207.696 495.618C208.037 495.479 208.306 495.286 208.501 495.041C208.697 494.793 208.795 494.503 208.795 494.171C208.795 493.87 208.709 493.623 208.536 493.43C208.367 493.238 208.137 493.079 207.845 492.953C207.557 492.827 207.23 492.716 206.866 492.62L205.663 492.292C204.847 492.07 204.201 491.743 203.724 491.312C203.25 490.882 203.013 490.312 203.013 489.602C203.013 489.016 203.172 488.504 203.49 488.066C203.808 487.629 204.239 487.289 204.783 487.047C205.326 486.802 205.939 486.679 206.622 486.679C207.312 486.679 207.92 486.8 208.447 487.042C208.977 487.284 209.395 487.617 209.7 488.041C210.004 488.462 210.164 488.946 210.177 489.493H208.695ZM215.718 497V495.886L219.163 492.317C219.531 491.929 219.834 491.589 220.073 491.298C220.315 491.003 220.495 490.723 220.615 490.457C220.734 490.192 220.794 489.911 220.794 489.612C220.794 489.274 220.714 488.982 220.555 488.737C220.396 488.489 220.179 488.298 219.904 488.165C219.629 488.03 219.319 487.962 218.974 487.962C218.609 487.962 218.291 488.036 218.02 488.185C217.748 488.335 217.539 488.545 217.393 488.817C217.247 489.089 217.174 489.407 217.174 489.771H215.708C215.708 489.152 215.85 488.61 216.135 488.146C216.42 487.682 216.811 487.322 217.309 487.067C217.806 486.808 218.371 486.679 219.004 486.679C219.644 486.679 220.207 486.807 220.694 487.062C221.185 487.314 221.568 487.658 221.843 488.096C222.118 488.53 222.255 489.021 222.255 489.567C222.255 489.945 222.184 490.315 222.042 490.676C221.902 491.037 221.659 491.44 221.311 491.884C220.963 492.325 220.479 492.86 219.859 493.49L217.836 495.608V495.683H222.419V497H215.718ZM227.848 497.169C227.063 497.166 226.392 496.959 225.835 496.548C225.278 496.137 224.852 495.538 224.557 494.753C224.262 493.967 224.115 493.021 224.115 491.914C224.115 490.81 224.262 489.867 224.557 489.085C224.855 488.303 225.283 487.706 225.84 487.295C226.4 486.884 227.069 486.679 227.848 486.679C228.627 486.679 229.295 486.886 229.852 487.3C230.409 487.711 230.835 488.308 231.13 489.09C231.428 489.869 231.577 490.81 231.577 491.914C231.577 493.024 231.43 493.972 231.135 494.758C230.84 495.54 230.414 496.138 229.857 496.553C229.3 496.964 228.631 497.169 227.848 497.169ZM227.848 495.842C228.538 495.842 229.076 495.505 229.464 494.832C229.855 494.16 230.051 493.187 230.051 491.914C230.051 491.069 229.961 490.355 229.782 489.771C229.607 489.185 229.353 488.741 229.022 488.439C228.694 488.134 228.302 487.982 227.848 487.982C227.162 487.982 226.624 488.32 226.233 488.996C225.842 489.672 225.644 490.645 225.641 491.914C225.641 492.763 225.729 493.48 225.904 494.067C226.083 494.65 226.337 495.093 226.665 495.394C226.993 495.692 227.388 495.842 227.848 495.842ZM236.885 497.169C236.1 497.166 235.429 496.959 234.872 496.548C234.315 496.137 233.889 495.538 233.594 494.753C233.299 493.967 233.152 493.021 233.152 491.914C233.152 490.81 233.299 489.867 233.594 489.085C233.893 488.303 234.32 487.706 234.877 487.295C235.437 486.884 236.107 486.679 236.885 486.679C237.664 486.679 238.332 486.886 238.889 487.3C239.446 487.711 239.872 488.308 240.167 489.09C240.465 489.869 240.614 490.81 240.614 491.914C240.614 493.024 240.467 493.972 240.172 494.758C239.877 495.54 239.451 496.138 238.894 496.553C238.337 496.964 237.668 497.169 236.885 497.169ZM236.885 495.842C237.575 495.842 238.113 495.505 238.501 494.832C238.892 494.16 239.088 493.187 239.088 491.914C239.088 491.069 238.998 490.355 238.819 489.771C238.644 489.185 238.39 488.741 238.059 488.439C237.731 488.134 237.34 487.982 236.885 487.982C236.199 487.982 235.661 488.32 235.27 488.996C234.879 489.672 234.681 490.645 234.678 491.914C234.678 492.763 234.766 493.48 234.942 494.067C235.121 494.65 235.374 495.093 235.702 495.394C236.03 495.692 236.425 495.842 236.885 495.842Z" fill="#1A191E" fill-opacity="0.5"/>
<rect x="30" y="523" width="147" height="138" rx="10" fill="#F1F6FA"/>
<rect x="84" y="572" width="40" height="40" rx="20" fill="#0088DC"/>
<path d="M103.083 591.083V585.583H104.916V591.083H110.416V592.917H104.916V598.417H103.083V592.917H97.583V591.083H103.083Z" fill="white"/>
<path d="M69.2575 674.818V685H67.8456L62.6702 677.533H62.5757V685H61.0395V674.818H62.4614L67.6418 682.295H67.7362V674.818H69.2575ZM74.5958 685.154C73.8799 685.154 73.2551 684.99 72.7215 684.662C72.1879 684.334 71.7736 683.875 71.4786 683.285C71.1836 682.695 71.0361 682.005 71.0361 681.217C71.0361 680.424 71.1836 679.732 71.4786 679.138C71.7736 678.545 72.1879 678.085 72.7215 677.756C73.2551 677.428 73.8799 677.264 74.5958 677.264C75.3117 677.264 75.9365 677.428 76.4701 677.756C77.0037 678.085 77.418 678.545 77.713 679.138C78.008 679.732 78.1555 680.424 78.1555 681.217C78.1555 682.005 78.008 682.695 77.713 683.285C77.418 683.875 77.0037 684.334 76.4701 684.662C75.9365 684.99 75.3117 685.154 74.5958 685.154ZM74.6008 683.906C75.0648 683.906 75.4492 683.784 75.7542 683.538C76.0591 683.293 76.2845 682.967 76.4303 682.559C76.5795 682.151 76.654 681.702 76.654 681.212C76.654 680.724 76.5795 680.277 76.4303 679.869C76.2845 679.458 76.0591 679.129 75.7542 678.88C75.4492 678.631 75.0648 678.507 74.6008 678.507C74.1334 678.507 73.7457 678.631 73.4374 678.88C73.1325 679.129 72.9055 679.458 72.7563 679.869C72.6105 680.277 72.5376 680.724 72.5376 681.212C72.5376 681.702 72.6105 682.151 72.7563 682.559C72.9055 682.967 73.1325 683.293 73.4374 683.538C73.7457 683.784 74.1334 683.906 74.6008 683.906ZM86.0876 677.364L83.3184 685H81.7275L78.9534 677.364H80.5493L82.4832 683.24H82.5628L84.4917 677.364H86.0876ZM90.4415 685.154C89.7256 685.154 89.1008 684.99 88.5672 684.662C88.0336 684.334 87.6193 683.875 87.3243 683.285C87.0293 682.695 86.8818 682.005 86.8818 681.217C86.8818 680.424 87.0293 679.732 87.3243 679.138C87.6193 678.545 88.0336 678.085 88.5672 677.756C89.1008 677.428 89.7256 677.264 90.4415 677.264C91.1574 677.264 91.7822 677.428 92.3158 677.756C92.8494 678.085 93.2637 678.545 93.5587 679.138C93.8537 679.732 94.0012 680.424 94.0012 681.217C94.0012 682.005 93.8537 682.695 93.5587 683.285C93.2637 683.875 92.8494 684.334 92.3158 684.662C91.7822 684.99 91.1574 685.154 90.4415 685.154ZM90.4465 683.906C90.9105 683.906 91.295 683.784 91.5999 683.538C91.9048 683.293 92.1302 682.967 92.276 682.559C92.4252 682.151 92.4997 681.702 92.4997 681.212C92.4997 680.724 92.4252 680.277 92.276 679.869C92.1302 679.458 91.9048 679.129 91.5999 678.88C91.295 678.631 90.9105 678.507 90.4465 678.507C89.9791 678.507 89.5914 678.631 89.2831 678.88C88.9782 679.129 88.7512 679.458 88.602 679.869C88.4562 680.277 88.3833 680.724 88.3833 681.212C88.3833 681.702 88.4562 682.151 88.602 682.559C88.7512 682.967 88.9782 683.293 89.2831 683.538C89.5914 683.784 89.9791 683.906 90.4465 683.906ZM102.657 685.154C101.904 685.154 101.256 684.993 100.713 684.672C100.173 684.347 99.7549 683.891 99.46 683.305C99.1683 682.715 99.0225 682.024 99.0225 681.232C99.0225 680.449 99.1683 679.76 99.46 679.163C99.7549 678.567 100.166 678.101 100.693 677.766C101.223 677.432 101.843 677.264 102.552 677.264C102.983 677.264 103.401 677.335 103.805 677.478C104.209 677.621 104.572 677.844 104.894 678.149C105.215 678.454 105.469 678.85 105.655 679.337C105.84 679.821 105.933 680.41 105.933 681.102V681.629H99.8627V680.516H104.476C104.476 680.125 104.397 679.778 104.238 679.477C104.079 679.172 103.855 678.931 103.566 678.756C103.281 678.58 102.947 678.492 102.562 678.492C102.145 678.492 101.78 678.595 101.468 678.8C101.16 679.003 100.922 679.268 100.753 679.596C100.587 679.921 100.504 680.274 100.504 680.655V681.525C100.504 682.035 100.593 682.469 100.772 682.827C100.955 683.185 101.208 683.459 101.533 683.648C101.858 683.833 102.237 683.926 102.672 683.926C102.953 683.926 103.21 683.886 103.442 683.807C103.674 683.724 103.875 683.601 104.044 683.439C104.213 683.277 104.342 683.076 104.432 682.837L105.839 683.091C105.726 683.505 105.524 683.868 105.232 684.18C104.944 684.488 104.581 684.728 104.143 684.901C103.709 685.07 103.214 685.154 102.657 685.154ZM113.305 679.228L111.957 679.467C111.901 679.294 111.811 679.13 111.689 678.974C111.57 678.819 111.407 678.691 111.202 678.592C110.996 678.492 110.739 678.442 110.431 678.442C110.01 678.442 109.659 678.537 109.377 678.726C109.095 678.911 108.954 679.152 108.954 679.447C108.954 679.702 109.049 679.907 109.238 680.063C109.427 680.219 109.732 680.347 110.153 680.446L111.366 680.724C112.068 680.887 112.592 681.137 112.937 681.475C113.281 681.813 113.454 682.252 113.454 682.793C113.454 683.25 113.321 683.658 113.056 684.016C112.794 684.37 112.428 684.649 111.957 684.851C111.49 685.053 110.948 685.154 110.332 685.154C109.476 685.154 108.779 684.972 108.239 684.607C107.698 684.239 107.367 683.717 107.244 683.041L108.681 682.822C108.771 683.197 108.954 683.48 109.233 683.673C109.511 683.862 109.874 683.956 110.322 683.956C110.809 683.956 111.198 683.855 111.49 683.653C111.782 683.447 111.927 683.197 111.927 682.902C111.927 682.663 111.838 682.463 111.659 682.3C111.483 682.138 111.213 682.015 110.849 681.933L109.556 681.649C108.843 681.487 108.316 681.228 107.975 680.874C107.637 680.519 107.468 680.07 107.468 679.526C107.468 679.076 107.594 678.681 107.846 678.343C108.098 678.005 108.446 677.741 108.89 677.553C109.334 677.36 109.843 677.264 110.416 677.264C111.241 677.264 111.891 677.443 112.365 677.801C112.839 678.156 113.152 678.631 113.305 679.228ZM115.088 687.864V677.364H116.54V678.602H116.664C116.75 678.442 116.875 678.259 117.037 678.05C117.199 677.841 117.425 677.659 117.713 677.503C118.002 677.344 118.383 677.264 118.857 677.264C119.473 677.264 120.023 677.42 120.507 677.732C120.991 678.043 121.371 678.492 121.646 679.079C121.924 679.665 122.063 680.371 122.063 681.197C122.063 682.022 121.926 682.73 121.651 683.32C121.376 683.906 120.998 684.359 120.517 684.677C120.037 684.992 119.488 685.149 118.872 685.149C118.408 685.149 118.028 685.071 117.733 684.915C117.441 684.76 117.213 684.577 117.047 684.369C116.881 684.16 116.754 683.974 116.664 683.812H116.575V687.864H115.088ZM116.545 681.182C116.545 681.719 116.623 682.189 116.778 682.594C116.934 682.998 117.16 683.315 117.455 683.543C117.75 683.769 118.111 683.881 118.538 683.881C118.983 683.881 119.354 683.764 119.652 683.528C119.95 683.29 120.176 682.967 120.328 682.559C120.484 682.151 120.562 681.692 120.562 681.182C120.562 680.678 120.486 680.226 120.333 679.825C120.184 679.424 119.959 679.107 119.657 678.875C119.359 678.643 118.986 678.527 118.538 678.527C118.108 678.527 117.743 678.638 117.445 678.86C117.15 679.082 116.926 679.392 116.774 679.79C116.621 680.187 116.545 680.652 116.545 681.182ZM125.951 685.169C125.467 685.169 125.03 685.08 124.639 684.901C124.247 684.718 123.938 684.455 123.709 684.11C123.484 683.765 123.371 683.343 123.371 682.842C123.371 682.411 123.454 682.057 123.619 681.778C123.785 681.5 124.009 681.28 124.291 681.117C124.572 680.955 124.887 680.832 125.235 680.749C125.583 680.666 125.938 680.603 126.299 680.56C126.756 680.507 127.128 680.464 127.413 680.431C127.698 680.395 127.905 680.337 128.034 680.257C128.163 680.178 128.228 680.048 128.228 679.869V679.835C128.228 679.4 128.105 679.064 127.86 678.825C127.618 678.587 127.257 678.467 126.776 678.467C126.276 678.467 125.881 678.578 125.593 678.8C125.308 679.019 125.111 679.263 125.002 679.531L123.604 679.213C123.77 678.749 124.012 678.375 124.33 678.089C124.652 677.801 125.021 677.592 125.439 677.463C125.857 677.33 126.296 677.264 126.756 677.264C127.061 677.264 127.385 677.301 127.726 677.374C128.071 677.443 128.392 677.572 128.69 677.761C128.992 677.95 129.239 678.22 129.431 678.572C129.623 678.92 129.72 679.372 129.72 679.929V685H128.268V683.956H128.208C128.112 684.148 127.968 684.337 127.776 684.523C127.583 684.708 127.336 684.862 127.035 684.985C126.733 685.108 126.372 685.169 125.951 685.169ZM126.274 683.976C126.685 683.976 127.037 683.895 127.328 683.732C127.623 683.57 127.847 683.358 127.999 683.096C128.155 682.831 128.233 682.547 128.233 682.246V681.261C128.18 681.314 128.077 681.364 127.925 681.411C127.776 681.454 127.605 681.492 127.413 681.525C127.22 681.555 127.033 681.583 126.851 681.609C126.669 681.633 126.516 681.652 126.394 681.669C126.105 681.705 125.842 681.767 125.603 681.853C125.368 681.939 125.179 682.063 125.036 682.226C124.897 682.385 124.828 682.597 124.828 682.862C124.828 683.23 124.963 683.509 125.235 683.697C125.507 683.883 125.853 683.976 126.274 683.976ZM134.916 685.154C134.177 685.154 133.541 684.987 133.007 684.652C132.477 684.314 132.069 683.848 131.784 683.255C131.499 682.662 131.356 681.982 131.356 681.217C131.356 680.441 131.502 679.757 131.794 679.163C132.086 678.567 132.497 678.101 133.027 677.766C133.557 677.432 134.182 677.264 134.901 677.264C135.481 677.264 135.998 677.372 136.452 677.587C136.906 677.799 137.273 678.098 137.551 678.482C137.833 678.867 138 679.316 138.053 679.83H136.606C136.527 679.472 136.345 679.163 136.06 678.905C135.778 678.646 135.4 678.517 134.926 678.517C134.512 678.517 134.149 678.626 133.837 678.845C133.529 679.061 133.289 679.369 133.116 679.77C132.944 680.168 132.858 680.638 132.858 681.182C132.858 681.739 132.942 682.219 133.111 682.624C133.28 683.028 133.519 683.341 133.827 683.563C134.139 683.785 134.505 683.896 134.926 683.896C135.208 683.896 135.463 683.845 135.692 683.742C135.924 683.636 136.118 683.485 136.273 683.29C136.432 683.094 136.543 682.859 136.606 682.584H138.053C138 683.078 137.839 683.518 137.571 683.906C137.302 684.294 136.943 684.599 136.492 684.821C136.045 685.043 135.519 685.154 134.916 685.154ZM134.379 684.96H135.354L135.274 685.368C135.562 685.414 135.814 685.53 136.03 685.716C136.245 685.902 136.353 686.182 136.353 686.556C136.356 687.004 136.162 687.366 135.771 687.645C135.383 687.923 134.822 688.062 134.086 688.062L134.056 687.232C134.401 687.232 134.679 687.183 134.891 687.083C135.107 686.984 135.216 686.823 135.219 686.601C135.223 686.379 135.14 686.223 134.971 686.134C134.805 686.044 134.54 685.981 134.175 685.945L134.379 684.96ZM142.859 685.154C142.144 685.154 141.519 684.99 140.985 684.662C140.452 684.334 140.037 683.875 139.742 683.285C139.447 682.695 139.3 682.005 139.3 681.217C139.3 680.424 139.447 679.732 139.742 679.138C140.037 678.545 140.452 678.085 140.985 677.756C141.519 677.428 142.144 677.264 142.859 677.264C143.575 677.264 144.2 677.428 144.734 677.756C145.267 678.085 145.682 678.545 145.977 679.138C146.272 679.732 146.419 680.424 146.419 681.217C146.419 682.005 146.272 682.695 145.977 683.285C145.682 683.875 145.267 684.334 144.734 684.662C144.2 684.99 143.575 685.154 142.859 685.154ZM142.864 683.906C143.328 683.906 143.713 683.784 144.018 683.538C144.323 683.293 144.548 682.967 144.694 682.559C144.843 682.151 144.918 681.702 144.918 681.212C144.918 680.724 144.843 680.277 144.694 679.869C144.548 679.458 144.323 679.129 144.018 678.88C143.713 678.631 143.328 678.507 142.864 678.507C142.397 678.507 142.009 678.631 141.701 678.88C141.396 679.129 141.169 679.458 141.02 679.869C140.874 680.277 140.801 680.724 140.801 681.212C140.801 681.702 140.874 682.151 141.02 682.559C141.169 682.967 141.396 683.293 141.701 683.538C142.009 683.784 142.397 683.906 142.864 683.906Z" fill="#0088DC"/>
<defs>
<clipPath id="clip0_1316_3813">
<rect width="54" height="54" fill="white" transform="translate(240 145)"/>
</clipPath>
<clipPath id="clip1_1316_3813">
<rect width="44" height="44" fill="white" transform="translate(82 360)"/>
</clipPath>
</defs>
</svg>
