<svg width="64" height="64" viewBox="0 0 64 64" fill="none" xmlns="http://www.w3.org/2000/svg">
<circle cx="32" cy="32" r="32" fill="#F1F6FA"/>
<path d="M34.4163 34.7841V46.0833H19.833C19.8326 44.3025 20.2398 42.5453 21.0234 40.9462C21.8071 39.3471 22.9465 37.9486 24.3542 36.8579C25.7619 35.7673 27.4006 35.0133 29.1447 34.6538C30.8888 34.2944 32.6921 34.3389 34.4163 34.7841V34.7841ZM31.4997 32.9583C26.6653 32.9583 22.7497 29.0427 22.7497 24.2083C22.7497 19.3739 26.6653 15.4583 31.4997 15.4583C36.334 15.4583 40.2497 19.3739 40.2497 24.2083C40.2497 29.0427 36.334 32.9583 31.4997 32.9583ZM43.1663 38.7916H47.5413V41.7083H43.1663V46.8125L35.8747 40.25L43.1663 33.6875V38.7916Z" fill="#0088DC"/>
</svg>
