<svg width="116" height="20" viewBox="0 0 116 20" fill="none" xmlns="http://www.w3.org/2000/svg">
<path d="M10.0001 15.2166L4.12259 18.5066L5.43509 11.9L0.489258 7.32663L7.17843 6.53329L10.0001 0.416626L12.8218 6.53329L19.5109 7.32663L14.5651 11.9L15.8776 18.5066L10.0001 15.2166Z" fill="#0088DC"/>
<path d="M34.0001 15.2166L28.1226 18.5066L29.4351 11.9L24.4893 7.32663L31.1784 6.53329L34.0001 0.416626L36.8218 6.53329L43.5109 7.32663L38.5651 11.9L39.8776 18.5066L34.0001 15.2166Z" fill="#0088DC"/>
<path d="M58.0001 15.2166L52.1226 18.5066L53.4351 11.9L48.4893 7.32663L55.1784 6.53329L58.0001 0.416626L60.8218 6.53329L67.5109 7.32663L62.5651 11.9L63.8776 18.5066L58.0001 15.2166Z" fill="#0088DC"/>
<path d="M82.0001 15.2166L76.1226 18.5066L77.4351 11.9L72.4893 7.32663L79.1784 6.53329L82.0001 0.416626L84.8218 6.53329L91.5109 7.32663L86.5651 11.9L87.8776 18.5066L82.0001 15.2166Z" fill="#0088DC"/>
<path d="M106 15.2166L100.123 18.5066L101.435 11.9L96.4893 7.32663L103.178 6.53329L106 0.416626L108.822 6.53329L115.511 7.32663L110.565 11.9L111.878 18.5066L106 15.2166Z" fill="#0088DC"/>
</svg>
