<svg width="62" height="64" viewBox="0 0 62 64" fill="none" xmlns="http://www.w3.org/2000/svg">
<ellipse cx="31" cy="32" rx="31" ry="32" fill="#F1F6FA"/>
<path d="M22.2503 36.4375C21.1831 36.4375 20.1399 36.121 19.2526 35.5281C18.3652 34.9352 17.6736 34.0925 17.2652 33.1065C16.8568 32.1206 16.75 31.0357 16.9582 29.989C17.1664 28.9423 17.6803 27.9808 18.4349 27.2262C19.1895 26.4716 20.151 25.9577 21.1977 25.7495C22.2443 25.5413 23.3293 25.6482 24.3153 26.0565C25.3012 26.4649 26.1439 27.1565 26.7368 28.0439C27.3297 28.9312 27.6462 29.9745 27.6462 31.0416C27.6445 32.4722 27.0754 33.8436 26.0639 34.8552C25.0523 35.8667 23.6809 36.4358 22.2503 36.4375Z" fill="#0088DC" fill-opacity="0.4"/>
<path d="M26.3208 34.544C25.8212 35.1371 25.1981 35.6139 24.495 35.9409C23.7919 36.268 23.0258 36.4374 22.2503 36.4374C21.4749 36.4374 20.7088 36.268 20.0057 35.9409C19.3026 35.6139 18.6795 35.1371 18.1799 34.544C17.0699 35.2322 16.1535 36.1918 15.517 37.3322C14.8805 38.4727 14.5449 39.7564 14.542 41.0625C14.542 41.4714 14.7044 41.8635 14.9935 42.1526C15.2827 42.4417 15.6748 42.6041 16.0837 42.6041H28.417C28.8259 42.6041 29.218 42.4417 29.5071 42.1526C29.7963 41.8635 29.9587 41.4714 29.9587 41.0625C29.9557 39.7564 29.6202 38.4727 28.9837 37.3322C28.3472 36.1918 27.4308 35.2322 26.3208 34.544ZM40.7504 36.4375C39.6832 36.4375 38.6399 36.121 37.7526 35.5281C36.8653 34.9352 36.1737 34.0925 35.7653 33.1065C35.3569 32.1206 35.25 31.0357 35.4582 29.989C35.6664 28.9423 36.1803 27.9808 36.9349 27.2262C37.6895 26.4716 38.651 25.9577 39.6977 25.7495C40.7444 25.5413 41.8293 25.6482 42.8153 26.0565C43.8012 26.4649 44.6439 27.1565 45.2368 28.0439C45.8297 28.9312 46.1462 29.9745 46.1462 31.0416C46.1445 32.4722 45.5754 33.8436 44.5639 34.8552C43.5523 35.8667 42.1809 36.4358 40.7504 36.4375Z" fill="#0088DC" fill-opacity="0.6"/>
<path d="M44.8208 34.544C44.3212 35.1371 43.6981 35.6139 42.995 35.9409C42.2919 36.268 41.5258 36.4375 40.7504 36.4375C39.9749 36.4375 39.2089 36.268 38.5058 35.9409C37.8027 35.6139 37.1795 35.1371 36.68 34.544C35.57 35.2322 34.6535 36.1918 34.017 37.3322C33.3805 38.4727 33.045 39.7565 33.042 41.0625C33.042 41.4714 33.2045 41.8635 33.4936 42.1526C33.7827 42.4417 34.1748 42.6042 34.5837 42.6042H46.917C47.3259 42.6042 47.7181 42.4417 48.0072 42.1526C48.2963 41.8635 48.4587 41.4714 48.4587 41.0625C48.4558 39.7565 48.1202 38.4727 47.4837 37.3322C46.8473 36.1918 45.9308 35.2322 44.8208 34.544Z" fill="#0088DC" fill-opacity="0.8"/>
<path d="M39.5271 19.9308L36.4437 16.8475C36.1538 16.5627 35.7631 16.404 35.3567 16.4059C34.9503 16.4077 34.561 16.57 34.2736 16.8573C33.9863 17.1447 33.824 17.5339 33.8222 17.9404C33.8203 18.3468 33.979 18.7375 34.2638 19.0274L34.7155 19.4791H28.2838L28.7355 19.0274C29.0216 18.7377 29.1814 18.3466 29.1801 17.9394C29.1788 17.5323 29.0165 17.1422 28.7286 16.8543C28.4407 16.5664 28.0506 16.4041 27.6434 16.4028C27.2363 16.4016 26.8452 16.5614 26.5555 16.8475L23.4721 19.9308C23.329 20.074 23.2154 20.2439 23.1379 20.4309C23.0604 20.6179 23.0205 20.8184 23.0205 21.0208C23.0205 21.2233 23.0604 21.4238 23.1379 21.6108C23.2154 21.7978 23.329 21.9677 23.4721 22.1109L26.5555 25.1942C26.8452 25.4803 27.2363 25.6401 27.6435 25.6388C28.0506 25.6375 28.4407 25.4752 28.7286 25.1873C29.0165 24.8994 29.1788 24.5093 29.1801 24.1021C29.1813 23.695 29.0215 23.3039 28.7354 23.0142L28.2837 22.5625H34.7153L34.2636 23.0142C33.9745 23.3033 33.8122 23.6954 33.8122 24.1042C33.8122 24.513 33.9746 24.9051 34.2637 25.1942C34.5528 25.4833 34.9449 25.6457 35.3537 25.6456C35.7626 25.6456 36.1547 25.4832 36.4437 25.1941L39.5271 22.1108C39.6702 21.9676 39.7838 21.7977 39.8613 21.6107C39.9388 21.4237 39.9787 21.2232 39.9787 21.0208C39.9787 20.8184 39.9388 20.6179 39.8613 20.4309C39.7838 20.2439 39.6702 20.074 39.5271 19.9308Z" fill="#0088DC" fill-opacity="0.2"/>
</svg>
