<svg width="64" height="64" viewBox="0 0 64 64" fill="none" xmlns="http://www.w3.org/2000/svg">
<circle cx="32" cy="32" r="32" fill="#F1F6FA"/>
<g clip-path="url(#clip0_208_120)">
<path d="M39.3438 36.0421L35.6037 39.481C33.6806 41.1575 31.4211 42.4032 28.9769 43.1346L29.9693 47.7645C30.02 48.0009 30.1256 48.222 30.2775 48.4101C30.4294 48.5982 30.6235 48.7479 30.8439 48.8472C31.0644 48.9465 31.3051 48.9925 31.5466 48.9816C31.7881 48.9707 32.0237 48.9032 32.2344 48.7845L38.255 45.3887C39.1024 44.8739 39.7643 44.1031 40.1453 43.1877C40.5263 42.2723 40.6066 41.2596 40.3748 40.2955L39.3438 36.0421ZM23.2011 27.0295L26.4212 23.2064L22.4054 22.2374C21.4292 21.897 20.3627 21.9214 19.403 22.306C18.4433 22.6907 17.6552 23.4096 17.1843 24.3301L13.7923 30.3424C13.6734 30.553 13.6058 30.7886 13.5948 31.0302C13.5839 31.2718 13.6299 31.5125 13.7292 31.733C13.8285 31.9535 13.9783 32.1475 14.1664 32.2994C14.3546 32.4513 14.5758 32.5569 14.8123 32.6074L19.5494 33.6229C20.3348 31.2122 21.5743 28.9742 23.2011 27.0295V27.0295ZM37.7978 27.0918C38.2552 27.0918 38.7023 26.9561 39.0825 26.702C39.4628 26.4479 39.7592 26.0868 39.9343 25.6642C40.1093 25.2417 40.1551 24.7767 40.0659 24.3281C39.9766 23.8795 39.7564 23.4675 39.433 23.1441C39.1096 22.8207 38.6975 22.6004 38.2489 22.5112C37.8003 22.422 37.3354 22.4678 36.9128 22.6428C36.4903 22.8178 36.1291 23.1142 35.875 23.4945C35.6209 23.8748 35.4853 24.3219 35.4853 24.7793C35.4855 25.3925 35.7292 25.9806 36.1628 26.4142C36.5965 26.8478 37.1845 27.0915 37.7978 27.0918V27.0918Z" fill="#0088DC"/>
<path d="M46.8433 16.6789C46.7737 16.4149 46.6353 16.174 46.4422 15.9809C46.2491 15.7878 46.0083 15.6494 45.7442 15.5799C42.5817 14.7578 39.2513 14.846 36.1367 15.8342C33.0221 16.8224 30.2501 18.6704 28.14 21.1654L23.2011 27.0295C20.7338 29.9723 19.1686 33.5648 18.6936 37.3755C18.6631 37.6097 18.6868 37.8478 18.7629 38.0713C18.839 38.2949 18.9654 38.498 19.1324 38.665L23.9117 43.4443C24.0548 43.5875 24.2247 43.7011 24.4118 43.7786C24.5988 43.8561 24.7992 43.896 25.0017 43.896C25.0461 43.896 25.0905 43.8938 25.1357 43.89C29.0049 43.5703 32.6716 42.0259 35.6036 39.481L41.2509 34.2885C43.7547 32.1839 45.6095 29.4117 46.5995 26.2943C47.5895 23.1769 47.6741 19.8425 46.8433 16.6789V16.6789ZM37.7977 27.0917C37.3404 27.0917 36.8933 26.956 36.513 26.7019C36.1327 26.4478 35.8363 26.0867 35.6613 25.6641C35.4862 25.2416 35.4404 24.7766 35.5297 24.328C35.6189 23.8794 35.8391 23.4674 36.1625 23.144C36.486 22.8206 36.898 22.6003 37.3466 22.5111C37.7952 22.4219 38.2601 22.4677 38.6827 22.6427C39.1052 22.8177 39.4664 23.1141 39.7205 23.4944C39.9746 23.8747 40.1102 24.3218 40.1102 24.7792C40.11 25.3924 39.8663 25.9805 39.4327 26.4141C38.999 26.8477 38.411 27.0914 37.7977 27.0917V27.0917Z" fill="#0088DC" fill-opacity="0.4"/>
</g>
<defs>
<clipPath id="clip0_208_120">
<rect x="12" y="14" width="37" height="36" rx="8" fill="white"/>
</clipPath>
</defs>
</svg>
