<svg width="32" height="18" viewBox="0 0 32 18" fill="none" xmlns="http://www.w3.org/2000/svg">
<path d="M15.1165 0.545454V18H11.929L4.33523 7.0142H4.20739V18H0.517045V0.545454H3.75568L11.2898 11.5227H11.4432V0.545454H15.1165Z" fill="black"/>
<path d="M18.1655 18V0.545454H25.1541C26.4382 0.545454 27.5092 0.735795 28.3672 1.11648C29.2251 1.49716 29.87 2.02557 30.3018 2.7017C30.7337 3.37216 30.9496 4.14489 30.9496 5.01989C30.9496 5.7017 30.8132 6.30114 30.5405 6.81818C30.2678 7.32955 29.8928 7.75 29.4155 8.07955C28.9439 8.40341 28.4041 8.63352 27.7962 8.76989V8.94034C28.4609 8.96875 29.0831 9.15625 29.6626 9.50284C30.2479 9.84943 30.7223 10.3352 31.0859 10.9602C31.4496 11.5795 31.6314 12.3182 31.6314 13.1761C31.6314 14.1023 31.4013 14.929 30.9411 15.6562C30.4865 16.3778 29.8132 16.9489 28.9212 17.3693C28.0291 17.7898 26.9297 18 25.6229 18H18.1655ZM21.8558 14.983H24.8643C25.8928 14.983 26.6428 14.7869 27.1143 14.3949C27.5859 13.9972 27.8217 13.4687 27.8217 12.8097C27.8217 12.3267 27.7053 11.9006 27.4723 11.5312C27.2393 11.1619 26.907 10.8722 26.4751 10.6619C26.049 10.4517 25.5405 10.3466 24.9496 10.3466H21.8558V14.983ZM21.8558 7.84943H24.5916C25.0973 7.84943 25.5462 7.76136 25.9382 7.58523C26.3359 7.40341 26.6484 7.14773 26.8757 6.81818C27.1087 6.48864 27.2251 6.09375 27.2251 5.63352C27.2251 5.00284 27.0007 4.49432 26.5518 4.10795C26.1087 3.72159 25.478 3.52841 24.6598 3.52841H21.8558V7.84943Z" fill="#0088DC"/>
</svg>
