<svg width="105" height="19" viewBox="0 0 105 19" fill="none" xmlns="http://www.w3.org/2000/svg">
<path d="M15.1165 0.545454V18H11.929L4.33523 7.0142H4.20739V18H0.517045V0.545454H3.75568L11.2898 11.5227H11.4432V0.545454H15.1165ZM24.0632 18.2557C22.7166 18.2557 21.5575 17.983 20.5859 17.4375C19.62 16.8864 18.8757 16.108 18.353 15.1023C17.8303 14.0909 17.5689 12.8949 17.5689 11.5142C17.5689 10.1676 17.8303 8.9858 18.353 7.96875C18.8757 6.9517 19.6115 6.15909 20.5604 5.59091C21.5149 5.02273 22.6342 4.73864 23.9183 4.73864C24.782 4.73864 25.5859 4.87784 26.3303 5.15625C27.0803 5.42898 27.7337 5.84091 28.2905 6.39205C28.853 6.94318 29.2905 7.63636 29.603 8.47159C29.9155 9.30114 30.0717 10.2727 30.0717 11.3864V12.3835H19.0178V10.1335H26.6541C26.6541 9.6108 26.5405 9.14773 26.3132 8.74432C26.0859 8.34091 25.7706 8.02557 25.3672 7.7983C24.9695 7.56534 24.5064 7.44886 23.978 7.44886C23.4268 7.44886 22.9382 7.5767 22.5121 7.83239C22.0916 8.08239 21.7621 8.42045 21.5234 8.84659C21.2848 9.26705 21.1626 9.7358 21.157 10.2528V12.392C21.157 13.0398 21.2763 13.5994 21.5149 14.071C21.7592 14.5426 22.103 14.9062 22.5462 15.1619C22.9893 15.4176 23.5149 15.5455 24.1229 15.5455C24.5263 15.5455 24.8956 15.4886 25.2308 15.375C25.5661 15.2614 25.853 15.0909 26.0916 14.8636C26.3303 14.6364 26.5121 14.358 26.6371 14.0284L29.995 14.25C29.8246 15.0568 29.4751 15.7614 28.9467 16.3636C28.424 16.9602 27.7479 17.4261 26.9183 17.7614C26.0945 18.0909 25.1428 18.2557 24.0632 18.2557ZM38.3558 18.2557C37.032 18.2557 35.8871 17.9744 34.9212 17.4119C33.9609 16.8437 33.2195 16.054 32.6967 15.0426C32.174 14.0256 31.9126 12.8466 31.9126 11.5057C31.9126 10.1534 32.174 8.97159 32.6967 7.96023C33.2195 6.94318 33.9609 6.15341 34.9212 5.59091C35.8871 5.02273 37.032 4.73864 38.3558 4.73864C39.6797 4.73864 40.8217 5.02273 41.782 5.59091C42.7479 6.15341 43.4922 6.94318 44.0149 7.96023C44.5376 8.97159 44.799 10.1534 44.799 11.5057C44.799 12.8466 44.5376 14.0256 44.0149 15.0426C43.4922 16.054 42.7479 16.8437 41.782 17.4119C40.8217 17.9744 39.6797 18.2557 38.3558 18.2557ZM38.3729 15.4432C38.9751 15.4432 39.478 15.2727 39.8814 14.9318C40.2848 14.5852 40.5888 14.1136 40.7933 13.517C41.0036 12.9205 41.1087 12.2415 41.1087 11.4801C41.1087 10.7188 41.0036 10.0398 40.7933 9.44318C40.5888 8.84659 40.2848 8.375 39.8814 8.02841C39.478 7.68182 38.9751 7.50852 38.3729 7.50852C37.7649 7.50852 37.2536 7.68182 36.8388 8.02841C36.4297 8.375 36.12 8.84659 35.9098 9.44318C35.7053 10.0398 35.603 10.7188 35.603 11.4801C35.603 12.2415 35.7053 12.9205 35.9098 13.517C36.12 14.1136 36.4297 14.5852 36.8388 14.9318C37.2536 15.2727 37.7649 15.4432 38.3729 15.4432Z" fill="black"/>
<path d="M47.228 18V0.545454H54.2166C55.5007 0.545454 56.5717 0.735795 57.4297 1.11648C58.2876 1.49716 58.9325 2.02557 59.3643 2.7017C59.7962 3.37216 60.0121 4.14489 60.0121 5.01989C60.0121 5.7017 59.8757 6.30114 59.603 6.81818C59.3303 7.32955 58.9553 7.75 58.478 8.07955C58.0064 8.40341 57.4666 8.63352 56.8587 8.76989V8.94034C57.5234 8.96875 58.1456 9.15625 58.7251 9.50284C59.3104 9.84943 59.7848 10.3352 60.1484 10.9602C60.5121 11.5795 60.6939 12.3182 60.6939 13.1761C60.6939 14.1023 60.4638 14.929 60.0036 15.6562C59.549 16.3778 58.8757 16.9489 57.9837 17.3693C57.0916 17.7898 55.9922 18 54.6854 18H47.228ZM50.9183 14.983H53.9268C54.9553 14.983 55.7053 14.7869 56.1768 14.3949C56.6484 13.9972 56.8842 13.4687 56.8842 12.8097C56.8842 12.3267 56.7678 11.9006 56.5348 11.5312C56.3018 11.1619 55.9695 10.8722 55.5376 10.6619C55.1115 10.4517 54.603 10.3466 54.0121 10.3466H50.9183V14.983ZM50.9183 7.84943H53.6541C54.1598 7.84943 54.6087 7.76136 55.0007 7.58523C55.3984 7.40341 55.7109 7.14773 55.9382 6.81818C56.1712 6.48864 56.2876 6.09375 56.2876 5.63352C56.2876 5.00284 56.0632 4.49432 55.6143 4.10795C55.1712 3.72159 54.5405 3.52841 53.7223 3.52841H50.9183V7.84943ZM66.7599 18.2472C65.9247 18.2472 65.1804 18.1023 64.527 17.8125C63.8736 17.517 63.3565 17.0824 62.9759 16.5085C62.6009 15.929 62.4134 15.2074 62.4134 14.3438C62.4134 13.6165 62.5469 13.0057 62.8139 12.5114C63.081 12.017 63.4446 11.6193 63.9048 11.3182C64.3651 11.017 64.8878 10.7898 65.473 10.6364C66.0639 10.483 66.6832 10.375 67.331 10.3125C68.0923 10.233 68.706 10.1591 69.1719 10.0909C69.6378 10.017 69.9759 9.90909 70.1861 9.76705C70.3963 9.625 70.5014 9.41477 70.5014 9.13636V9.08523C70.5014 8.54545 70.331 8.12784 69.9901 7.83239C69.6548 7.53693 69.1776 7.3892 68.5582 7.3892C67.9048 7.3892 67.3849 7.53409 66.9986 7.82386C66.6122 8.10795 66.3565 8.46591 66.2315 8.89773L62.8736 8.625C63.044 7.82955 63.3793 7.14205 63.8793 6.5625C64.3793 5.97727 65.0241 5.52841 65.8139 5.21591C66.6094 4.89773 67.5298 4.73864 68.5753 4.73864C69.3026 4.73864 69.9986 4.82386 70.6634 4.99432C71.3338 5.16477 71.9276 5.42898 72.4446 5.78693C72.9673 6.14489 73.3793 6.60511 73.6804 7.16761C73.9815 7.72443 74.1321 8.39205 74.1321 9.17045V18H70.6889V16.1847H70.5866C70.3764 16.5938 70.0952 16.9545 69.7429 17.267C69.3906 17.5739 68.9673 17.8153 68.473 17.9915C67.9787 18.1619 67.4077 18.2472 66.7599 18.2472ZM67.7997 15.7415C68.3338 15.7415 68.8054 15.6364 69.2145 15.4261C69.6236 15.2102 69.9446 14.9205 70.1776 14.5568C70.4105 14.1932 70.527 13.7812 70.527 13.321V11.9318C70.4134 12.0057 70.2571 12.0739 70.0582 12.1364C69.8651 12.1932 69.6463 12.2472 69.402 12.2983C69.1577 12.3437 68.9134 12.3864 68.669 12.4261C68.4247 12.4602 68.2031 12.4915 68.0043 12.5199C67.5781 12.5824 67.206 12.6818 66.8878 12.8182C66.5696 12.9545 66.3224 13.1392 66.1463 13.3722C65.9702 13.5994 65.8821 13.8835 65.8821 14.2244C65.8821 14.7188 66.0611 15.0966 66.419 15.358C66.7827 15.6136 67.2429 15.7415 67.7997 15.7415ZM80.5795 10.4318V18H76.9489V4.90909H80.4091V7.21875H80.5625C80.8523 6.45739 81.3381 5.85511 82.0199 5.41193C82.7017 4.96307 83.5284 4.73864 84.5 4.73864C85.4091 4.73864 86.2017 4.9375 86.8778 5.33523C87.554 5.73295 88.0795 6.30114 88.4545 7.03977C88.8295 7.77273 89.017 8.64773 89.017 9.66477V18H85.3864V10.3125C85.392 9.51136 85.1875 8.88636 84.7727 8.4375C84.358 7.98295 83.7869 7.75568 83.0597 7.75568C82.571 7.75568 82.1392 7.8608 81.7642 8.07102C81.3949 8.28125 81.1051 8.58807 80.8949 8.99148C80.6903 9.3892 80.5852 9.86932 80.5795 10.4318ZM95.1683 14.233L95.1768 9.87784H95.7053L99.8984 4.90909H104.066L98.4325 11.4886H97.5717L95.1683 14.233ZM91.8786 18V0.545454H95.5092V18H91.8786ZM100.06 18L96.2081 12.2983L98.6286 9.73295L104.313 18H100.06Z" fill="#0088DC"/>
</svg>
