<svg width="40" height="40" viewBox="0 0 40 40" fill="none" xmlns="http://www.w3.org/2000/svg">
<rect width="40" height="40" rx="20" fill="white" fill-opacity="0.2"/>
<path d="M28.25 24.0517V27.293C28.2501 27.5251 28.1622 27.7486 28.004 27.9183C27.8457 28.0881 27.629 28.1916 27.3975 28.2078C26.9969 28.2353 26.6697 28.25 26.4167 28.25C18.3161 28.25 11.75 21.6839 11.75 13.5833C11.75 13.3303 11.7638 13.0031 11.7922 12.6025C11.8084 12.371 11.9119 12.1543 12.0817 11.996C12.2514 11.8378 12.4749 11.7499 12.707 11.75H15.9483C16.062 11.7499 16.1717 11.792 16.2561 11.8683C16.3404 11.9445 16.3935 12.0494 16.4048 12.1625C16.4259 12.3733 16.4452 12.5411 16.4635 12.6685C16.6457 13.9398 17.019 15.1763 17.5708 16.3361C17.6579 16.5194 17.6011 16.7385 17.4361 16.8558L15.4579 18.2693C16.6674 21.0876 18.9133 23.3335 21.7316 24.543L23.1432 22.5685C23.201 22.4878 23.2851 22.43 23.3811 22.405C23.4771 22.3801 23.5788 22.3896 23.6685 22.4319C24.8281 22.9827 26.0643 23.3551 27.3352 23.5365C27.4626 23.5548 27.6303 23.575 27.8393 23.5952C27.9523 23.6067 28.0569 23.6599 28.133 23.7442C28.209 23.8285 28.2511 23.9381 28.2509 24.0517H28.25Z" fill="white"/>
</svg>
