<svg width="50" height="51" viewBox="0 0 50 51" fill="none" xmlns="http://www.w3.org/2000/svg">
<rect y="0.5" width="50" height="50" rx="25" fill="#F1F6FA"/>
<path d="M25 40C17.2678 40 11 33.7322 11 26C11 18.2678 17.2678 12 25 12C32.7322 12 39 18.2678 39 26C39 33.7322 32.7322 40 25 40ZM25 37.2C27.9704 37.2 30.8192 36.02 32.9196 33.9196C35.02 31.8192 36.2 28.9704 36.2 26C36.2 23.0296 35.02 20.1808 32.9196 18.0804C30.8192 15.98 27.9704 14.8 25 14.8C22.0296 14.8 19.1808 15.98 17.0804 18.0804C14.98 20.1808 13.8 23.0296 13.8 26C13.8 28.9704 14.98 31.8192 17.0804 33.9196C19.1808 36.02 22.0296 37.2 25 37.2ZM20.1 28.8H27.8C27.9857 28.8 28.1637 28.7262 28.295 28.595C28.4263 28.4637 28.5 28.2857 28.5 28.1C28.5 27.9143 28.4263 27.7363 28.295 27.605C28.1637 27.4737 27.9857 27.4 27.8 27.4H22.2C21.2717 27.4 20.3815 27.0313 19.7251 26.3749C19.0687 25.7185 18.7 24.8283 18.7 23.9C18.7 22.9717 19.0687 22.0815 19.7251 21.4251C20.3815 20.7687 21.2717 20.4 22.2 20.4H23.6V17.6H26.4V20.4H29.9V23.2H22.2C22.0143 23.2 21.8363 23.2737 21.705 23.405C21.5737 23.5363 21.5 23.7143 21.5 23.9C21.5 24.0857 21.5737 24.2637 21.705 24.395C21.8363 24.5263 22.0143 24.6 22.2 24.6H27.8C28.7283 24.6 29.6185 24.9687 30.2749 25.6251C30.9313 26.2815 31.3 27.1717 31.3 28.1C31.3 29.0283 30.9313 29.9185 30.2749 30.5749C29.6185 31.2313 28.7283 31.6 27.8 31.6H26.4V34.4H23.6V31.6H20.1V28.8Z" fill="#0088DC"/>
</svg>
