<svg width="64" height="64" viewBox="0 0 64 64" fill="none" xmlns="http://www.w3.org/2000/svg">
<rect width="64" height="64" rx="32" fill="#F1F6FA"/>
<path d="M23.5 17.5V45.5H41V17.5H23.5ZM21.75 14H42.75C43.2141 14 43.6592 14.1844 43.9874 14.5126C44.3156 14.8408 44.5 15.2859 44.5 15.75V47.25C44.5 47.7141 44.3156 48.1592 43.9874 48.4874C43.6592 48.8156 43.2141 49 42.75 49H21.75C21.2859 49 20.8408 48.8156 20.5126 48.4874C20.1844 48.1592 20 47.7141 20 47.25V15.75C20 15.2859 20.1844 14.8408 20.5126 14.5126C20.8408 14.1844 21.2859 14 21.75 14ZM32.25 40.25C32.7141 40.25 33.1592 40.4344 33.4874 40.7626C33.8156 41.0908 34 41.5359 34 42C34 42.4641 33.8156 42.9092 33.4874 43.2374C33.1592 43.5656 32.7141 43.75 32.25 43.75C31.7859 43.75 31.3408 43.5656 31.0126 43.2374C30.6844 42.9092 30.5 42.4641 30.5 42C30.5 41.5359 30.6844 41.0908 31.0126 40.7626C31.3408 40.4344 31.7859 40.25 32.25 40.25V40.25Z" fill="#0088DC"/>
</svg>
