<svg width="64" height="64" viewBox="0 0 64 64" fill="none" xmlns="http://www.w3.org/2000/svg">
<circle cx="32" cy="32" r="32" fill="#F1F6FA"/>
<path d="M32 48C23.1632 48 16 40.8368 16 32C16 23.1632 23.1632 16 32 16C40.8368 16 48 23.1632 48 32C48 40.8368 40.8368 48 32 48ZM32 44.8C35.3948 44.8 38.6505 43.4514 41.051 41.051C43.4514 38.6505 44.8 35.3948 44.8 32C44.8 28.6052 43.4514 25.3495 41.051 22.949C38.6505 20.5486 35.3948 19.2 32 19.2C28.6052 19.2 25.3495 20.5486 22.949 22.949C20.5486 25.3495 19.2 28.6052 19.2 32C19.2 35.3948 20.5486 38.6505 22.949 41.051C25.3495 43.4514 28.6052 44.8 32 44.8ZM26.4 35.2H35.2C35.4122 35.2 35.6157 35.1157 35.7657 34.9657C35.9157 34.8157 36 34.6122 36 34.4C36 34.1878 35.9157 33.9843 35.7657 33.8343C35.6157 33.6843 35.4122 33.6 35.2 33.6H28.8C27.7391 33.6 26.7217 33.1786 25.9716 32.4284C25.2214 31.6783 24.8 30.6609 24.8 29.6C24.8 28.5391 25.2214 27.5217 25.9716 26.7716C26.7217 26.0214 27.7391 25.6 28.8 25.6H30.4V22.4H33.6V25.6H37.6V28.8H28.8C28.5878 28.8 28.3843 28.8843 28.2343 29.0343C28.0843 29.1843 28 29.3878 28 29.6C28 29.8122 28.0843 30.0157 28.2343 30.1657C28.3843 30.3157 28.5878 30.4 28.8 30.4H35.2C36.2609 30.4 37.2783 30.8214 38.0284 31.5716C38.7786 32.3217 39.2 33.3391 39.2 34.4C39.2 35.4609 38.7786 36.4783 38.0284 37.2284C37.2783 37.9786 36.2609 38.4 35.2 38.4H33.6V41.6H30.4V38.4H26.4V35.2Z" fill="#0088DC"/>
</svg>
