<svg width="50" height="51" viewBox="0 0 50 51" fill="none" xmlns="http://www.w3.org/2000/svg">
<rect y="0.5" width="50" height="50" rx="25" fill="#F1F6FA"/>
<path d="M34.333 20.8333V17.3333H15.6663V20.8333H34.333ZM34.333 23.1667H15.6663V33.6667H34.333V23.1667ZM14.4997 15H35.4997C35.8091 15 36.1058 15.1229 36.3246 15.3417C36.5434 15.5605 36.6663 15.8572 36.6663 16.1667V34.8333C36.6663 35.1428 36.5434 35.4395 36.3246 35.6583C36.1058 35.8771 35.8091 36 35.4997 36H14.4997C14.1903 36 13.8935 35.8771 13.6747 35.6583C13.4559 35.4395 13.333 35.1428 13.333 34.8333V16.1667C13.333 15.8572 13.4559 15.5605 13.6747 15.3417C13.8935 15.1229 14.1903 15 14.4997 15ZM23.833 27.8333H30.833V30.1667H18.583L23.833 24.9167V27.8333Z" fill="#0088DC"/>
</svg>
