<svg width="434" height="124" viewBox="0 0 434 124" fill="none" xmlns="http://www.w3.org/2000/svg">
<rect width="432.753" height="123" rx="10" fill="#F1F6FA"/>
<path d="M23.6608 33.2394C22.2643 33.2394 21.0607 32.9401 20.0499 32.3416C19.0391 31.7298 18.261 30.8853 17.7157 29.808C17.1704 28.7174 16.8978 27.4605 16.8978 26.0374C16.8978 24.6143 17.1704 23.3574 17.7157 22.2668C18.261 21.1762 19.0391 20.325 20.0499 19.7132C21.0607 19.1014 22.2643 18.7955 23.6608 18.7955C25.3633 18.7955 26.7531 19.2145 27.8304 20.0524C28.9077 20.8903 29.5794 22.074 29.8454 23.6035H26.8928C26.7199 22.8587 26.3608 22.2801 25.8155 21.8678C25.2702 21.4422 24.5453 21.2294 23.6409 21.2294C22.803 21.2294 22.0848 21.4289 21.4863 21.8279C20.8878 22.2136 20.4289 22.7656 20.1097 23.4838C19.8038 24.1887 19.6509 25.0399 19.6509 26.0374C19.6509 27.0216 19.8038 27.8728 20.1097 28.591C20.4289 29.3092 20.8878 29.8612 21.4863 30.2469C22.0848 30.6326 22.803 30.8254 23.6409 30.8254C24.5453 30.8254 25.2702 30.6326 25.8155 30.2469C26.3608 29.8479 26.7199 29.2959 26.8928 28.591H29.8454C29.5794 30.0407 28.9077 31.1779 27.8304 32.0025C26.7531 32.8271 25.3633 33.2394 23.6608 33.2394ZM31.5064 33V19.0349H36.2944C37.917 19.0349 39.2537 19.3275 40.3044 19.9127C41.3684 20.4846 42.1531 21.2959 42.6585 22.3466C43.1772 23.384 43.4366 24.6076 43.4366 26.0175C43.4366 27.4273 43.1772 28.6575 42.6585 29.7082C42.1531 30.7456 41.3684 31.5569 40.3044 32.1421C39.2537 32.714 37.9104 33 36.2745 33H31.5064ZM34.1997 30.6858H36.1348C37.2786 30.6858 38.183 30.4996 38.848 30.1272C39.513 29.7548 39.9852 29.2228 40.2645 28.5312C40.5438 27.8263 40.6834 26.9884 40.6834 26.0175C40.6834 25.0332 40.5438 24.1953 40.2645 23.5037C39.9852 22.7988 39.513 22.2602 38.848 21.8878C38.183 21.5154 37.2786 21.3292 36.1348 21.3292H34.1997V30.6858ZM45.0912 33V19.0349H50.8169C51.7878 19.0349 52.5991 19.1879 53.2508 19.4938C53.9158 19.7997 54.4212 20.2253 54.767 20.7706C55.1128 21.3026 55.2857 21.921 55.2857 22.6259C55.2857 23.3308 55.1327 23.9227 54.8268 24.4015C54.5209 24.8803 54.1153 25.2527 53.6099 25.5187C53.1178 25.7714 52.5725 25.9177 51.974 25.9576L52.2932 25.7382C52.9316 25.7648 53.4968 25.9377 53.9889 26.2569C54.4943 26.5628 54.8867 26.9751 55.166 27.4938C55.4586 28.0125 55.6049 28.5777 55.6049 29.1895C55.6049 29.9343 55.4253 30.5927 55.0662 31.1646C54.7071 31.7365 54.1818 32.1887 53.4902 32.5212C52.8119 32.8404 51.9806 33 50.9964 33H45.0912ZM47.7844 30.8055H50.5775C51.309 30.8055 51.8742 30.6392 52.2732 30.3067C52.6722 29.9742 52.8717 29.4954 52.8717 28.8703C52.8717 28.2452 52.6656 27.7598 52.2533 27.414C51.841 27.0549 51.2691 26.8753 50.5376 26.8753H47.7844V30.8055ZM47.7844 24.8603H50.378C51.0829 24.8603 51.6149 24.7007 51.974 24.3815C52.3464 24.0623 52.5326 23.6101 52.5326 23.0249C52.5326 22.453 52.3464 22.0075 51.974 21.6883C51.6149 21.3558 51.0762 21.1895 50.358 21.1895H47.7844V24.8603ZM62.8886 33V22.1272L60.4945 22.7057V20.591L64.0257 19.0349H65.6816V33H62.8886ZM75.2336 33.2394C74.3957 33.2394 73.7041 33.1064 73.1588 32.8404C72.6135 32.5611 72.2079 32.1953 71.9419 31.7431C71.6759 31.2909 71.5429 30.7922 71.5429 30.2469C71.5429 29.6351 71.6958 29.0964 72.0017 28.6309C72.3209 28.1654 72.7997 27.8063 73.4381 27.5536C74.0765 27.2876 74.8745 27.1546 75.8321 27.1546H78.3259C78.3259 26.6625 78.2528 26.2635 78.1065 25.9576C77.9735 25.6384 77.7673 25.399 77.488 25.2394C77.2087 25.0798 76.8429 25 76.3907 25C75.8853 25 75.4464 25.1131 75.074 25.3392C74.7149 25.5653 74.4955 25.9044 74.4157 26.3566H71.8022C71.8687 25.6251 72.1081 25 72.5204 24.4813C72.9327 23.9493 73.4714 23.537 74.1364 23.2444C74.8147 22.9518 75.5728 22.8055 76.4107 22.8055C77.355 22.8055 78.1663 22.9651 78.8446 23.2843C79.5362 23.5902 80.0682 24.049 80.4406 24.6608C80.8263 25.2594 81.0192 25.9909 81.0192 26.8554V33H78.7449L78.4456 31.4638C78.2993 31.7298 78.1264 31.9692 77.9269 32.182C77.7274 32.3948 77.4946 32.581 77.2286 32.7406C76.9626 32.9002 76.6634 33.02 76.3309 33.0998C75.9984 33.1929 75.6326 33.2394 75.2336 33.2394ZM75.872 31.1646C76.2178 31.1646 76.5304 31.1047 76.8097 30.985C77.089 30.852 77.3217 30.6791 77.508 30.4663C77.7075 30.2402 77.8604 29.9875 77.9668 29.7082C78.0865 29.4289 78.1663 29.1297 78.2062 28.8105V28.7905H76.1314C75.7324 28.7905 75.3999 28.8437 75.1339 28.9501C74.8679 29.0565 74.675 29.2028 74.5553 29.389C74.4356 29.5619 74.3758 29.7681 74.3758 30.0075C74.3758 30.2602 74.4356 30.473 74.5553 30.6459C74.6883 30.8055 74.8612 30.9318 75.074 31.0249C75.3001 31.118 75.5661 31.1646 75.872 31.1646ZM82.8742 33V23.0449H85.2483L85.4478 24.7007C85.767 24.1288 86.2059 23.67 86.7645 23.3242C87.3364 22.9784 88.0214 22.8055 88.8194 22.8055C89.644 22.8055 90.3422 22.9784 90.9141 23.3242C91.486 23.67 91.9249 24.182 92.2308 24.8603C92.5367 25.5387 92.6897 26.3699 92.6897 27.3541V33H89.9964V27.5935C89.9964 26.7822 89.8302 26.1638 89.4977 25.7382C89.1652 25.2993 88.6398 25.0798 87.9216 25.0798C87.4694 25.0798 87.0637 25.1862 86.7046 25.399C86.3588 25.6118 86.0795 25.9244 85.8667 26.3367C85.6672 26.7357 85.5675 27.2211 85.5675 27.793V33H82.8742ZM99.3178 33.2394C98.3602 33.2394 97.4957 33.02 96.7243 32.581C95.9662 32.1288 95.361 31.5104 94.9088 30.7257C94.4566 29.941 94.2305 29.0432 94.2305 28.0324C94.2305 26.995 94.4566 26.084 94.9088 25.2993C95.361 24.5145 95.9728 23.9027 96.7442 23.4638C97.5156 23.0249 98.3735 22.8055 99.3178 22.8055C100.289 22.8055 101.16 23.0249 101.931 23.4638C102.703 23.9027 103.308 24.5145 103.747 25.2993C104.199 26.084 104.425 26.995 104.425 28.0324C104.425 29.0565 104.199 29.9609 103.747 30.7456C103.295 31.517 102.683 32.1288 101.911 32.581C101.14 33.02 100.275 33.2394 99.3178 33.2394ZM99.3178 30.9052C99.7567 30.9052 100.149 30.7988 100.495 30.586C100.854 30.3732 101.14 30.054 101.353 29.6284C101.566 29.1895 101.672 28.6509 101.672 28.0125C101.672 27.3741 101.566 26.8421 101.353 26.4165C101.14 25.9909 100.854 25.6717 100.495 25.4589C100.149 25.2461 99.7634 25.1397 99.3377 25.1397C98.9121 25.1397 98.5198 25.2461 98.1607 25.4589C97.8016 25.6717 97.5156 25.9909 97.3028 26.4165C97.09 26.8421 96.9836 27.3807 96.9836 28.0324C96.9836 28.6575 97.09 29.1895 97.3028 29.6284C97.5156 30.054 97.7949 30.3732 98.1407 30.586C98.4998 30.7988 98.8922 30.9052 99.3178 30.9052Z" fill="#1A191E"/>
<rect x="410" y="94" width="7" height="13" rx="3" fill="#9DA4AD"/>
<path d="M329.534 57.9432V69.5796H327.773V59.7046H327.705L324.92 61.5228V59.841L327.824 57.9432H329.534ZM336.253 69.7728C335.355 69.769 334.588 69.5322 333.952 69.0625C333.315 68.5928 332.829 67.9091 332.492 67.0114C332.154 66.1137 331.986 65.0322 331.986 63.7671C331.986 62.5057 332.154 61.4281 332.492 60.5341C332.833 59.6402 333.321 58.9584 333.957 58.4887C334.598 58.019 335.363 57.7841 336.253 57.7841C337.143 57.7841 337.906 58.0209 338.543 58.4944C339.179 58.9641 339.666 59.6459 340.003 60.5398C340.344 61.43 340.514 62.5057 340.514 63.7671C340.514 65.036 340.346 66.1194 340.009 67.0171C339.672 67.911 339.185 68.5947 338.548 69.0682C337.912 69.5379 337.147 69.7728 336.253 69.7728ZM336.253 68.2557C337.041 68.2557 337.656 67.8713 338.1 67.1023C338.547 66.3334 338.77 65.2216 338.77 63.7671C338.77 62.8012 338.668 61.9849 338.463 61.3182C338.262 60.6478 337.973 60.1402 337.594 59.7955C337.219 59.447 336.772 59.2728 336.253 59.2728C335.469 59.2728 334.853 59.6591 334.406 60.4319C333.959 61.2046 333.734 62.3163 333.73 63.7671C333.73 64.7368 333.831 65.5569 334.031 66.2273C334.236 66.894 334.526 67.3997 334.901 67.7444C335.276 68.0853 335.726 68.2557 336.253 68.2557ZM345.891 69.7387C345.179 69.7387 344.539 69.6023 343.97 69.3296C343.406 69.0531 342.955 68.6743 342.618 68.1932C342.281 67.7122 342.101 67.1629 342.078 66.5455H343.783C343.825 67.0455 344.046 67.4565 344.448 67.7785C344.849 68.1004 345.33 68.2614 345.891 68.2614C346.338 68.2614 346.734 68.1591 347.078 67.9546C347.427 67.7463 347.7 67.4603 347.897 67.0966C348.097 66.733 348.198 66.3182 348.198 65.8523C348.198 65.3788 348.095 64.9565 347.891 64.5853C347.686 64.2141 347.404 63.9224 347.044 63.7103C346.688 63.4982 346.279 63.3902 345.817 63.3864C345.465 63.3864 345.111 63.447 344.754 63.5682C344.398 63.6894 344.111 63.8485 343.891 64.0455L342.283 63.8069L342.936 57.9432H349.334V59.4489H344.397L344.027 62.7046H344.095C344.323 62.4849 344.624 62.3012 344.999 62.1535C345.378 62.0057 345.783 61.9319 346.215 61.9319C346.923 61.9319 347.554 62.1004 348.107 62.4375C348.664 62.7747 349.101 63.2349 349.419 63.8182C349.741 64.3978 349.9 65.0644 349.897 65.8182C349.9 66.572 349.73 67.2444 349.385 67.8353C349.044 68.4262 348.571 68.8921 347.965 69.233C347.362 69.5701 346.671 69.7387 345.891 69.7387ZM357.566 67.3978V66.7841C357.566 66.3447 357.657 65.9432 357.838 65.5796C358.024 65.2122 358.293 64.9186 358.645 64.6989C359.001 64.4754 359.431 64.3637 359.935 64.3637C360.45 64.3637 360.882 64.4735 361.23 64.6932C361.579 64.9129 361.842 65.2065 362.02 65.5739C362.202 65.9413 362.293 66.3447 362.293 66.7841V67.3978C362.293 67.8372 362.202 68.2406 362.02 68.608C361.838 68.9716 361.571 69.2652 361.219 69.4887C360.871 69.7084 360.443 69.8182 359.935 69.8182C359.424 69.8182 358.992 69.7084 358.64 69.4887C358.287 69.2652 358.02 68.9716 357.838 68.608C357.657 68.2406 357.566 67.8372 357.566 67.3978ZM358.89 66.7841V67.3978C358.89 67.7235 358.967 68.019 359.122 68.2841C359.278 68.5493 359.549 68.6819 359.935 68.6819C360.318 68.6819 360.585 68.5493 360.736 68.2841C360.888 68.019 360.963 67.7235 360.963 67.3978V66.7841C360.963 66.4584 360.89 66.1629 360.742 65.8978C360.598 65.6326 360.329 65.5 359.935 65.5C359.556 65.5 359.287 65.6326 359.128 65.8978C358.969 66.1629 358.89 66.4584 358.89 66.7841ZM351.713 60.7387V60.125C351.713 59.6856 351.804 59.2822 351.986 58.9148C352.172 58.5474 352.441 58.2538 352.793 58.0341C353.149 57.8144 353.579 57.7046 354.083 57.7046C354.598 57.7046 355.03 57.8144 355.378 58.0341C355.727 58.2538 355.99 58.5474 356.168 58.9148C356.346 59.2822 356.435 59.6856 356.435 60.125V60.7387C356.435 61.1781 356.344 61.5815 356.162 61.9489C355.984 62.3125 355.719 62.6061 355.367 62.8296C355.018 63.0493 354.59 63.1591 354.083 63.1591C353.568 63.1591 353.134 63.0493 352.782 62.8296C352.433 62.6061 352.168 62.3125 351.986 61.9489C351.804 61.5815 351.713 61.1781 351.713 60.7387ZM353.043 60.125V60.7387C353.043 61.0644 353.119 61.3599 353.27 61.625C353.426 61.8902 353.696 62.0228 354.083 62.0228C354.462 62.0228 354.727 61.8902 354.878 61.625C355.033 61.3599 355.111 61.0644 355.111 60.7387V60.125C355.111 59.7993 355.037 59.5038 354.89 59.2387C354.742 58.9735 354.473 58.841 354.083 58.841C353.704 58.841 353.435 58.9735 353.276 59.2387C353.121 59.5038 353.043 59.7993 353.043 60.125ZM352.253 69.5796L360.253 57.9432H361.611L353.611 69.5796H352.253ZM371.306 69.75C370.601 69.75 369.973 69.5701 369.42 69.2103C368.87 68.8466 368.439 68.3296 368.124 67.6591C367.814 66.9849 367.658 66.1762 367.658 65.233C367.658 64.2898 367.815 63.483 368.13 62.8125C368.448 62.1421 368.884 61.6288 369.437 61.2728C369.99 60.9167 370.617 60.7387 371.317 60.7387C371.859 60.7387 372.295 60.8296 372.624 61.0114C372.957 61.1894 373.215 61.3978 373.397 61.6364C373.582 61.875 373.726 62.0853 373.829 62.2671H373.931V57.9432H375.63V69.5796H373.971V68.2216H373.829C373.726 68.4072 373.579 68.6194 373.386 68.858C373.196 69.0966 372.935 69.305 372.601 69.483C372.268 69.661 371.836 69.75 371.306 69.75ZM371.681 68.3012C372.17 68.3012 372.582 68.1724 372.92 67.9148C373.261 67.6535 373.518 67.2917 373.692 66.8296C373.87 66.3675 373.959 65.8296 373.959 65.216C373.959 64.6099 373.872 64.0796 373.698 63.625C373.524 63.1705 373.268 62.8163 372.931 62.5625C372.594 62.3088 372.177 62.1819 371.681 62.1819C371.17 62.1819 370.743 62.3144 370.403 62.5796C370.062 62.8447 369.804 63.2065 369.63 63.6648C369.459 64.1232 369.374 64.6402 369.374 65.216C369.374 65.7993 369.461 66.3239 369.636 66.7898C369.81 67.2557 370.067 67.625 370.408 67.8978C370.753 68.1667 371.177 68.3012 371.681 68.3012ZM381.251 69.7557C380.432 69.7557 379.718 69.5682 379.109 69.1932C378.499 68.8182 378.025 68.2936 377.688 67.6194C377.351 66.9451 377.182 66.1572 377.182 65.2557C377.182 64.3504 377.351 63.5588 377.688 62.8807C378.025 62.2027 378.499 61.6762 379.109 61.3012C379.718 60.9262 380.432 60.7387 381.251 60.7387C382.069 60.7387 382.783 60.9262 383.393 61.3012C384.003 61.6762 384.476 62.2027 384.813 62.8807C385.15 63.5588 385.319 64.3504 385.319 65.2557C385.319 66.1572 385.15 66.9451 384.813 67.6194C384.476 68.2936 384.003 68.8182 383.393 69.1932C382.783 69.5682 382.069 69.7557 381.251 69.7557ZM381.256 68.3296C381.787 68.3296 382.226 68.1894 382.575 67.9091C382.923 67.6288 383.181 67.2557 383.347 66.7898C383.518 66.3239 383.603 65.8107 383.603 65.25C383.603 64.6932 383.518 64.1819 383.347 63.716C383.181 63.2463 382.923 62.8694 382.575 62.5853C382.226 62.3012 381.787 62.1591 381.256 62.1591C380.722 62.1591 380.279 62.3012 379.927 62.5853C379.578 62.8694 379.319 63.2463 379.148 63.716C378.982 64.1819 378.898 64.6932 378.898 65.25C378.898 65.8107 378.982 66.3239 379.148 66.7898C379.319 67.2557 379.578 67.6288 379.927 67.9091C380.279 68.1894 380.722 68.3296 381.256 68.3296ZM400.291 61.7273H398.518C398.45 61.3485 398.323 61.0152 398.137 60.7273C397.952 60.4394 397.724 60.1951 397.455 59.9944C397.187 59.7936 396.885 59.6421 396.552 59.5398C396.223 59.4375 395.872 59.3864 395.501 59.3864C394.83 59.3864 394.23 59.555 393.7 59.8921C393.173 60.2292 392.757 60.7235 392.45 61.375C392.147 62.0266 391.995 62.822 391.995 63.7614C391.995 64.7084 392.147 65.5076 392.45 66.1591C392.757 66.8107 393.175 67.3031 393.705 67.6364C394.236 67.9697 394.832 68.1364 395.495 68.1364C395.863 68.1364 396.211 68.0872 396.541 67.9887C396.874 67.8864 397.175 67.7368 397.444 67.5398C397.713 67.3428 397.94 67.1023 398.126 66.8182C398.315 66.5303 398.446 66.2008 398.518 65.8296L400.291 65.8353C400.196 66.4072 400.012 66.9338 399.74 67.4148C399.471 67.8921 399.124 68.305 398.7 68.6535C398.279 68.9982 397.798 69.2652 397.257 69.4546C396.715 69.644 396.124 69.7387 395.484 69.7387C394.476 69.7387 393.579 69.5 392.791 69.0228C392.003 68.5417 391.382 67.8542 390.927 66.9603C390.476 66.0663 390.251 65 390.251 63.7614C390.251 62.519 390.478 61.4527 390.933 60.5625C391.387 59.6686 392.008 58.983 392.796 58.5057C393.584 58.0247 394.48 57.7841 395.484 57.7841C396.101 57.7841 396.677 57.8732 397.211 58.0512C397.749 58.2254 398.232 58.483 398.66 58.8239C399.088 59.161 399.442 59.5739 399.723 60.0625C400.003 60.5474 400.192 61.1023 400.291 61.7273ZM405.679 69.5796H401.912V57.9432H405.798C406.938 57.9432 407.917 58.1762 408.735 58.6421C409.554 59.1042 410.18 59.769 410.616 60.6364C411.055 61.5 411.275 62.536 411.275 63.7444C411.275 64.9565 411.054 65.9982 410.61 66.8694C410.171 67.7406 409.535 68.411 408.701 68.8807C407.868 69.3466 406.86 69.5796 405.679 69.5796ZM403.667 68.0455H405.582C406.468 68.0455 407.205 67.8788 407.792 67.5455C408.379 67.2084 408.819 66.7216 409.11 66.0853C409.402 65.4451 409.548 64.6648 409.548 63.7444C409.548 62.8315 409.402 62.0569 409.11 61.4205C408.823 60.7841 408.393 60.3012 407.821 59.9716C407.249 59.6421 406.538 59.4773 405.69 59.4773H403.667V68.0455ZM414.734 57.9432V69.5796H412.978V57.9432H414.734Z" fill="black"/>
<path d="M17.2784 106.5V94.8636H21.4261C22.3277 94.8636 23.0758 95.0189 23.6705 95.3295C24.2689 95.6402 24.7159 96.0701 25.0114 96.6193C25.3068 97.1648 25.4545 97.7955 25.4545 98.5114C25.4545 99.2235 25.3049 99.8504 25.0057 100.392C24.7102 100.93 24.2633 101.348 23.6648 101.648C23.0701 101.947 22.322 102.097 21.4205 102.097H18.2784V100.585H21.2614C21.8295 100.585 22.2917 100.504 22.6477 100.341C23.0076 100.178 23.2708 99.9413 23.4375 99.6307C23.6042 99.3201 23.6875 98.947 23.6875 98.5114C23.6875 98.072 23.6023 97.6913 23.4318 97.3693C23.2652 97.0473 23.0019 96.8011 22.642 96.6307C22.286 96.4564 21.8182 96.3693 21.2386 96.3693H19.0341V106.5H17.2784ZM23.0227 101.25L25.8977 106.5H23.8977L21.0795 101.25H23.0227ZM27.4545 106.5V97.7727H29.1534V106.5H27.4545ZM28.3125 96.4261C28.017 96.4261 27.7633 96.3277 27.5511 96.1307C27.3428 95.9299 27.2386 95.6913 27.2386 95.4148C27.2386 95.1345 27.3428 94.8958 27.5511 94.6989C27.7633 94.4981 28.017 94.3977 28.3125 94.3977C28.608 94.3977 28.8598 94.4981 29.0682 94.6989C29.2803 94.8958 29.3864 95.1345 29.3864 95.4148C29.3864 95.6913 29.2803 95.9299 29.0682 96.1307C28.8598 96.3277 28.608 96.4261 28.3125 96.4261ZM37.9787 99.9034L36.4389 100.176C36.3745 99.9792 36.2723 99.7917 36.1321 99.6136C35.9957 99.4356 35.8101 99.2898 35.5753 99.1761C35.3404 99.0625 35.0469 99.0057 34.6946 99.0057C34.2135 99.0057 33.812 99.1136 33.4901 99.3295C33.1681 99.5417 33.0071 99.8163 33.0071 100.153C33.0071 100.445 33.1151 100.68 33.331 100.858C33.5469 101.036 33.8954 101.182 34.3764 101.295L35.7628 101.614C36.5658 101.799 37.1643 102.085 37.5582 102.472C37.9522 102.858 38.1491 103.36 38.1491 103.977C38.1491 104.5 37.9976 104.966 37.6946 105.375C37.3954 105.78 36.9768 106.098 36.4389 106.33C35.9048 106.561 35.2855 106.676 34.581 106.676C33.6037 106.676 32.8063 106.468 32.1889 106.051C31.5715 105.631 31.1927 105.034 31.0526 104.261L32.6946 104.011C32.7969 104.439 33.0071 104.763 33.3253 104.983C33.6435 105.199 34.0582 105.307 34.5696 105.307C35.1264 105.307 35.5715 105.191 35.9048 104.96C36.2382 104.725 36.4048 104.439 36.4048 104.102C36.4048 103.83 36.3026 103.6 36.098 103.415C35.8973 103.229 35.5885 103.089 35.1719 102.994L33.6946 102.67C32.8802 102.485 32.2779 102.189 31.8878 101.784C31.5014 101.379 31.3082 100.866 31.3082 100.244C31.3082 99.7292 31.4522 99.2784 31.7401 98.892C32.0279 98.5057 32.4257 98.2045 32.9332 97.9886C33.4408 97.7689 34.0223 97.6591 34.6776 97.6591C35.6207 97.6591 36.3632 97.8636 36.9048 98.2727C37.4465 98.678 37.8045 99.2216 37.9787 99.9034ZM43.6932 106.676C42.8485 106.676 42.1212 106.485 41.5114 106.102C40.9053 105.716 40.4394 105.184 40.1136 104.506C39.7879 103.828 39.625 103.051 39.625 102.176C39.625 101.29 39.7917 100.508 40.125 99.8295C40.4583 99.1477 40.928 98.6155 41.5341 98.233C42.1402 97.8504 42.8542 97.6591 43.6761 97.6591C44.339 97.6591 44.9299 97.7822 45.4489 98.0284C45.9678 98.2708 46.3864 98.6117 46.7045 99.0511C47.0265 99.4905 47.2178 100.004 47.2784 100.591H45.625C45.5341 100.182 45.3258 99.8295 45 99.5341C44.678 99.2386 44.2462 99.0909 43.7045 99.0909C43.2311 99.0909 42.8163 99.2159 42.4602 99.4659C42.108 99.7121 41.8333 100.064 41.6364 100.523C41.4394 100.977 41.3409 101.515 41.3409 102.136C41.3409 102.773 41.4375 103.322 41.6307 103.784C41.8239 104.246 42.0966 104.604 42.4489 104.858C42.8049 105.112 43.2235 105.239 43.7045 105.239C44.0265 105.239 44.3182 105.18 44.5795 105.062C44.8447 104.941 45.0663 104.769 45.2443 104.545C45.4261 104.322 45.553 104.053 45.625 103.739H47.2784C47.2178 104.303 47.0341 104.807 46.7273 105.25C46.4205 105.693 46.0095 106.042 45.4943 106.295C44.983 106.549 44.3826 106.676 43.6932 106.676ZM52.7713 106.676C51.9531 106.676 51.2391 106.489 50.6293 106.114C50.0194 105.739 49.5459 105.214 49.2088 104.54C48.8717 103.866 48.7031 103.078 48.7031 102.176C48.7031 101.271 48.8717 100.479 49.2088 99.8011C49.5459 99.1231 50.0194 98.5966 50.6293 98.2216C51.2391 97.8466 51.9531 97.6591 52.7713 97.6591C53.5895 97.6591 54.3035 97.8466 54.9134 98.2216C55.5232 98.5966 55.9967 99.1231 56.3338 99.8011C56.6709 100.479 56.8395 101.271 56.8395 102.176C56.8395 103.078 56.6709 103.866 56.3338 104.54C55.9967 105.214 55.5232 105.739 54.9134 106.114C54.3035 106.489 53.5895 106.676 52.7713 106.676ZM52.777 105.25C53.3073 105.25 53.7467 105.11 54.0952 104.83C54.4437 104.549 54.7012 104.176 54.8679 103.71C55.0384 103.244 55.1236 102.731 55.1236 102.17C55.1236 101.614 55.0384 101.102 54.8679 100.636C54.7012 100.167 54.4437 99.7898 54.0952 99.5057C53.7467 99.2216 53.3073 99.0795 52.777 99.0795C52.2429 99.0795 51.7997 99.2216 51.4474 99.5057C51.099 99.7898 50.8395 100.167 50.669 100.636C50.5024 101.102 50.419 101.614 50.419 102.17C50.419 102.731 50.5024 103.244 50.669 103.71C50.8395 104.176 51.099 104.549 51.4474 104.83C51.7997 105.11 52.2429 105.25 52.777 105.25Z" fill="black"/>
<path d="M17.2784 68V56.3636H21.4261C22.3277 56.3636 23.0758 56.5189 23.6705 56.8295C24.2689 57.1402 24.7159 57.5701 25.0114 58.1193C25.3068 58.6648 25.4545 59.2955 25.4545 60.0114C25.4545 60.7235 25.3049 61.3504 25.0057 61.892C24.7102 62.4299 24.2633 62.8485 23.6648 63.1477C23.0701 63.447 22.322 63.5966 21.4205 63.5966H18.2784V62.0852H21.2614C21.8295 62.0852 22.2917 62.0038 22.6477 61.8409C23.0076 61.678 23.2708 61.4413 23.4375 61.1307C23.6042 60.8201 23.6875 60.447 23.6875 60.0114C23.6875 59.572 23.6023 59.1913 23.4318 58.8693C23.2652 58.5473 23.0019 58.3011 22.642 58.1307C22.286 57.9564 21.8182 57.8693 21.2386 57.8693H19.0341V68H17.2784ZM23.0227 62.75L25.8977 68H23.8977L21.0795 62.75H23.0227ZM31.1065 68.1761C30.2467 68.1761 29.5062 67.9924 28.8849 67.625C28.2675 67.2538 27.7902 66.733 27.4531 66.0625C27.1198 65.3883 26.9531 64.5985 26.9531 63.6932C26.9531 62.7992 27.1198 62.0114 27.4531 61.3295C27.7902 60.6477 28.2599 60.1155 28.8622 59.733C29.4683 59.3504 30.1766 59.1591 30.9872 59.1591C31.4796 59.1591 31.9569 59.2405 32.419 59.4034C32.8812 59.5663 33.2959 59.822 33.6634 60.1705C34.0308 60.5189 34.3205 60.9716 34.5327 61.5284C34.7448 62.0814 34.8509 62.7538 34.8509 63.5455V64.1477H27.9134V62.875H33.1861C33.1861 62.428 33.0952 62.0322 32.9134 61.6875C32.7315 61.339 32.4759 61.0644 32.1463 60.8636C31.8205 60.6629 31.438 60.5625 30.9986 60.5625C30.5213 60.5625 30.1046 60.6799 29.7486 60.9148C29.3963 61.1458 29.1236 61.4489 28.9304 61.8239C28.741 62.1951 28.6463 62.5985 28.6463 63.0341V64.0284C28.6463 64.6117 28.7486 65.108 28.9531 65.517C29.1615 65.9261 29.4512 66.2386 29.8224 66.4545C30.1937 66.6667 30.6274 66.7727 31.1236 66.7727C31.4455 66.7727 31.7391 66.7273 32.0043 66.6364C32.2694 66.5417 32.4986 66.4015 32.6918 66.2159C32.8849 66.0303 33.0327 65.8011 33.1349 65.5284L34.7429 65.8182C34.6141 66.2917 34.383 66.7064 34.0497 67.0625C33.7202 67.4148 33.3054 67.6894 32.8054 67.8864C32.3092 68.0795 31.7429 68.1761 31.1065 68.1761ZM38.4347 62.8182V68H36.7358V59.2727H38.3665V60.6932H38.4744C38.6752 60.2311 38.9896 59.8598 39.4176 59.5795C39.8494 59.2992 40.393 59.1591 41.0483 59.1591C41.643 59.1591 42.1638 59.2841 42.6108 59.5341C43.0578 59.7803 43.4044 60.1477 43.6506 60.6364C43.8968 61.125 44.0199 61.7292 44.0199 62.4489V68H42.321V62.6534C42.321 62.0208 42.1563 61.5265 41.8267 61.1705C41.4972 60.8106 41.0445 60.6307 40.4688 60.6307C40.0748 60.6307 39.7244 60.7159 39.4176 60.8864C39.1146 61.0568 38.8741 61.3068 38.696 61.6364C38.5218 61.9621 38.4347 62.3561 38.4347 62.8182ZM50.3722 59.2727V60.6364H45.6051V59.2727H50.3722ZM46.8835 57.1818H48.5824V65.4375C48.5824 65.767 48.6316 66.0152 48.7301 66.1818C48.8286 66.3447 48.9555 66.4564 49.1108 66.517C49.2699 66.5739 49.4422 66.6023 49.6278 66.6023C49.7642 66.6023 49.8835 66.5928 49.9858 66.5739C50.0881 66.5549 50.1676 66.5398 50.2244 66.5284L50.5312 67.9318C50.4328 67.9697 50.2926 68.0076 50.1108 68.0455C49.929 68.0871 49.7017 68.1098 49.429 68.1136C48.982 68.1212 48.5653 68.0417 48.179 67.875C47.7926 67.7083 47.4801 67.4508 47.2415 67.1023C47.0028 66.7538 46.8835 66.3163 46.8835 65.7898V57.1818ZM54.7912 68.1932C54.2382 68.1932 53.7382 68.0909 53.2912 67.8864C52.8442 67.678 52.4901 67.3769 52.2287 66.983C51.9711 66.589 51.8423 66.1061 51.8423 65.5341C51.8423 65.0417 51.937 64.6364 52.1264 64.3182C52.3158 64 52.5715 63.7481 52.8935 63.5625C53.2154 63.3769 53.5753 63.2367 53.973 63.142C54.3707 63.0473 54.776 62.9754 55.1889 62.9261C55.7116 62.8655 56.1359 62.8163 56.4616 62.7784C56.7874 62.7367 57.0241 62.6705 57.1719 62.5795C57.3196 62.4886 57.3935 62.3409 57.3935 62.1364V62.0966C57.3935 61.6004 57.2533 61.2159 56.973 60.9432C56.6965 60.6705 56.2836 60.5341 55.7344 60.5341C55.1624 60.5341 54.7116 60.661 54.3821 60.9148C54.0563 61.1648 53.831 61.4432 53.706 61.75L52.1094 61.3864C52.2988 60.8561 52.5753 60.428 52.9389 60.1023C53.3063 59.7727 53.7287 59.5341 54.206 59.3864C54.6832 59.2348 55.1851 59.1591 55.7116 59.1591C56.0601 59.1591 56.4295 59.2008 56.8196 59.2841C57.2135 59.3636 57.581 59.5114 57.9219 59.7273C58.2666 59.9432 58.5488 60.2519 58.7685 60.6534C58.9882 61.0511 59.098 61.5682 59.098 62.2045V68H57.4389V66.8068H57.3707C57.2609 67.0265 57.0961 67.2424 56.8764 67.4545C56.6567 67.6667 56.3745 67.8428 56.0298 67.983C55.6851 68.1231 55.2723 68.1932 54.7912 68.1932ZM55.1605 66.8295C55.6302 66.8295 56.0317 66.7367 56.3651 66.5511C56.7022 66.3655 56.9579 66.1231 57.1321 65.8239C57.3101 65.5208 57.3991 65.197 57.3991 64.8523V63.7273C57.3385 63.7879 57.2211 63.8447 57.0469 63.8977C56.8764 63.947 56.6813 63.9905 56.4616 64.0284C56.242 64.0625 56.0279 64.0947 55.8196 64.125C55.6113 64.1515 55.437 64.1742 55.2969 64.1932C54.9673 64.2348 54.6662 64.3049 54.3935 64.4034C54.1245 64.5019 53.9086 64.6439 53.7457 64.8295C53.5866 65.0114 53.5071 65.2538 53.5071 65.5568C53.5071 65.9773 53.6624 66.2955 53.973 66.5114C54.2836 66.7235 54.6795 66.8295 55.1605 66.8295ZM61.4972 68V56.3636H63.196V60.6875H63.2983C63.3968 60.5057 63.5388 60.2955 63.7244 60.0568C63.91 59.8182 64.1676 59.6098 64.4972 59.4318C64.8267 59.25 65.2623 59.1591 65.804 59.1591C66.5085 59.1591 67.1373 59.3371 67.6903 59.6932C68.2434 60.0492 68.6771 60.5625 68.9915 61.233C69.3097 61.9034 69.4688 62.7102 69.4688 63.6534C69.4688 64.5966 69.3116 65.4053 68.9972 66.0795C68.6828 66.75 68.2509 67.267 67.7017 67.6307C67.1525 67.9905 66.5256 68.1705 65.821 68.1705C65.2907 68.1705 64.857 68.0814 64.5199 67.9034C64.1866 67.7254 63.9252 67.517 63.7358 67.2784C63.5464 67.0398 63.4006 66.8277 63.2983 66.642H63.1562V68H61.4972ZM63.1619 63.6364C63.1619 64.25 63.2509 64.7879 63.429 65.25C63.607 65.7121 63.8646 66.0739 64.2017 66.3352C64.5388 66.5928 64.9517 66.7216 65.4403 66.7216C65.9479 66.7216 66.3722 66.5871 66.7131 66.3182C67.054 66.0455 67.3116 65.6761 67.4858 65.2102C67.6638 64.7443 67.7528 64.2197 67.7528 63.6364C67.7528 63.0606 67.6657 62.5436 67.4915 62.0852C67.321 61.6269 67.0634 61.2652 66.7188 61C66.3778 60.7348 65.9517 60.6023 65.4403 60.6023C64.9479 60.6023 64.5312 60.7292 64.1903 60.983C63.8532 61.2367 63.5975 61.5909 63.4233 62.0455C63.2491 62.5 63.1619 63.0303 63.1619 63.6364ZM71.3764 68V59.2727H73.0753V68H71.3764ZM72.2344 57.9261C71.9389 57.9261 71.6851 57.8277 71.473 57.6307C71.2647 57.4299 71.1605 57.1913 71.1605 56.9148C71.1605 56.6345 71.2647 56.3958 71.473 56.1989C71.6851 55.9981 71.9389 55.8977 72.2344 55.8977C72.5298 55.8977 72.7817 55.9981 72.9901 56.1989C73.2022 56.3958 73.3082 56.6345 73.3082 56.9148C73.3082 57.1913 73.2022 57.4299 72.9901 57.6307C72.7817 57.8277 72.5298 57.9261 72.2344 57.9261ZM77.0597 56.3636V68H75.3608V56.3636H77.0597ZM79.3452 68V59.2727H81.044V68H79.3452ZM80.2031 57.9261C79.9077 57.9261 79.6539 57.8277 79.4418 57.6307C79.2334 57.4299 79.1293 57.1913 79.1293 56.9148C79.1293 56.6345 79.2334 56.3958 79.4418 56.1989C79.6539 55.9981 79.9077 55.8977 80.2031 55.8977C80.4986 55.8977 80.7505 55.9981 80.9588 56.1989C81.1709 56.3958 81.277 56.6345 81.277 56.9148C81.277 57.1913 81.1709 57.4299 80.9588 57.6307C80.7505 57.8277 80.4986 57.9261 80.2031 57.9261ZM86.5966 68.1705C85.892 68.1705 85.2633 67.9905 84.7102 67.6307C84.161 67.267 83.7292 66.75 83.4148 66.0795C83.1042 65.4053 82.9489 64.5966 82.9489 63.6534C82.9489 62.7102 83.1061 61.9034 83.4205 61.233C83.7386 60.5625 84.1742 60.0492 84.7273 59.6932C85.2803 59.3371 85.9072 59.1591 86.608 59.1591C87.1496 59.1591 87.5852 59.25 87.9148 59.4318C88.2481 59.6098 88.5057 59.8182 88.6875 60.0568C88.8731 60.2955 89.017 60.5057 89.1193 60.6875H89.2216V56.3636H90.9205V68H89.2614V66.642H89.1193C89.017 66.8277 88.8693 67.0398 88.6761 67.2784C88.4867 67.517 88.2254 67.7254 87.892 67.9034C87.5587 68.0814 87.1269 68.1705 86.5966 68.1705ZM86.9716 66.7216C87.4602 66.7216 87.8731 66.5928 88.2102 66.3352C88.5511 66.0739 88.8087 65.7121 88.983 65.25C89.161 64.7879 89.25 64.25 89.25 63.6364C89.25 63.0303 89.1629 62.5 88.9886 62.0455C88.8144 61.5909 88.5587 61.2367 88.2216 60.983C87.8845 60.7292 87.4678 60.6023 86.9716 60.6023C86.4602 60.6023 86.0341 60.7348 85.6932 61C85.3523 61.2652 85.0947 61.6269 84.9205 62.0852C84.75 62.5436 84.6648 63.0606 84.6648 63.6364C84.6648 64.2197 84.7519 64.7443 84.9261 65.2102C85.1004 65.6761 85.358 66.0455 85.6989 66.3182C86.0436 66.5871 86.4678 66.7216 86.9716 66.7216ZM95.8849 68.1932C95.3319 68.1932 94.8319 68.0909 94.3849 67.8864C93.938 67.678 93.5838 67.3769 93.3224 66.983C93.0649 66.589 92.9361 66.1061 92.9361 65.5341C92.9361 65.0417 93.0308 64.6364 93.2202 64.3182C93.4096 64 93.6652 63.7481 93.9872 63.5625C94.3092 63.3769 94.669 63.2367 95.0668 63.142C95.4645 63.0473 95.8698 62.9754 96.2827 62.9261C96.8054 62.8655 97.2296 62.8163 97.5554 62.7784C97.8812 62.7367 98.1179 62.6705 98.2656 62.5795C98.4134 62.4886 98.4872 62.3409 98.4872 62.1364V62.0966C98.4872 61.6004 98.3471 61.2159 98.0668 60.9432C97.7902 60.6705 97.3774 60.5341 96.8281 60.5341C96.2562 60.5341 95.8054 60.661 95.4759 60.9148C95.1501 61.1648 94.9247 61.4432 94.7997 61.75L93.2031 61.3864C93.3925 60.8561 93.669 60.428 94.0327 60.1023C94.4001 59.7727 94.8224 59.5341 95.2997 59.3864C95.777 59.2348 96.2789 59.1591 96.8054 59.1591C97.1539 59.1591 97.5232 59.2008 97.9134 59.2841C98.3073 59.3636 98.6747 59.5114 99.0156 59.7273C99.3603 59.9432 99.6425 60.2519 99.8622 60.6534C100.082 61.0511 100.192 61.5682 100.192 62.2045V68H98.5327V66.8068H98.4645C98.3546 67.0265 98.1899 67.2424 97.9702 67.4545C97.7505 67.6667 97.4683 67.8428 97.1236 67.983C96.7789 68.1231 96.366 68.1932 95.8849 68.1932ZM96.2543 66.8295C96.724 66.8295 97.1255 66.7367 97.4588 66.5511C97.7959 66.3655 98.0516 66.1231 98.2259 65.8239C98.4039 65.5208 98.4929 65.197 98.4929 64.8523V63.7273C98.4323 63.7879 98.3149 63.8447 98.1406 63.8977C97.9702 63.947 97.7751 63.9905 97.5554 64.0284C97.3357 64.0625 97.1217 64.0947 96.9134 64.125C96.705 64.1515 96.5308 64.1742 96.3906 64.1932C96.0611 64.2348 95.7599 64.3049 95.4872 64.4034C95.2183 64.5019 95.0024 64.6439 94.8395 64.8295C94.6804 65.0114 94.6009 65.2538 94.6009 65.5568C94.6009 65.9773 94.7562 66.2955 95.0668 66.5114C95.3774 66.7235 95.7732 66.8295 96.2543 66.8295ZM105.722 68.1705C105.017 68.1705 104.388 67.9905 103.835 67.6307C103.286 67.267 102.854 66.75 102.54 66.0795C102.229 65.4053 102.074 64.5966 102.074 63.6534C102.074 62.7102 102.231 61.9034 102.545 61.233C102.864 60.5625 103.299 60.0492 103.852 59.6932C104.405 59.3371 105.032 59.1591 105.733 59.1591C106.275 59.1591 106.71 59.25 107.04 59.4318C107.373 59.6098 107.631 59.8182 107.812 60.0568C107.998 60.2955 108.142 60.5057 108.244 60.6875H108.347V56.3636H110.045V68H108.386V66.642H108.244C108.142 66.8277 107.994 67.0398 107.801 67.2784C107.612 67.517 107.35 67.7254 107.017 67.9034C106.684 68.0814 106.252 68.1705 105.722 68.1705ZM106.097 66.7216C106.585 66.7216 106.998 66.5928 107.335 66.3352C107.676 66.0739 107.934 65.7121 108.108 65.25C108.286 64.7879 108.375 64.25 108.375 63.6364C108.375 63.0303 108.288 62.5 108.114 62.0455C107.939 61.5909 107.684 61.2367 107.347 60.983C107.009 60.7292 106.593 60.6023 106.097 60.6023C105.585 60.6023 105.159 60.7348 104.818 61C104.477 61.2652 104.22 61.6269 104.045 62.0852C103.875 62.5436 103.79 63.0606 103.79 63.6364C103.79 64.2197 103.877 64.7443 104.051 65.2102C104.225 65.6761 104.483 66.0455 104.824 66.3182C105.169 66.5871 105.593 66.7216 106.097 66.7216ZM116.232 68.1761C115.372 68.1761 114.631 67.9924 114.01 67.625C113.393 67.2538 112.915 66.733 112.578 66.0625C112.245 65.3883 112.078 64.5985 112.078 63.6932C112.078 62.7992 112.245 62.0114 112.578 61.3295C112.915 60.6477 113.385 60.1155 113.987 59.733C114.593 59.3504 115.302 59.1591 116.112 59.1591C116.605 59.1591 117.082 59.2405 117.544 59.4034C118.006 59.5663 118.421 59.822 118.788 60.1705C119.156 60.5189 119.446 60.9716 119.658 61.5284C119.87 62.0814 119.976 62.7538 119.976 63.5455V64.1477H113.038V62.875H118.311C118.311 62.428 118.22 62.0322 118.038 61.6875C117.857 61.339 117.601 61.0644 117.271 60.8636C116.946 60.6629 116.563 60.5625 116.124 60.5625C115.646 60.5625 115.23 60.6799 114.874 60.9148C114.521 61.1458 114.249 61.4489 114.055 61.8239C113.866 62.1951 113.771 62.5985 113.771 63.0341V64.0284C113.771 64.6117 113.874 65.108 114.078 65.517C114.286 65.9261 114.576 66.2386 114.947 66.4545C115.319 66.6667 115.752 66.7727 116.249 66.7727C116.571 66.7727 116.864 66.7273 117.129 66.6364C117.394 66.5417 117.624 66.4015 117.817 66.2159C118.01 66.0303 118.158 65.8011 118.26 65.5284L119.868 65.8182C119.739 66.2917 119.508 66.7064 119.175 67.0625C118.845 67.4148 118.43 67.6894 117.93 67.8864C117.434 68.0795 116.868 68.1761 116.232 68.1761Z" fill="black"/>
<rect x="399" y="94" width="7" height="13" rx="3" fill="#9DA4AD"/>
<rect x="388" y="94" width="7" height="13" rx="3" fill="#3A404A"/>
</svg>
