<svg width="380" height="348" viewBox="0 0 380 348" fill="none" xmlns="http://www.w3.org/2000/svg">
<g clip-path="url(#clip0_1303_2758)">
<mask id="path-1-inside-1_1303_2758" fill="white">
<path d="M0 50C0 22.3858 22.3858 0 50 0H330C357.614 0 380 22.3858 380 50V348H0V50Z"/>
</mask>
<path d="M0 50C0 22.3858 22.3858 0 50 0H330C357.614 0 380 22.3858 380 50V348H0V50Z" fill="white"/>
<path d="M44.828 54H57V56H44.828L50.192 61.364L48.778 62.778L41 55L48.778 47.222L50.192 48.636L44.828 54Z" fill="#1A191E"/>
<path d="M330 65C324.477 65 320 60.523 320 55C320 49.477 324.477 45 330 45C335.523 45 340 49.477 340 55C340 60.523 335.523 65 330 65ZM330 63C332.122 63 334.157 62.1571 335.657 60.6569C337.157 59.1566 338 57.1217 338 55C338 52.8783 337.157 50.8434 335.657 49.3431C334.157 47.8429 332.122 47 330 47C327.878 47 325.843 47.8429 324.343 49.3431C322.843 50.8434 322 52.8783 322 55C322 57.1217 322.843 59.1566 324.343 60.6569C325.843 62.1571 327.878 63 330 63ZM329 58H331V60H329V58ZM331 56.355V57H329V55.5C329 55.2348 329.105 54.9804 329.293 54.7929C329.48 54.6054 329.735 54.5 330 54.5C330.284 54.5 330.562 54.4193 330.802 54.2673C331.042 54.1154 331.234 53.8984 331.356 53.6416C331.477 53.3848 331.523 53.0988 331.489 52.8168C331.454 52.5349 331.34 52.2686 331.16 52.0489C330.98 51.8292 330.741 51.6652 330.471 51.576C330.202 51.4867 329.912 51.4759 329.636 51.5447C329.361 51.6135 329.11 51.7592 328.914 51.9648C328.718 52.1704 328.585 52.4274 328.529 52.706L326.567 52.313C326.689 51.7051 326.97 51.1404 327.381 50.6766C327.792 50.2128 328.32 49.8666 328.909 49.6733C329.498 49.4801 330.127 49.4467 330.734 49.5766C331.34 49.7065 331.901 49.9951 332.359 50.4128C332.817 50.8305 333.156 51.3624 333.341 51.9541C333.526 52.5457 333.551 53.1759 333.413 53.7803C333.275 54.3847 332.978 54.9415 332.555 55.3939C332.131 55.8462 331.594 56.1779 331 56.355Z" fill="#1A191E"/>
<rect x="30" y="109" width="40" height="40" rx="20" fill="#0088DC"/>
<path d="M44.7435 134.192C43.9328 134.192 43.2182 134.048 42.5995 133.76C41.9808 133.461 41.5008 133.045 41.1595 132.512C40.8182 131.979 40.6475 131.355 40.6475 130.64H42.3275C42.3275 131.045 42.4235 131.419 42.6155 131.76C42.8075 132.091 43.0795 132.357 43.4315 132.56C43.7942 132.752 44.2315 132.848 44.7435 132.848C45.2022 132.848 45.5915 132.773 45.9115 132.624C46.2315 132.475 46.4768 132.272 46.6475 132.016C46.8288 131.749 46.9195 131.445 46.9195 131.104C46.9195 130.709 46.8288 130.384 46.6475 130.128C46.4662 129.872 46.2208 129.664 45.9115 129.504C45.6022 129.333 45.2502 129.184 44.8555 129.056C44.4608 128.928 44.0395 128.789 43.5915 128.64C42.7168 128.341 42.0608 127.968 41.6235 127.52C41.1968 127.061 40.9835 126.464 40.9835 125.728C40.9835 125.099 41.1275 124.555 41.4155 124.096C41.7142 123.627 42.1355 123.264 42.6795 123.008C43.2235 122.741 43.8635 122.608 44.5995 122.608C45.3248 122.608 45.9542 122.741 46.4875 123.008C47.0315 123.275 47.4582 123.643 47.7675 124.112C48.0768 124.581 48.2368 125.131 48.2475 125.76H46.5515C46.5515 125.472 46.4768 125.189 46.3275 124.912C46.1782 124.635 45.9542 124.411 45.6555 124.24C45.3568 124.059 44.9888 123.968 44.5515 123.968C44.1888 123.957 43.8635 124.016 43.5755 124.144C43.2875 124.272 43.0582 124.459 42.8875 124.704C42.7275 124.949 42.6475 125.243 42.6475 125.584C42.6475 125.925 42.7222 126.203 42.8715 126.416C43.0208 126.619 43.2342 126.795 43.5115 126.944C43.7888 127.093 44.1088 127.232 44.4715 127.36C44.8448 127.477 45.2555 127.611 45.7035 127.76C46.2475 127.941 46.7382 128.165 47.1755 128.432C47.6128 128.688 47.9542 129.024 48.1995 129.44C48.4555 129.845 48.5835 130.368 48.5835 131.008C48.5835 131.563 48.4395 132.08 48.1515 132.56C47.8635 133.04 47.4368 133.435 46.8715 133.744C46.3062 134.043 45.5968 134.192 44.7435 134.192ZM50.0061 134V122.8H51.6061L57.3181 131.392V122.8H58.9181V134H57.3181L51.6061 125.424V134H50.0061Z" fill="white"/>
<rect x="86" y="112" width="160" height="34" rx="10" fill="#F8F8F8"/>
<path d="M107.963 128.909C107.963 129.996 107.764 130.931 107.366 131.713C106.969 132.492 106.424 133.092 105.731 133.513C105.041 133.93 104.258 134.139 103.379 134.139C102.498 134.139 101.71 133.93 101.018 133.513C100.328 133.092 99.7848 132.49 99.3871 131.708C98.9893 130.926 98.7905 129.993 98.7905 128.909C98.7905 127.822 98.9893 126.889 99.3871 126.11C99.7848 125.328 100.328 124.728 101.018 124.31C101.71 123.889 102.498 123.679 103.379 123.679C104.258 123.679 105.041 123.889 105.731 124.31C106.424 124.728 106.969 125.328 107.366 126.11C107.764 126.889 107.963 127.822 107.963 128.909ZM106.442 128.909C106.442 128.08 106.308 127.383 106.039 126.816C105.774 126.246 105.409 125.815 104.945 125.523C104.485 125.228 103.963 125.081 103.379 125.081C102.793 125.081 102.269 125.228 101.808 125.523C101.348 125.815 100.983 126.246 100.714 126.816C100.449 127.383 100.317 128.08 100.317 128.909C100.317 129.738 100.449 130.437 100.714 131.007C100.983 131.574 101.348 132.005 101.808 132.3C102.269 132.591 102.793 132.737 103.379 132.737C103.963 132.737 104.485 132.591 104.945 132.3C105.409 132.005 105.774 131.574 106.039 131.007C106.308 130.437 106.442 129.738 106.442 128.909ZM118.62 136.864V132.812H118.53C118.441 132.974 118.311 133.16 118.142 133.369C117.977 133.577 117.748 133.76 117.456 133.915C117.165 134.071 116.787 134.149 116.323 134.149C115.706 134.149 115.156 133.992 114.672 133.677C114.192 133.359 113.814 132.906 113.539 132.32C113.267 131.73 113.131 131.022 113.131 130.197C113.131 129.371 113.269 128.665 113.544 128.079C113.822 127.492 114.203 127.043 114.687 126.732C115.171 126.42 115.72 126.264 116.333 126.264C116.807 126.264 117.188 126.344 117.476 126.503C117.768 126.659 117.993 126.841 118.152 127.05C118.315 127.259 118.441 127.442 118.53 127.602H118.654V126.364H120.106V136.864H118.62ZM116.651 132.881C117.078 132.881 117.44 132.769 117.735 132.543C118.033 132.315 118.258 131.998 118.411 131.594C118.567 131.189 118.645 130.719 118.645 130.182C118.645 129.652 118.568 129.187 118.416 128.79C118.263 128.392 118.04 128.082 117.745 127.86C117.45 127.638 117.085 127.527 116.651 127.527C116.203 127.527 115.831 127.643 115.532 127.875C115.234 128.107 115.009 128.424 114.856 128.825C114.707 129.226 114.632 129.678 114.632 130.182C114.632 130.692 114.709 131.151 114.861 131.559C115.014 131.967 115.239 132.29 115.537 132.528C115.839 132.764 116.21 132.881 116.651 132.881ZM126.942 130.833V126.364H128.434V134H126.972V132.678H126.892C126.717 133.085 126.435 133.425 126.047 133.697C125.663 133.965 125.184 134.099 124.61 134.099C124.12 134.099 123.686 133.992 123.308 133.776C122.933 133.558 122.638 133.234 122.423 132.807C122.211 132.379 122.105 131.851 122.105 131.221V126.364H123.591V131.042C123.591 131.562 123.735 131.977 124.024 132.285C124.312 132.593 124.687 132.747 125.147 132.747C125.426 132.747 125.703 132.678 125.978 132.538C126.256 132.399 126.486 132.189 126.669 131.907C126.854 131.625 126.945 131.267 126.942 130.833ZM133.722 134.154C132.97 134.154 132.322 133.993 131.778 133.672C131.238 133.347 130.82 132.891 130.525 132.305C130.234 131.715 130.088 131.024 130.088 130.232C130.088 129.449 130.234 128.76 130.525 128.163C130.82 127.567 131.231 127.101 131.758 126.766C132.289 126.432 132.908 126.264 133.618 126.264C134.049 126.264 134.466 126.335 134.871 126.478C135.275 126.621 135.638 126.844 135.959 127.149C136.281 127.454 136.534 127.85 136.72 128.337C136.906 128.821 136.998 129.41 136.998 130.102V130.629H130.928V129.516H135.542C135.542 129.125 135.462 128.778 135.303 128.477C135.144 128.172 134.92 127.931 134.632 127.756C134.347 127.58 134.012 127.492 133.628 127.492C133.21 127.492 132.845 127.595 132.534 127.8C132.226 128.003 131.987 128.268 131.818 128.596C131.652 128.921 131.569 129.274 131.569 129.655V130.525C131.569 131.035 131.659 131.469 131.838 131.827C132.02 132.185 132.274 132.459 132.599 132.648C132.923 132.833 133.303 132.926 133.737 132.926C134.019 132.926 134.276 132.886 134.508 132.807C134.74 132.724 134.94 132.601 135.109 132.439C135.278 132.277 135.407 132.076 135.497 131.837L136.904 132.091C136.791 132.505 136.589 132.868 136.297 133.18C136.009 133.488 135.646 133.728 135.209 133.901C134.774 134.07 134.279 134.154 133.722 134.154ZM145.644 134.154C144.892 134.154 144.244 133.993 143.7 133.672C143.16 133.347 142.742 132.891 142.447 132.305C142.156 131.715 142.01 131.024 142.01 130.232C142.01 129.449 142.156 128.76 142.447 128.163C142.742 127.567 143.153 127.101 143.68 126.766C144.211 126.432 144.83 126.264 145.54 126.264C145.97 126.264 146.388 126.335 146.792 126.478C147.197 126.621 147.56 126.844 147.881 127.149C148.203 127.454 148.456 127.85 148.642 128.337C148.827 128.821 148.92 129.41 148.92 130.102V130.629H142.85V129.516H147.464C147.464 129.125 147.384 128.778 147.225 128.477C147.066 128.172 146.842 127.931 146.554 127.756C146.269 127.58 145.934 127.492 145.55 127.492C145.132 127.492 144.767 127.595 144.456 127.8C144.148 128.003 143.909 128.268 143.74 128.596C143.574 128.921 143.491 129.274 143.491 129.655V130.525C143.491 131.035 143.581 131.469 143.76 131.827C143.942 132.185 144.196 132.459 144.52 132.648C144.845 132.833 145.225 132.926 145.659 132.926C145.941 132.926 146.198 132.886 146.43 132.807C146.662 132.724 146.862 132.601 147.031 132.439C147.2 132.277 147.329 132.076 147.419 131.837L148.826 132.091C148.713 132.505 148.511 132.868 148.219 133.18C147.931 133.488 147.568 133.728 147.131 133.901C146.696 134.07 146.201 134.154 145.644 134.154ZM144.868 125.344L146.032 123.053H147.598L146.057 125.344H144.868ZM157.491 134.154C156.775 134.154 156.151 133.99 155.617 133.662C155.083 133.334 154.669 132.875 154.374 132.285C154.079 131.695 153.932 131.005 153.932 130.217C153.932 129.424 154.079 128.732 154.374 128.138C154.669 127.545 155.083 127.085 155.617 126.756C156.151 126.428 156.775 126.264 157.491 126.264C158.207 126.264 158.832 126.428 159.366 126.756C159.899 127.085 160.314 127.545 160.608 128.138C160.903 128.732 161.051 129.424 161.051 130.217C161.051 131.005 160.903 131.695 160.608 132.285C160.314 132.875 159.899 133.334 159.366 133.662C158.832 133.99 158.207 134.154 157.491 134.154ZM157.496 132.906C157.96 132.906 158.345 132.784 158.65 132.538C158.955 132.293 159.18 131.967 159.326 131.559C159.475 131.151 159.55 130.702 159.55 130.212C159.55 129.724 159.475 129.277 159.326 128.869C159.18 128.458 158.955 128.129 158.65 127.88C158.345 127.631 157.96 127.507 157.496 127.507C157.029 127.507 156.641 127.631 156.333 127.88C156.028 128.129 155.801 128.458 155.652 128.869C155.506 129.277 155.433 129.724 155.433 130.212C155.433 130.702 155.506 131.151 155.652 131.559C155.801 131.967 156.028 132.293 156.333 132.538C156.641 132.784 157.029 132.906 157.496 132.906ZM174.753 123.818V134H173.341L168.165 126.533H168.071V134H166.535V123.818H167.956L173.137 131.295H173.231V123.818H174.753ZM180.165 134.154C179.413 134.154 178.765 133.993 178.222 133.672C177.681 133.347 177.264 132.891 176.969 132.305C176.677 131.715 176.531 131.024 176.531 130.232C176.531 129.449 176.677 128.76 176.969 128.163C177.264 127.567 177.675 127.101 178.202 126.766C178.732 126.432 179.352 126.264 180.061 126.264C180.492 126.264 180.91 126.335 181.314 126.478C181.718 126.621 182.081 126.844 182.403 127.149C182.724 127.454 182.978 127.85 183.163 128.337C183.349 128.821 183.442 129.41 183.442 130.102V130.629H177.371V129.516H181.985C181.985 129.125 181.906 128.778 181.746 128.477C181.587 128.172 181.364 127.931 181.075 127.756C180.79 127.58 180.455 127.492 180.071 127.492C179.653 127.492 179.289 127.595 178.977 127.8C178.669 128.003 178.43 128.268 178.261 128.596C178.096 128.921 178.013 129.274 178.013 129.655V130.525C178.013 131.035 178.102 131.469 178.281 131.827C178.464 132.185 178.717 132.459 179.042 132.648C179.367 132.833 179.746 132.926 180.18 132.926C180.462 132.926 180.719 132.886 180.951 132.807C181.183 132.724 181.384 132.601 181.553 132.439C181.722 132.277 181.851 132.076 181.94 131.837L183.347 132.091C183.235 132.505 183.032 132.868 182.741 133.18C182.452 133.488 182.089 133.728 181.652 133.901C181.218 134.07 180.722 134.154 180.165 134.154ZM188.308 134.154C187.592 134.154 186.967 133.99 186.433 133.662C185.9 133.334 185.485 132.875 185.191 132.285C184.896 131.695 184.748 131.005 184.748 130.217C184.748 129.424 184.896 128.732 185.191 128.138C185.485 127.545 185.9 127.085 186.433 126.756C186.967 126.428 187.592 126.264 188.308 126.264C189.024 126.264 189.648 126.428 190.182 126.756C190.716 127.085 191.13 127.545 191.425 128.138C191.72 128.732 191.867 129.424 191.867 130.217C191.867 131.005 191.72 131.695 191.425 132.285C191.13 132.875 190.716 133.334 190.182 133.662C189.648 133.99 189.024 134.154 188.308 134.154ZM188.313 132.906C188.777 132.906 189.161 132.784 189.466 132.538C189.771 132.293 189.996 131.967 190.142 131.559C190.291 131.151 190.366 130.702 190.366 130.212C190.366 129.724 190.291 129.277 190.142 128.869C189.996 128.458 189.771 128.129 189.466 127.88C189.161 127.631 188.777 127.507 188.313 127.507C187.845 127.507 187.458 127.631 187.149 127.88C186.844 128.129 186.617 128.458 186.468 128.869C186.322 129.277 186.249 129.724 186.249 130.212C186.249 130.702 186.322 131.151 186.468 131.559C186.617 131.967 186.844 132.293 187.149 132.538C187.458 132.784 187.845 132.906 188.313 132.906ZM193.646 134V123.818H197.375C198.097 123.818 198.695 123.937 199.169 124.176C199.643 124.411 199.998 124.731 200.233 125.136C200.469 125.537 200.586 125.989 200.586 126.493C200.586 126.917 200.508 127.275 200.353 127.567C200.197 127.855 199.988 128.087 199.726 128.263C199.468 128.435 199.183 128.561 198.871 128.641V128.74C199.209 128.757 199.539 128.866 199.86 129.068C200.185 129.267 200.454 129.55 200.666 129.918C200.878 130.286 200.984 130.734 200.984 131.261C200.984 131.781 200.861 132.248 200.616 132.663C200.374 133.074 200 133.4 199.493 133.642C198.985 133.881 198.337 134 197.549 134H193.646ZM195.182 132.683H197.4C198.135 132.683 198.662 132.54 198.98 132.255C199.299 131.97 199.458 131.614 199.458 131.186C199.458 130.865 199.377 130.57 199.214 130.301C199.052 130.033 198.82 129.819 198.518 129.66C198.22 129.501 197.865 129.421 197.454 129.421H195.182V132.683ZM195.182 128.223H197.24C197.585 128.223 197.895 128.157 198.17 128.024C198.449 127.892 198.669 127.706 198.831 127.467C198.997 127.225 199.08 126.94 199.08 126.612C199.08 126.191 198.932 125.838 198.637 125.553C198.342 125.268 197.89 125.126 197.28 125.126H195.182V128.223ZM204.909 134.169C204.425 134.169 203.988 134.08 203.597 133.901C203.205 133.718 202.896 133.455 202.667 133.11C202.442 132.765 202.329 132.343 202.329 131.842C202.329 131.411 202.412 131.057 202.577 130.778C202.743 130.5 202.967 130.28 203.249 130.117C203.53 129.955 203.845 129.832 204.193 129.749C204.541 129.666 204.896 129.603 205.257 129.56C205.714 129.507 206.086 129.464 206.371 129.431C206.656 129.395 206.863 129.337 206.992 129.257C207.121 129.178 207.186 129.048 207.186 128.869V128.835C207.186 128.4 207.063 128.064 206.818 127.825C206.576 127.587 206.215 127.467 205.734 127.467C205.234 127.467 204.839 127.578 204.551 127.8C204.266 128.019 204.069 128.263 203.96 128.531L202.562 128.213C202.728 127.749 202.97 127.375 203.288 127.089C203.61 126.801 203.979 126.592 204.397 126.463C204.815 126.33 205.254 126.264 205.714 126.264C206.019 126.264 206.343 126.301 206.684 126.374C207.029 126.443 207.35 126.572 207.648 126.761C207.95 126.95 208.197 127.22 208.389 127.572C208.581 127.92 208.678 128.372 208.678 128.929V134H207.226V132.956H207.166C207.07 133.148 206.926 133.337 206.734 133.523C206.541 133.708 206.295 133.862 205.993 133.985C205.691 134.108 205.33 134.169 204.909 134.169ZM205.232 132.976C205.643 132.976 205.995 132.895 206.286 132.732C206.581 132.57 206.805 132.358 206.957 132.096C207.113 131.831 207.191 131.547 207.191 131.246V130.261C207.138 130.314 207.035 130.364 206.883 130.411C206.734 130.454 206.563 130.492 206.371 130.525C206.179 130.555 205.991 130.583 205.809 130.609C205.627 130.633 205.474 130.652 205.352 130.669C205.063 130.705 204.8 130.767 204.561 130.853C204.326 130.939 204.137 131.063 203.994 131.226C203.855 131.385 203.786 131.597 203.786 131.862C203.786 132.23 203.921 132.509 204.193 132.697C204.465 132.883 204.811 132.976 205.232 132.976ZM212.144 129.466V134H210.657V126.364H212.084V127.607H212.179C212.354 127.202 212.63 126.877 213.004 126.632C213.382 126.387 213.858 126.264 214.431 126.264C214.951 126.264 215.407 126.374 215.798 126.592C216.189 126.808 216.492 127.129 216.708 127.557C216.923 127.984 217.031 128.513 217.031 129.143V134H215.545V129.322C215.545 128.768 215.4 128.336 215.112 128.024C214.824 127.709 214.428 127.552 213.924 127.552C213.579 127.552 213.273 127.626 213.004 127.776C212.739 127.925 212.528 128.143 212.373 128.432C212.22 128.717 212.144 129.062 212.144 129.466ZM220.392 131.41L220.382 129.595H220.64L223.683 126.364H225.463L221.993 130.043H221.759L220.392 131.41ZM219.025 134V123.818H220.511V134H219.025ZM223.847 134L221.113 130.371L222.137 129.332L225.672 134H223.847ZM228.443 131.072V130.977C228.45 130.361 228.511 129.87 228.627 129.506C228.747 129.141 228.916 128.846 229.134 128.621C229.353 128.395 229.617 128.19 229.925 128.004C230.124 127.878 230.303 127.737 230.462 127.582C230.621 127.426 230.747 127.247 230.84 127.045C230.932 126.843 230.979 126.619 230.979 126.374C230.979 126.079 230.909 125.823 230.77 125.608C230.631 125.393 230.445 125.227 230.213 125.111C229.985 124.991 229.729 124.932 229.448 124.932C229.192 124.932 228.949 124.985 228.717 125.091C228.485 125.197 228.293 125.363 228.14 125.588C227.988 125.81 227.9 126.097 227.877 126.448H226.365C226.388 125.852 226.539 125.348 226.818 124.937C227.096 124.522 227.464 124.209 227.921 123.997C228.382 123.785 228.891 123.679 229.448 123.679C230.057 123.679 230.591 123.793 231.048 124.022C231.506 124.247 231.86 124.564 232.112 124.972C232.368 125.376 232.495 125.848 232.495 126.388C232.495 126.76 232.437 127.094 232.321 127.393C232.205 127.688 232.039 127.951 231.824 128.183C231.612 128.415 231.357 128.621 231.058 128.8C230.777 128.975 230.548 129.158 230.372 129.347C230.2 129.536 230.074 129.759 229.994 130.018C229.915 130.276 229.872 130.596 229.865 130.977V131.072H228.443ZM229.194 134.094C228.922 134.094 228.689 133.998 228.493 133.806C228.298 133.611 228.2 133.375 228.2 133.1C228.2 132.828 228.298 132.596 228.493 132.404C228.689 132.209 228.922 132.111 229.194 132.111C229.463 132.111 229.695 132.209 229.89 132.404C230.089 132.596 230.188 132.828 230.188 133.1C230.188 133.282 230.142 133.45 230.049 133.602C229.96 133.751 229.84 133.871 229.691 133.96C229.542 134.05 229.376 134.094 229.194 134.094Z" fill="#1A191E" fill-opacity="0.5"/>
<rect x="71" y="173" width="223" height="78" rx="10" fill="#F8F8F8"/>
<path d="M92.9631 189.909C92.9631 190.996 92.7642 191.931 92.3665 192.713C91.9688 193.492 91.4235 194.092 90.7308 194.513C90.0414 194.93 89.2576 195.139 88.3793 195.139C87.4976 195.139 86.7105 194.93 86.0178 194.513C85.3284 194.092 84.7848 193.49 84.3871 192.708C83.9893 191.926 83.7905 190.993 83.7905 189.909C83.7905 188.822 83.9893 187.889 84.3871 187.11C84.7848 186.328 85.3284 185.728 86.0178 185.31C86.7105 184.889 87.4976 184.679 88.3793 184.679C89.2576 184.679 90.0414 184.889 90.7308 185.31C91.4235 185.728 91.9688 186.328 92.3665 187.11C92.7642 187.889 92.9631 188.822 92.9631 189.909ZM91.4418 189.909C91.4418 189.08 91.3075 188.383 91.0391 187.816C90.7739 187.246 90.4093 186.815 89.9453 186.523C89.4846 186.228 88.9626 186.081 88.3793 186.081C87.7926 186.081 87.2689 186.228 86.8082 186.523C86.3475 186.815 85.983 187.246 85.7145 187.816C85.4493 188.383 85.3168 189.08 85.3168 189.909C85.3168 190.738 85.4493 191.437 85.7145 192.007C85.983 192.574 86.3475 193.005 86.8082 193.3C87.2689 193.591 87.7926 193.737 88.3793 193.737C88.9626 193.737 89.4846 193.591 89.9453 193.3C90.4093 193.005 90.7739 192.574 91.0391 192.007C91.3075 191.437 91.4418 190.738 91.4418 189.909ZM106.801 184.818V195H105.39L100.214 187.533H100.12V195H98.5835V184.818H100.005L105.186 192.295H105.28V184.818H106.801ZM112.214 195.154C111.462 195.154 110.814 194.993 110.27 194.672C109.73 194.347 109.313 193.891 109.018 193.305C108.726 192.715 108.58 192.024 108.58 191.232C108.58 190.449 108.726 189.76 109.018 189.163C109.313 188.567 109.724 188.101 110.251 187.766C110.781 187.432 111.401 187.264 112.11 187.264C112.541 187.264 112.958 187.335 113.363 187.478C113.767 187.621 114.13 187.844 114.452 188.149C114.773 188.454 115.027 188.85 115.212 189.337C115.398 189.821 115.491 190.41 115.491 191.102V191.629H109.42V190.516H114.034C114.034 190.125 113.954 189.778 113.795 189.477C113.636 189.172 113.412 188.931 113.124 188.756C112.839 188.58 112.504 188.492 112.12 188.492C111.702 188.492 111.338 188.595 111.026 188.8C110.718 189.003 110.479 189.268 110.31 189.596C110.144 189.921 110.062 190.274 110.062 190.655V191.525C110.062 192.035 110.151 192.469 110.33 192.827C110.512 193.185 110.766 193.459 111.091 193.648C111.416 193.833 111.795 193.926 112.229 193.926C112.511 193.926 112.768 193.886 113 193.807C113.232 193.724 113.432 193.601 113.601 193.439C113.77 193.277 113.9 193.076 113.989 192.837L115.396 193.091C115.283 193.505 115.081 193.868 114.79 194.18C114.501 194.488 114.138 194.728 113.701 194.901C113.267 195.07 112.771 195.154 112.214 195.154ZM120.357 195.154C119.641 195.154 119.016 194.99 118.482 194.662C117.949 194.334 117.534 193.875 117.239 193.285C116.944 192.695 116.797 192.005 116.797 191.217C116.797 190.424 116.944 189.732 117.239 189.138C117.534 188.545 117.949 188.085 118.482 187.756C119.016 187.428 119.641 187.264 120.357 187.264C121.072 187.264 121.697 187.428 122.231 187.756C122.764 188.085 123.179 188.545 123.474 189.138C123.769 189.732 123.916 190.424 123.916 191.217C123.916 192.005 123.769 192.695 123.474 193.285C123.179 193.875 122.764 194.334 122.231 194.662C121.697 194.99 121.072 195.154 120.357 195.154ZM120.362 193.906C120.826 193.906 121.21 193.784 121.515 193.538C121.82 193.293 122.045 192.967 122.191 192.559C122.34 192.151 122.415 191.702 122.415 191.212C122.415 190.724 122.34 190.277 122.191 189.869C122.045 189.458 121.82 189.129 121.515 188.88C121.21 188.631 120.826 188.507 120.362 188.507C119.894 188.507 119.506 188.631 119.198 188.88C118.893 189.129 118.666 189.458 118.517 189.869C118.371 190.277 118.298 190.724 118.298 191.212C118.298 191.702 118.371 192.151 118.517 192.559C118.666 192.967 118.893 193.293 119.198 193.538C119.506 193.784 119.894 193.906 120.362 193.906ZM125.695 195V184.818H129.423C130.146 184.818 130.744 184.937 131.218 185.176C131.692 185.411 132.047 185.731 132.282 186.136C132.517 186.537 132.635 186.989 132.635 187.493C132.635 187.917 132.557 188.275 132.401 188.567C132.246 188.855 132.037 189.087 131.775 189.263C131.517 189.435 131.231 189.561 130.92 189.641V189.74C131.258 189.757 131.588 189.866 131.909 190.068C132.234 190.267 132.503 190.55 132.715 190.918C132.927 191.286 133.033 191.734 133.033 192.261C133.033 192.781 132.91 193.248 132.665 193.663C132.423 194.074 132.048 194.4 131.541 194.642C131.034 194.881 130.386 195 129.597 195H125.695ZM127.231 193.683H129.448C130.184 193.683 130.711 193.54 131.029 193.255C131.347 192.97 131.507 192.614 131.507 192.186C131.507 191.865 131.425 191.57 131.263 191.301C131.101 191.033 130.869 190.819 130.567 190.66C130.269 190.501 129.914 190.421 129.503 190.421H127.231V193.683ZM127.231 189.223H129.289C129.634 189.223 129.944 189.157 130.219 189.024C130.497 188.892 130.718 188.706 130.88 188.467C131.046 188.225 131.129 187.94 131.129 187.612C131.129 187.191 130.981 186.838 130.686 186.553C130.391 186.268 129.939 186.126 129.329 186.126H127.231V189.223ZM136.958 195.169C136.474 195.169 136.037 195.08 135.645 194.901C135.254 194.718 134.944 194.455 134.716 194.11C134.49 193.765 134.378 193.343 134.378 192.842C134.378 192.411 134.461 192.057 134.626 191.778C134.792 191.5 135.016 191.28 135.297 191.117C135.579 190.955 135.894 190.832 136.242 190.749C136.59 190.666 136.945 190.603 137.306 190.56C137.763 190.507 138.135 190.464 138.42 190.431C138.705 190.395 138.912 190.337 139.041 190.257C139.17 190.178 139.235 190.048 139.235 189.869V189.835C139.235 189.4 139.112 189.064 138.867 188.825C138.625 188.587 138.264 188.467 137.783 188.467C137.283 188.467 136.888 188.578 136.6 188.8C136.315 189.019 136.118 189.263 136.008 189.531L134.611 189.213C134.777 188.749 135.019 188.375 135.337 188.089C135.659 187.801 136.028 187.592 136.446 187.463C136.863 187.33 137.303 187.264 137.763 187.264C138.068 187.264 138.391 187.301 138.733 187.374C139.077 187.443 139.399 187.572 139.697 187.761C139.999 187.95 140.246 188.22 140.438 188.572C140.63 188.92 140.726 189.372 140.726 189.929V195H139.275V193.956H139.215C139.119 194.148 138.975 194.337 138.782 194.523C138.59 194.708 138.343 194.862 138.042 194.985C137.74 195.108 137.379 195.169 136.958 195.169ZM137.281 193.976C137.692 193.976 138.043 193.895 138.335 193.732C138.63 193.57 138.854 193.358 139.006 193.096C139.162 192.831 139.24 192.547 139.24 192.246V191.261C139.187 191.314 139.084 191.364 138.932 191.411C138.782 191.454 138.612 191.492 138.42 191.525C138.227 191.555 138.04 191.583 137.858 191.609C137.675 191.633 137.523 191.652 137.4 191.669C137.112 191.705 136.849 191.767 136.61 191.853C136.375 191.939 136.186 192.063 136.043 192.226C135.904 192.385 135.834 192.597 135.834 192.862C135.834 193.23 135.97 193.509 136.242 193.697C136.514 193.883 136.86 193.976 137.281 193.976ZM144.193 190.466V195H142.706V187.364H144.133V188.607H144.228C144.403 188.202 144.678 187.877 145.053 187.632C145.431 187.387 145.906 187.264 146.48 187.264C147 187.264 147.456 187.374 147.847 187.592C148.238 187.808 148.541 188.129 148.757 188.557C148.972 188.984 149.08 189.513 149.08 190.143V195H147.593V190.322C147.593 189.768 147.449 189.336 147.161 189.024C146.873 188.709 146.476 188.552 145.973 188.552C145.628 188.552 145.321 188.626 145.053 188.776C144.788 188.925 144.577 189.143 144.422 189.432C144.269 189.717 144.193 190.062 144.193 190.466ZM152.441 192.41L152.431 190.595H152.689L155.732 187.364H157.512L154.042 191.043H153.808L152.441 192.41ZM151.074 195V184.818H152.56V195H151.074ZM155.896 195L153.162 191.371L154.186 190.332L157.721 195H155.896ZM165.863 195.154C165.11 195.154 164.462 194.993 163.919 194.672C163.379 194.347 162.961 193.891 162.666 193.305C162.374 192.715 162.229 192.024 162.229 191.232C162.229 190.449 162.374 189.76 162.666 189.163C162.961 188.567 163.372 188.101 163.899 187.766C164.429 187.432 165.049 187.264 165.758 187.264C166.189 187.264 166.607 187.335 167.011 187.478C167.416 187.621 167.778 187.844 168.1 188.149C168.421 188.454 168.675 188.85 168.861 189.337C169.046 189.821 169.139 190.41 169.139 191.102V191.629H163.069V190.516H167.682C167.682 190.125 167.603 189.778 167.444 189.477C167.285 189.172 167.061 188.931 166.773 188.756C166.488 188.58 166.153 188.492 165.768 188.492C165.351 188.492 164.986 188.595 164.675 188.8C164.366 189.003 164.128 189.268 163.959 189.596C163.793 189.921 163.71 190.274 163.71 190.655V191.525C163.71 192.035 163.8 192.469 163.979 192.827C164.161 193.185 164.414 193.459 164.739 193.648C165.064 193.833 165.443 193.926 165.878 193.926C166.159 193.926 166.416 193.886 166.648 193.807C166.88 193.724 167.081 193.601 167.25 193.439C167.419 193.277 167.548 193.076 167.638 192.837L169.045 193.091C168.932 193.505 168.73 193.868 168.438 194.18C168.15 194.488 167.787 194.728 167.349 194.901C166.915 195.07 166.42 195.154 165.863 195.154ZM165.087 186.344L166.251 184.053H167.817L166.275 186.344H165.087ZM177.71 195.154C176.994 195.154 176.369 194.99 175.836 194.662C175.302 194.334 174.888 193.875 174.593 193.285C174.298 192.695 174.15 192.005 174.15 191.217C174.15 190.424 174.298 189.732 174.593 189.138C174.888 188.545 175.302 188.085 175.836 187.756C176.369 187.428 176.994 187.264 177.71 187.264C178.426 187.264 179.051 187.428 179.584 187.756C180.118 188.085 180.532 188.545 180.827 189.138C181.122 189.732 181.27 190.424 181.27 191.217C181.27 192.005 181.122 192.695 180.827 193.285C180.532 193.875 180.118 194.334 179.584 194.662C179.051 194.99 178.426 195.154 177.71 195.154ZM177.715 193.906C178.179 193.906 178.564 193.784 178.868 193.538C179.173 193.293 179.399 192.967 179.545 192.559C179.694 192.151 179.768 191.702 179.768 191.212C179.768 190.724 179.694 190.277 179.545 189.869C179.399 189.458 179.173 189.129 178.868 188.88C178.564 188.631 178.179 188.507 177.715 188.507C177.248 188.507 176.86 188.631 176.552 188.88C176.247 189.129 176.02 189.458 175.871 189.869C175.725 190.277 175.652 190.724 175.652 191.212C175.652 191.702 175.725 192.151 175.871 192.559C176.02 192.967 176.247 193.293 176.552 193.538C176.86 193.784 177.248 193.906 177.715 193.906ZM193.167 187.364L190.398 195H188.807L186.032 187.364H187.628L189.562 193.24H189.642L191.571 187.364H193.167ZM197.595 195.154C196.843 195.154 196.195 194.993 195.651 194.672C195.111 194.347 194.693 193.891 194.398 193.305C194.107 192.715 193.961 192.024 193.961 191.232C193.961 190.449 194.107 189.76 194.398 189.163C194.693 188.567 195.104 188.101 195.631 187.766C196.162 187.432 196.781 187.264 197.491 187.264C197.922 187.264 198.339 187.335 198.744 187.478C199.148 187.621 199.511 187.844 199.832 188.149C200.154 188.454 200.407 188.85 200.593 189.337C200.779 189.821 200.871 190.41 200.871 191.102V191.629H194.801V190.516H199.415C199.415 190.125 199.335 189.778 199.176 189.477C199.017 189.172 198.793 188.931 198.505 188.756C198.22 188.58 197.885 188.492 197.501 188.492C197.083 188.492 196.719 188.595 196.407 188.8C196.099 189.003 195.86 189.268 195.691 189.596C195.525 189.921 195.442 190.274 195.442 190.655V191.525C195.442 192.035 195.532 192.469 195.711 192.827C195.893 193.185 196.147 193.459 196.472 193.648C196.796 193.833 197.176 193.926 197.61 193.926C197.892 193.926 198.149 193.886 198.381 193.807C198.613 193.724 198.813 193.601 198.982 193.439C199.151 193.277 199.281 193.076 199.37 192.837L200.777 193.091C200.664 193.505 200.462 193.868 200.17 194.18C199.882 194.488 199.519 194.728 199.082 194.901C198.647 195.07 198.152 195.154 197.595 195.154ZM202.521 195V187.364H203.958V188.577H204.037C204.176 188.166 204.422 187.843 204.773 187.607C205.128 187.369 205.529 187.249 205.976 187.249C206.069 187.249 206.178 187.253 206.304 187.259C206.433 187.266 206.535 187.274 206.607 187.284V188.706C206.548 188.689 206.442 188.671 206.289 188.651C206.137 188.628 205.984 188.616 205.832 188.616C205.481 188.616 205.167 188.691 204.892 188.84C204.62 188.986 204.405 189.19 204.246 189.452C204.087 189.71 204.007 190.005 204.007 190.337V195H202.521ZM210.479 195.149C209.863 195.149 209.312 194.992 208.828 194.677C208.348 194.359 207.97 193.906 207.695 193.32C207.423 192.73 207.287 192.022 207.287 191.197C207.287 190.371 207.425 189.665 207.7 189.079C207.978 188.492 208.359 188.043 208.843 187.732C209.327 187.42 209.876 187.264 210.489 187.264C210.963 187.264 211.344 187.344 211.632 187.503C211.924 187.659 212.15 187.841 212.309 188.05C212.471 188.259 212.597 188.442 212.686 188.602H212.776V184.818H214.262V195H212.811V193.812H212.686C212.597 193.974 212.468 194.16 212.299 194.369C212.133 194.577 211.904 194.76 211.613 194.915C211.321 195.071 210.943 195.149 210.479 195.149ZM210.807 193.881C211.235 193.881 211.596 193.769 211.891 193.543C212.189 193.315 212.415 192.998 212.567 192.594C212.723 192.189 212.801 191.719 212.801 191.182C212.801 190.652 212.725 190.187 212.572 189.79C212.42 189.392 212.196 189.082 211.901 188.86C211.606 188.638 211.241 188.527 210.807 188.527C210.36 188.527 209.987 188.643 209.689 188.875C209.39 189.107 209.165 189.424 209.012 189.825C208.863 190.226 208.789 190.678 208.789 191.182C208.789 191.692 208.865 192.151 209.017 192.559C209.17 192.967 209.395 193.29 209.694 193.528C209.995 193.764 210.366 193.881 210.807 193.881ZM218.606 195.169C218.122 195.169 217.685 195.08 217.294 194.901C216.903 194.718 216.593 194.455 216.364 194.11C216.139 193.765 216.026 193.343 216.026 192.842C216.026 192.411 216.109 192.057 216.275 191.778C216.44 191.5 216.664 191.28 216.946 191.117C217.228 190.955 217.542 190.832 217.89 190.749C218.238 190.666 218.593 190.603 218.954 190.56C219.412 190.507 219.783 190.464 220.068 190.431C220.353 190.395 220.56 190.337 220.689 190.257C220.819 190.178 220.883 190.048 220.883 189.869V189.835C220.883 189.4 220.761 189.064 220.515 188.825C220.273 188.587 219.912 188.467 219.432 188.467C218.931 188.467 218.537 188.578 218.248 188.8C217.963 189.019 217.766 189.263 217.657 189.531L216.26 189.213C216.425 188.749 216.667 188.375 216.986 188.089C217.307 187.801 217.677 187.592 218.094 187.463C218.512 187.33 218.951 187.264 219.412 187.264C219.717 187.264 220.04 187.301 220.381 187.374C220.726 187.443 221.047 187.572 221.346 187.761C221.647 187.95 221.894 188.22 222.086 188.572C222.279 188.92 222.375 189.372 222.375 189.929V195H220.923V193.956H220.863C220.767 194.148 220.623 194.337 220.431 194.523C220.239 194.708 219.992 194.862 219.69 194.985C219.389 195.108 219.027 195.169 218.606 195.169ZM218.93 193.976C219.34 193.976 219.692 193.895 219.983 193.732C220.278 193.57 220.502 193.358 220.655 193.096C220.81 192.831 220.888 192.547 220.888 192.246V191.261C220.835 191.314 220.733 191.364 220.58 191.411C220.431 191.454 220.26 191.492 220.068 191.525C219.876 191.555 219.689 191.583 219.506 191.609C219.324 191.633 219.171 191.652 219.049 191.669C218.76 191.705 218.497 191.767 218.258 191.853C218.023 191.939 217.834 192.063 217.692 192.226C217.552 192.385 217.483 192.597 217.483 192.862C217.483 193.23 217.619 193.509 217.89 193.697C218.162 193.883 218.509 193.976 218.93 193.976ZM227.213 195.149C226.597 195.149 226.047 194.992 225.563 194.677C225.082 194.359 224.704 193.906 224.429 193.32C224.158 192.73 224.022 192.022 224.022 191.197C224.022 190.371 224.159 189.665 224.434 189.079C224.713 188.492 225.094 188.043 225.578 187.732C226.062 187.42 226.61 187.264 227.223 187.264C227.697 187.264 228.078 187.344 228.367 187.503C228.658 187.659 228.884 187.841 229.043 188.05C229.205 188.259 229.331 188.442 229.421 188.602H229.51V184.818H230.997V195H229.545V193.812H229.421C229.331 193.974 229.202 194.16 229.033 194.369C228.867 194.577 228.639 194.76 228.347 194.915C228.055 195.071 227.677 195.149 227.213 195.149ZM227.542 193.881C227.969 193.881 228.33 193.769 228.625 193.543C228.924 193.315 229.149 192.998 229.301 192.594C229.457 192.189 229.535 191.719 229.535 191.182C229.535 190.652 229.459 190.187 229.306 189.79C229.154 189.392 228.93 189.082 228.635 188.86C228.34 188.638 227.976 188.527 227.542 188.527C227.094 188.527 226.721 188.643 226.423 188.875C226.125 189.107 225.899 189.424 225.747 189.825C225.598 190.226 225.523 190.678 225.523 191.182C225.523 191.692 225.599 192.151 225.752 192.559C225.904 192.967 226.13 193.29 226.428 193.528C226.73 193.764 227.101 193.881 227.542 193.881ZM236.41 195.154C235.657 195.154 235.009 194.993 234.466 194.672C233.925 194.347 233.508 193.891 233.213 193.305C232.921 192.715 232.775 192.024 232.775 191.232C232.775 190.449 232.921 189.76 233.213 189.163C233.508 188.567 233.919 188.101 234.446 187.766C234.976 187.432 235.596 187.264 236.305 187.264C236.736 187.264 237.154 187.335 237.558 187.478C237.962 187.621 238.325 187.844 238.647 188.149C238.968 188.454 239.222 188.85 239.407 189.337C239.593 189.821 239.686 190.41 239.686 191.102V191.629H233.616V190.516H238.229C238.229 190.125 238.15 189.778 237.991 189.477C237.831 189.172 237.608 188.931 237.319 188.756C237.034 188.58 236.7 188.492 236.315 188.492C235.898 188.492 235.533 188.595 235.221 188.8C234.913 189.003 234.675 189.268 234.506 189.596C234.34 189.921 234.257 190.274 234.257 190.655V191.525C234.257 192.035 234.346 192.469 234.525 192.827C234.708 193.185 234.961 193.459 235.286 193.648C235.611 193.833 235.99 193.926 236.425 193.926C236.706 193.926 236.963 193.886 237.195 193.807C237.427 193.724 237.628 193.601 237.797 193.439C237.966 193.277 238.095 193.076 238.184 192.837L239.591 193.091C239.479 193.505 239.277 193.868 238.985 194.18C238.697 194.488 238.334 194.728 237.896 194.901C237.462 195.07 236.966 195.154 236.41 195.154ZM241.335 195V187.364H242.822V195H241.335ZM242.086 186.185C241.827 186.185 241.605 186.099 241.42 185.927C241.237 185.751 241.146 185.542 241.146 185.3C241.146 185.055 241.237 184.846 241.42 184.674C241.605 184.498 241.827 184.411 242.086 184.411C242.344 184.411 242.565 184.498 242.747 184.674C242.933 184.846 243.026 185.055 243.026 185.3C243.026 185.542 242.933 185.751 242.747 185.927C242.565 186.099 242.344 186.185 242.086 186.185ZM244.822 195V187.364H246.258V188.577H246.338C246.477 188.166 246.722 187.843 247.074 187.607C247.428 187.369 247.829 187.249 248.277 187.249C248.37 187.249 248.479 187.253 248.605 187.259C248.734 187.266 248.835 187.274 248.908 187.284V188.706C248.849 188.689 248.742 188.671 248.59 188.651C248.438 188.628 248.285 188.616 248.133 188.616C247.781 188.616 247.468 188.691 247.193 188.84C246.921 188.986 246.706 189.19 246.547 189.452C246.388 189.71 246.308 190.005 246.308 190.337V195H244.822ZM253.138 195.154C252.422 195.154 251.797 194.99 251.263 194.662C250.73 194.334 250.316 193.875 250.021 193.285C249.726 192.695 249.578 192.005 249.578 191.217C249.578 190.424 249.726 189.732 250.021 189.138C250.316 188.545 250.73 188.085 251.263 187.756C251.797 187.428 252.422 187.264 253.138 187.264C253.854 187.264 254.478 187.428 255.012 187.756C255.546 188.085 255.96 188.545 256.255 189.138C256.55 189.732 256.697 190.424 256.697 191.217C256.697 192.005 256.55 192.695 256.255 193.285C255.96 193.875 255.546 194.334 255.012 194.662C254.478 194.99 253.854 195.154 253.138 195.154ZM253.143 193.906C253.607 193.906 253.991 193.784 254.296 193.538C254.601 193.293 254.826 192.967 254.972 192.559C255.121 192.151 255.196 191.702 255.196 191.212C255.196 190.724 255.121 190.277 254.972 189.869C254.826 189.458 254.601 189.129 254.296 188.88C253.991 188.631 253.607 188.507 253.143 188.507C252.675 188.507 252.288 188.631 251.979 188.88C251.674 189.129 251.447 189.458 251.298 189.869C251.152 190.277 251.08 190.724 251.08 191.212C251.08 191.702 251.152 192.151 251.298 192.559C251.447 192.967 251.674 193.293 251.979 193.538C252.288 193.784 252.675 193.906 253.143 193.906ZM83.9993 219.864V209.364H85.451V210.602H85.5753C85.6615 210.442 85.7857 210.259 85.9482 210.05C86.1106 209.841 86.3359 209.659 86.6243 209.503C86.9126 209.344 87.2938 209.264 87.7678 209.264C88.3842 209.264 88.9344 209.42 89.4183 209.732C89.9022 210.043 90.2817 210.492 90.5568 211.079C90.8352 211.665 90.9744 212.371 90.9744 213.197C90.9744 214.022 90.8369 214.73 90.5618 215.32C90.2867 215.906 89.9089 216.359 89.4283 216.677C88.9477 216.992 88.3991 217.149 87.7827 217.149C87.3187 217.149 86.9392 217.071 86.6442 216.915C86.3525 216.76 86.1238 216.577 85.9581 216.369C85.7924 216.16 85.6648 215.974 85.5753 215.812H85.4858V219.864H83.9993ZM85.456 213.182C85.456 213.719 85.5339 214.189 85.6896 214.594C85.8454 214.998 86.0708 215.315 86.3658 215.543C86.6607 215.769 87.022 215.881 87.4496 215.881C87.8937 215.881 88.2649 215.764 88.5632 215.528C88.8615 215.29 89.0869 214.967 89.2393 214.559C89.3951 214.151 89.473 213.692 89.473 213.182C89.473 212.678 89.3968 212.226 89.2443 211.825C89.0952 211.424 88.8698 211.107 88.5682 210.875C88.2699 210.643 87.897 210.527 87.4496 210.527C87.0187 210.527 86.6541 210.638 86.3558 210.86C86.0608 211.082 85.8371 211.392 85.6847 211.79C85.5322 212.187 85.456 212.652 85.456 213.182ZM94.8622 217.169C94.3783 217.169 93.9408 217.08 93.5497 216.901C93.1586 216.718 92.8487 216.455 92.62 216.11C92.3946 215.765 92.282 215.343 92.282 214.842C92.282 214.411 92.3648 214.057 92.5305 213.778C92.6963 213.5 92.92 213.28 93.2017 213.117C93.4834 212.955 93.7983 212.832 94.1463 212.749C94.4943 212.666 94.849 212.603 95.2102 212.56C95.6676 212.507 96.0388 212.464 96.3239 212.431C96.6089 212.395 96.8161 212.337 96.9453 212.257C97.0746 212.178 97.1392 212.048 97.1392 211.869V211.835C97.1392 211.4 97.0166 211.064 96.7713 210.825C96.5294 210.587 96.1681 210.467 95.6875 210.467C95.187 210.467 94.7926 210.578 94.5043 210.8C94.2192 211.019 94.022 211.263 93.9126 211.531L92.5156 211.213C92.6813 210.749 92.9233 210.375 93.2415 210.089C93.563 209.801 93.9325 209.592 94.3501 209.463C94.7678 209.33 95.2069 209.264 95.6676 209.264C95.9725 209.264 96.2957 209.301 96.6371 209.374C96.9818 209.443 97.3033 209.572 97.6016 209.761C97.9032 209.95 98.1501 210.22 98.3423 210.572C98.5346 210.92 98.6307 211.372 98.6307 211.929V217H97.179V215.956H97.1193C97.0232 216.148 96.879 216.337 96.6868 216.523C96.4946 216.708 96.2476 216.862 95.946 216.985C95.6444 217.108 95.2831 217.169 94.8622 217.169ZM95.1854 215.976C95.5964 215.976 95.9477 215.895 96.2393 215.732C96.5343 215.57 96.758 215.358 96.9105 215.096C97.0663 214.831 97.1442 214.547 97.1442 214.246V213.261C97.0911 213.314 96.9884 213.364 96.8359 213.411C96.6868 213.454 96.5161 213.492 96.3239 213.525C96.1316 213.555 95.9444 213.583 95.7621 213.609C95.5798 213.633 95.4273 213.652 95.3047 213.669C95.0163 213.705 94.7528 213.767 94.5142 213.853C94.2789 213.939 94.09 214.063 93.9474 214.226C93.8082 214.385 93.7386 214.597 93.7386 214.862C93.7386 215.23 93.8745 215.509 94.1463 215.697C94.4181 215.883 94.7644 215.976 95.1854 215.976ZM100.611 217V209.364H102.047V210.577H102.127C102.266 210.166 102.511 209.843 102.863 209.607C103.217 209.369 103.618 209.249 104.066 209.249C104.159 209.249 104.268 209.253 104.394 209.259C104.523 209.266 104.624 209.274 104.697 209.284V210.706C104.638 210.689 104.532 210.671 104.379 210.651C104.227 210.628 104.074 210.616 103.922 210.616C103.57 210.616 103.257 210.691 102.982 210.84C102.71 210.986 102.495 211.19 102.336 211.452C102.177 211.71 102.097 212.005 102.097 212.337V217H100.611ZM108.927 217.154C108.188 217.154 107.551 216.987 107.018 216.652C106.487 216.314 106.08 215.848 105.795 215.255C105.51 214.662 105.367 213.982 105.367 213.217C105.367 212.441 105.513 211.757 105.805 211.163C106.096 210.567 106.507 210.101 107.038 209.766C107.568 209.432 108.193 209.264 108.912 209.264C109.492 209.264 110.009 209.372 110.463 209.587C110.917 209.799 111.283 210.098 111.562 210.482C111.844 210.867 112.011 211.316 112.064 211.83H110.617C110.538 211.472 110.355 211.163 110.07 210.905C109.789 210.646 109.411 210.517 108.937 210.517C108.522 210.517 108.16 210.626 107.848 210.845C107.54 211.061 107.299 211.369 107.127 211.77C106.955 212.168 106.869 212.638 106.869 213.182C106.869 213.739 106.953 214.219 107.122 214.624C107.291 215.028 107.53 215.341 107.838 215.563C108.15 215.785 108.516 215.896 108.937 215.896C109.219 215.896 109.474 215.845 109.702 215.742C109.934 215.636 110.128 215.485 110.284 215.29C110.443 215.094 110.554 214.859 110.617 214.584H112.064C112.011 215.078 111.85 215.518 111.582 215.906C111.313 216.294 110.954 216.599 110.503 216.821C110.055 217.043 109.53 217.154 108.927 217.154ZM116.945 217.154C116.192 217.154 115.544 216.993 115.001 216.672C114.461 216.347 114.043 215.891 113.748 215.305C113.456 214.715 113.311 214.024 113.311 213.232C113.311 212.449 113.456 211.76 113.748 211.163C114.043 210.567 114.454 210.101 114.981 209.766C115.511 209.432 116.131 209.264 116.84 209.264C117.271 209.264 117.689 209.335 118.093 209.478C118.498 209.621 118.86 209.844 119.182 210.149C119.503 210.454 119.757 210.85 119.943 211.337C120.128 211.821 120.221 212.41 120.221 213.102V213.629H114.151V212.516H118.764C118.764 212.125 118.685 211.778 118.526 211.477C118.367 211.172 118.143 210.931 117.855 210.756C117.57 210.58 117.235 210.492 116.85 210.492C116.433 210.492 116.068 210.595 115.757 210.8C115.448 211.003 115.21 211.268 115.041 211.596C114.875 211.921 114.792 212.274 114.792 212.655V213.525C114.792 214.035 114.882 214.469 115.061 214.827C115.243 215.185 115.496 215.459 115.821 215.648C116.146 215.833 116.526 215.926 116.96 215.926C117.241 215.926 117.498 215.886 117.73 215.807C117.962 215.724 118.163 215.601 118.332 215.439C118.501 215.277 118.63 215.076 118.72 214.837L120.127 215.091C120.014 215.505 119.812 215.868 119.52 216.18C119.232 216.488 118.869 216.728 118.431 216.901C117.997 217.07 117.502 217.154 116.945 217.154ZM121.87 217V209.364H123.357V217H121.87ZM122.621 208.185C122.363 208.185 122.141 208.099 121.955 207.927C121.773 207.751 121.681 207.542 121.681 207.3C121.681 207.055 121.773 206.846 121.955 206.674C122.141 206.498 122.363 206.411 122.621 206.411C122.88 206.411 123.1 206.498 123.282 206.674C123.468 206.846 123.561 207.055 123.561 207.3C123.561 207.542 123.468 207.751 123.282 207.927C123.1 208.099 122.88 208.185 122.621 208.185ZM125.357 217V209.364H126.794V210.577H126.873C127.012 210.166 127.258 209.843 127.609 209.607C127.963 209.369 128.365 209.249 128.812 209.249C128.905 209.249 129.014 209.253 129.14 209.259C129.269 209.266 129.37 209.274 129.443 209.284V210.706C129.384 210.689 129.278 210.671 129.125 210.651C128.973 210.628 128.82 210.616 128.668 210.616C128.316 210.616 128.003 210.691 127.728 210.84C127.456 210.986 127.241 211.19 127.082 211.452C126.923 211.71 126.843 212.005 126.843 212.337V217H125.357ZM133.673 217.154C132.957 217.154 132.332 216.99 131.799 216.662C131.265 216.334 130.851 215.875 130.556 215.285C130.261 214.695 130.113 214.005 130.113 213.217C130.113 212.424 130.261 211.732 130.556 211.138C130.851 210.545 131.265 210.085 131.799 209.756C132.332 209.428 132.957 209.264 133.673 209.264C134.389 209.264 135.014 209.428 135.547 209.756C136.081 210.085 136.495 210.545 136.79 211.138C137.085 211.732 137.233 212.424 137.233 213.217C137.233 214.005 137.085 214.695 136.79 215.285C136.495 215.875 136.081 216.334 135.547 216.662C135.014 216.99 134.389 217.154 133.673 217.154ZM133.678 215.906C134.142 215.906 134.526 215.784 134.831 215.538C135.136 215.293 135.362 214.967 135.507 214.559C135.657 214.151 135.731 213.702 135.731 213.212C135.731 212.724 135.657 212.277 135.507 211.869C135.362 211.458 135.136 211.129 134.831 210.88C134.526 210.631 134.142 210.507 133.678 210.507C133.211 210.507 132.823 210.631 132.515 210.88C132.21 211.129 131.983 211.458 131.833 211.869C131.688 212.277 131.615 212.724 131.615 213.212C131.615 213.702 131.688 214.151 131.833 214.559C131.983 214.967 132.21 215.293 132.515 215.538C132.823 215.784 133.211 215.906 133.678 215.906ZM144.083 212.466V217H142.597V209.364H144.024V210.607H144.118C144.294 210.202 144.569 209.877 144.944 209.632C145.321 209.387 145.797 209.264 146.37 209.264C146.891 209.264 147.346 209.374 147.738 209.592C148.129 209.808 148.432 210.129 148.647 210.557C148.863 210.984 148.971 211.513 148.971 212.143V217H147.484V212.322C147.484 211.768 147.34 211.336 147.051 211.024C146.763 210.709 146.367 210.552 145.863 210.552C145.519 210.552 145.212 210.626 144.944 210.776C144.678 210.925 144.468 211.143 144.312 211.432C144.16 211.717 144.083 212.062 144.083 212.466ZM153.186 217.169C152.703 217.169 152.265 217.08 151.874 216.901C151.483 216.718 151.173 216.455 150.944 216.11C150.719 215.765 150.606 215.343 150.606 214.842C150.606 214.411 150.689 214.057 150.855 213.778C151.02 213.5 151.244 213.28 151.526 213.117C151.808 212.955 152.123 212.832 152.471 212.749C152.819 212.666 153.173 212.603 153.534 212.56C153.992 212.507 154.363 212.464 154.648 212.431C154.933 212.395 155.14 212.337 155.27 212.257C155.399 212.178 155.463 212.048 155.463 211.869V211.835C155.463 211.4 155.341 211.064 155.096 210.825C154.854 210.587 154.492 210.467 154.012 210.467C153.511 210.467 153.117 210.578 152.828 210.8C152.543 211.019 152.346 211.263 152.237 211.531L150.84 211.213C151.006 210.749 151.248 210.375 151.566 210.089C151.887 209.801 152.257 209.592 152.674 209.463C153.092 209.33 153.531 209.264 153.992 209.264C154.297 209.264 154.62 209.301 154.961 209.374C155.306 209.443 155.627 209.572 155.926 209.761C156.227 209.95 156.474 210.22 156.667 210.572C156.859 210.92 156.955 211.372 156.955 211.929V217H155.503V215.956H155.444C155.347 216.148 155.203 216.337 155.011 216.523C154.819 216.708 154.572 216.862 154.27 216.985C153.969 217.108 153.607 217.169 153.186 217.169ZM153.51 215.976C153.921 215.976 154.272 215.895 154.564 215.732C154.859 215.57 155.082 215.358 155.235 215.096C155.391 214.831 155.468 214.547 155.468 214.246V213.261C155.415 213.314 155.313 213.364 155.16 213.411C155.011 213.454 154.84 213.492 154.648 213.525C154.456 213.555 154.269 213.583 154.086 213.609C153.904 213.633 153.752 213.652 153.629 213.669C153.341 213.705 153.077 213.767 152.838 213.853C152.603 213.939 152.414 214.063 152.272 214.226C152.132 214.385 152.063 214.597 152.063 214.862C152.063 215.23 152.199 215.509 152.471 215.697C152.742 215.883 153.089 215.976 153.51 215.976ZM162.64 209.364H164.126V217.497C164.126 218.008 164.034 218.438 163.848 218.79C163.666 219.141 163.394 219.408 163.033 219.59C162.675 219.772 162.232 219.864 161.705 219.864C161.652 219.864 161.603 219.864 161.556 219.864C161.506 219.864 161.455 219.862 161.402 219.859V218.581C161.448 218.581 161.49 218.581 161.526 218.581C161.559 218.581 161.598 218.581 161.641 218.581C161.992 218.581 162.246 218.487 162.401 218.298C162.56 218.112 162.64 217.842 162.64 217.487V209.364ZM163.376 208.185C163.117 208.185 162.895 208.099 162.71 207.927C162.527 207.751 162.436 207.542 162.436 207.3C162.436 207.055 162.527 206.846 162.71 206.674C162.895 206.498 163.117 206.411 163.376 206.411C163.634 206.411 163.855 206.498 164.037 206.674C164.223 206.846 164.315 207.055 164.315 207.3C164.315 207.542 164.223 207.751 164.037 207.927C163.855 208.099 163.634 208.185 163.376 208.185ZM169.343 217.154C168.627 217.154 168.002 216.99 167.469 216.662C166.935 216.334 166.521 215.875 166.226 215.285C165.931 214.695 165.783 214.005 165.783 213.217C165.783 212.424 165.931 211.732 166.226 211.138C166.521 210.545 166.935 210.085 167.469 209.756C168.002 209.428 168.627 209.264 169.343 209.264C170.059 209.264 170.684 209.428 171.217 209.756C171.751 210.085 172.165 210.545 172.46 211.138C172.755 211.732 172.903 212.424 172.903 213.217C172.903 214.005 172.755 214.695 172.46 215.285C172.165 215.875 171.751 216.334 171.217 216.662C170.684 216.99 170.059 217.154 169.343 217.154ZM169.348 215.906C169.812 215.906 170.196 215.784 170.501 215.538C170.806 215.293 171.032 214.967 171.177 214.559C171.327 214.151 171.401 213.702 171.401 213.212C171.401 212.724 171.327 212.277 171.177 211.869C171.032 211.458 170.806 211.129 170.501 210.88C170.196 210.631 169.812 210.507 169.348 210.507C168.881 210.507 168.493 210.631 168.184 210.88C167.88 211.129 167.653 211.458 167.503 211.869C167.358 212.277 167.285 212.724 167.285 213.212C167.285 213.702 167.358 214.151 167.503 214.559C167.653 214.967 167.88 215.293 168.184 215.538C168.493 215.784 168.881 215.906 169.348 215.906ZM174.562 217V209.364H175.999V210.577H176.078C176.217 210.166 176.463 209.843 176.814 209.607C177.169 209.369 177.57 209.249 178.017 209.249C178.11 209.249 178.219 209.253 178.345 209.259C178.474 209.266 178.576 209.274 178.648 209.284V210.706C178.589 210.689 178.483 210.671 178.33 210.651C178.178 210.628 178.025 210.616 177.873 210.616C177.522 210.616 177.208 210.691 176.933 210.84C176.661 210.986 176.446 211.19 176.287 211.452C176.128 211.71 176.048 212.005 176.048 212.337V217H174.562ZM181.421 212.466V217H179.935V209.364H181.362V210.607H181.456C181.632 210.202 181.907 209.877 182.281 209.632C182.659 209.387 183.135 209.264 183.708 209.264C184.229 209.264 184.684 209.374 185.075 209.592C185.467 209.808 185.77 210.129 185.985 210.557C186.201 210.984 186.308 211.513 186.308 212.143V217H184.822V212.322C184.822 211.768 184.678 211.336 184.389 211.024C184.101 210.709 183.705 210.552 183.201 210.552C182.856 210.552 182.55 210.626 182.281 210.776C182.016 210.925 181.806 211.143 181.65 211.432C181.498 211.717 181.421 212.062 181.421 212.466ZM190.524 217.169C190.04 217.169 189.603 217.08 189.212 216.901C188.821 216.718 188.511 216.455 188.282 216.11C188.057 215.765 187.944 215.343 187.944 214.842C187.944 214.411 188.027 214.057 188.193 213.778C188.358 213.5 188.582 213.28 188.864 213.117C189.146 212.955 189.46 212.832 189.808 212.749C190.156 212.666 190.511 212.603 190.872 212.56C191.33 212.507 191.701 212.464 191.986 212.431C192.271 212.395 192.478 212.337 192.607 212.257C192.737 212.178 192.801 212.048 192.801 211.869V211.835C192.801 211.4 192.679 211.064 192.433 210.825C192.191 210.587 191.83 210.467 191.35 210.467C190.849 210.467 190.455 210.578 190.166 210.8C189.881 211.019 189.684 211.263 189.575 211.531L188.178 211.213C188.343 210.749 188.585 210.375 188.904 210.089C189.225 209.801 189.595 209.592 190.012 209.463C190.43 209.33 190.869 209.264 191.33 209.264C191.635 209.264 191.958 209.301 192.299 209.374C192.644 209.443 192.965 209.572 193.264 209.761C193.565 209.95 193.812 210.22 194.004 210.572C194.197 210.92 194.293 211.372 194.293 211.929V217H192.841V215.956H192.781C192.685 216.148 192.541 216.337 192.349 216.523C192.157 216.708 191.91 216.862 191.608 216.985C191.307 217.108 190.945 217.169 190.524 217.169ZM190.847 215.976C191.258 215.976 191.61 215.895 191.901 215.732C192.196 215.57 192.42 215.358 192.573 215.096C192.728 214.831 192.806 214.547 192.806 214.246V213.261C192.753 213.314 192.651 213.364 192.498 213.411C192.349 213.454 192.178 213.492 191.986 213.525C191.794 213.555 191.606 213.583 191.424 213.609C191.242 213.633 191.089 213.652 190.967 213.669C190.678 213.705 190.415 213.767 190.176 213.853C189.941 213.939 189.752 214.063 189.61 214.226C189.47 214.385 189.401 214.597 189.401 214.862C189.401 215.23 189.537 215.509 189.808 215.697C190.08 215.883 190.427 215.976 190.847 215.976ZM199.131 217.149C198.515 217.149 197.965 216.992 197.481 216.677C197 216.359 196.622 215.906 196.347 215.32C196.076 214.73 195.94 214.022 195.94 213.197C195.94 212.371 196.077 211.665 196.352 211.079C196.631 210.492 197.012 210.043 197.496 209.732C197.98 209.42 198.528 209.264 199.141 209.264C199.615 209.264 199.996 209.344 200.285 209.503C200.576 209.659 200.802 209.841 200.961 210.05C201.123 210.259 201.249 210.442 201.339 210.602H201.428V206.818H202.915V217H201.463V215.812H201.339C201.249 215.974 201.12 216.16 200.951 216.369C200.785 216.577 200.557 216.76 200.265 216.915C199.973 217.071 199.595 217.149 199.131 217.149ZM199.46 215.881C199.887 215.881 200.248 215.769 200.543 215.543C200.842 215.315 201.067 214.998 201.219 214.594C201.375 214.189 201.453 213.719 201.453 213.182C201.453 212.652 201.377 212.187 201.224 211.79C201.072 211.392 200.848 211.082 200.553 210.86C200.258 210.638 199.894 210.527 199.46 210.527C199.012 210.527 198.639 210.643 198.341 210.875C198.043 211.107 197.817 211.424 197.665 211.825C197.516 212.226 197.441 212.678 197.441 213.182C197.441 213.692 197.517 214.151 197.67 214.559C197.822 214.967 198.048 215.29 198.346 215.528C198.647 215.764 199.019 215.881 199.46 215.881ZM207.259 217.169C206.775 217.169 206.337 217.08 205.946 216.901C205.555 216.718 205.245 216.455 205.017 216.11C204.791 215.765 204.678 215.343 204.678 214.842C204.678 214.411 204.761 214.057 204.927 213.778C205.093 213.5 205.316 213.28 205.598 213.117C205.88 212.955 206.195 212.832 206.543 212.749C206.891 212.666 207.245 212.603 207.607 212.56C208.064 212.507 208.435 212.464 208.72 212.431C209.005 212.395 209.213 212.337 209.342 212.257C209.471 212.178 209.536 212.048 209.536 211.869V211.835C209.536 211.4 209.413 211.064 209.168 210.825C208.926 210.587 208.565 210.467 208.084 210.467C207.584 210.467 207.189 210.578 206.901 210.8C206.616 211.019 206.419 211.263 206.309 211.531L204.912 211.213C205.078 210.749 205.32 210.375 205.638 210.089C205.959 209.801 206.329 209.592 206.747 209.463C207.164 209.33 207.603 209.264 208.064 209.264C208.369 209.264 208.692 209.301 209.034 209.374C209.378 209.443 209.7 209.572 209.998 209.761C210.3 209.95 210.547 210.22 210.739 210.572C210.931 210.92 211.027 211.372 211.027 211.929V217H209.575V215.956H209.516C209.42 216.148 209.276 216.337 209.083 216.523C208.891 216.708 208.644 216.862 208.343 216.985C208.041 217.108 207.68 217.169 207.259 217.169ZM207.582 215.976C207.993 215.976 208.344 215.895 208.636 215.732C208.931 215.57 209.155 215.358 209.307 215.096C209.463 214.831 209.541 214.547 209.541 214.246V213.261C209.488 213.314 209.385 213.364 209.232 213.411C209.083 213.454 208.913 213.492 208.72 213.525C208.528 213.555 208.341 213.583 208.159 213.609C207.976 213.633 207.824 213.652 207.701 213.669C207.413 213.705 207.149 213.767 206.911 213.853C206.675 213.939 206.486 214.063 206.344 214.226C206.205 214.385 206.135 214.597 206.135 214.862C206.135 215.23 206.271 215.509 206.543 215.697C206.815 215.883 207.161 215.976 207.582 215.976ZM220.346 209.364V210.557H216.031V209.364H220.346ZM217.214 217V208.479C217.214 208.001 217.319 207.605 217.528 207.29C217.736 206.972 218.013 206.735 218.358 206.58C218.702 206.42 219.077 206.341 219.481 206.341C219.78 206.341 220.035 206.366 220.247 206.415C220.459 206.462 220.617 206.505 220.719 206.545L220.371 207.748C220.302 207.728 220.212 207.705 220.103 207.678C219.993 207.648 219.861 207.634 219.705 207.634C219.344 207.634 219.085 207.723 218.93 207.902C218.777 208.081 218.701 208.339 218.701 208.678V217H217.214ZM221.88 217V209.364H223.367V217H221.88ZM222.631 208.185C222.372 208.185 222.15 208.099 221.965 207.927C221.782 207.751 221.691 207.542 221.691 207.3C221.691 207.055 221.782 206.846 221.965 206.674C222.15 206.498 222.372 206.411 222.631 206.411C222.889 206.411 223.11 206.498 223.292 206.674C223.478 206.846 223.57 207.055 223.57 207.3C223.57 207.542 223.478 207.751 223.292 207.927C223.11 208.099 222.889 208.185 222.631 208.185ZM226.853 212.466V217H225.366V209.364H226.793V210.607H226.888C227.063 210.202 227.339 209.877 227.713 209.632C228.091 209.387 228.567 209.264 229.14 209.264C229.66 209.264 230.116 209.374 230.507 209.592C230.898 209.808 231.201 210.129 231.417 210.557C231.632 210.984 231.74 211.513 231.74 212.143V217H230.254V212.322C230.254 211.768 230.109 211.336 229.821 211.024C229.533 210.709 229.137 210.552 228.633 210.552C228.288 210.552 227.982 210.626 227.713 210.776C227.448 210.925 227.237 211.143 227.082 211.432C226.929 211.717 226.853 212.062 226.853 212.466ZM235.956 217.169C235.472 217.169 235.035 217.08 234.643 216.901C234.252 216.718 233.942 216.455 233.714 216.11C233.488 215.765 233.376 215.343 233.376 214.842C233.376 214.411 233.459 214.057 233.624 213.778C233.79 213.5 234.014 213.28 234.295 213.117C234.577 212.955 234.892 212.832 235.24 212.749C235.588 212.666 235.943 212.603 236.304 212.56C236.761 212.507 237.133 212.464 237.418 212.431C237.703 212.395 237.91 212.337 238.039 212.257C238.168 212.178 238.233 212.048 238.233 211.869V211.835C238.233 211.4 238.11 211.064 237.865 210.825C237.623 210.587 237.262 210.467 236.781 210.467C236.281 210.467 235.886 210.578 235.598 210.8C235.313 211.019 235.116 211.263 235.006 211.531L233.609 211.213C233.775 210.749 234.017 210.375 234.335 210.089C234.657 209.801 235.026 209.592 235.444 209.463C235.862 209.33 236.301 209.264 236.761 209.264C237.066 209.264 237.389 209.301 237.731 209.374C238.076 209.443 238.397 209.572 238.695 209.761C238.997 209.95 239.244 210.22 239.436 210.572C239.628 210.92 239.724 211.372 239.724 211.929V217H238.273V215.956H238.213C238.117 216.148 237.973 216.337 237.781 216.523C237.588 216.708 237.341 216.862 237.04 216.985C236.738 217.108 236.377 217.169 235.956 217.169ZM236.279 215.976C236.69 215.976 237.041 215.895 237.333 215.732C237.628 215.57 237.852 215.358 238.004 215.096C238.16 214.831 238.238 214.547 238.238 214.246V213.261C238.185 213.314 238.082 213.364 237.93 213.411C237.781 213.454 237.61 213.492 237.418 213.525C237.225 213.555 237.038 213.583 236.856 213.609C236.674 213.633 236.521 213.652 236.398 213.669C236.11 213.705 235.847 213.767 235.608 213.853C235.373 213.939 235.184 214.063 235.041 214.226C234.902 214.385 234.832 214.597 234.832 214.862C234.832 215.23 234.968 215.509 235.24 215.697C235.512 215.883 235.858 215.976 236.279 215.976ZM243.191 212.466V217H241.704V209.364H243.131V210.607H243.226C243.401 210.202 243.676 209.877 244.051 209.632C244.429 209.387 244.904 209.264 245.478 209.264C245.998 209.264 246.454 209.374 246.845 209.592C247.236 209.808 247.539 210.129 247.755 210.557C247.97 210.984 248.078 211.513 248.078 212.143V217H246.591V212.322C246.591 211.768 246.447 211.336 246.159 211.024C245.871 210.709 245.474 210.552 244.971 210.552C244.626 210.552 244.319 210.626 244.051 210.776C243.786 210.925 243.575 211.143 243.42 211.432C243.267 211.717 243.191 212.062 243.191 212.466ZM253.288 217.154C252.549 217.154 251.913 216.987 251.379 216.652C250.849 216.314 250.441 215.848 250.156 215.255C249.871 214.662 249.729 213.982 249.729 213.217C249.729 212.441 249.874 211.757 250.166 211.163C250.458 210.567 250.869 210.101 251.399 209.766C251.929 209.432 252.554 209.264 253.273 209.264C253.853 209.264 254.37 209.372 254.824 209.587C255.278 209.799 255.645 210.098 255.923 210.482C256.205 210.867 256.372 211.316 256.425 211.83H254.979C254.899 211.472 254.717 211.163 254.432 210.905C254.15 210.646 253.772 210.517 253.298 210.517C252.884 210.517 252.521 210.626 252.209 210.845C251.901 211.061 251.661 211.369 251.488 211.77C251.316 212.168 251.23 212.638 251.23 213.182C251.23 213.739 251.314 214.219 251.483 214.624C251.653 215.028 251.891 215.341 252.199 215.563C252.511 215.785 252.877 215.896 253.298 215.896C253.58 215.896 253.835 215.845 254.064 215.742C254.296 215.636 254.49 215.485 254.645 215.29C254.805 215.094 254.916 214.859 254.979 214.584H256.425C256.372 215.078 256.211 215.518 255.943 215.906C255.675 216.294 255.315 216.599 254.864 216.821C254.417 217.043 253.891 217.154 253.288 217.154ZM261.306 217.154C260.554 217.154 259.906 216.993 259.362 216.672C258.822 216.347 258.404 215.891 258.109 215.305C257.818 214.715 257.672 214.024 257.672 213.232C257.672 212.449 257.818 211.76 258.109 211.163C258.404 210.567 258.815 210.101 259.342 209.766C259.873 209.432 260.492 209.264 261.202 209.264C261.633 209.264 262.05 209.335 262.455 209.478C262.859 209.621 263.222 209.844 263.543 210.149C263.865 210.454 264.118 210.85 264.304 211.337C264.49 211.821 264.582 212.41 264.582 213.102V213.629H258.512V212.516H263.126C263.126 212.125 263.046 211.778 262.887 211.477C262.728 211.172 262.504 210.931 262.216 210.756C261.931 210.58 261.596 210.492 261.212 210.492C260.794 210.492 260.429 210.595 260.118 210.8C259.81 211.003 259.571 211.268 259.402 211.596C259.236 211.921 259.153 212.274 259.153 212.655V213.525C259.153 214.035 259.243 214.469 259.422 214.827C259.604 215.185 259.858 215.459 260.183 215.648C260.507 215.833 260.887 215.926 261.321 215.926C261.603 215.926 261.86 215.886 262.092 215.807C262.324 215.724 262.524 215.601 262.693 215.439C262.862 215.277 262.991 215.076 263.081 214.837L264.488 215.091C264.375 215.505 264.173 215.868 263.881 216.18C263.593 216.488 263.23 216.728 262.793 216.901C262.358 217.07 261.863 217.154 261.306 217.154ZM266.232 217V209.364H267.718V217H266.232ZM266.982 208.185C266.724 208.185 266.502 208.099 266.316 207.927C266.134 207.751 266.043 207.542 266.043 207.3C266.043 207.055 266.134 206.846 266.316 206.674C266.502 206.498 266.724 206.411 266.982 206.411C267.241 206.411 267.461 206.498 267.644 206.674C267.829 206.846 267.922 207.055 267.922 207.3C267.922 207.542 267.829 207.751 267.644 207.927C267.461 208.099 267.241 208.185 266.982 208.185ZM269.718 217V209.364H271.155V210.577H271.234C271.374 210.166 271.619 209.843 271.97 209.607C272.325 209.369 272.726 209.249 273.173 209.249C273.266 209.249 273.375 209.253 273.501 209.259C273.631 209.266 273.732 209.274 273.805 209.284V210.706C273.745 210.689 273.639 210.671 273.487 210.651C273.334 210.628 273.182 210.616 273.029 210.616C272.678 210.616 272.365 210.691 272.089 210.84C271.818 210.986 271.602 211.19 271.443 211.452C271.284 211.71 271.205 212.005 271.205 212.337V217H269.718ZM277.245 217.169C276.761 217.169 276.324 217.08 275.933 216.901C275.541 216.718 275.232 216.455 275.003 216.11C274.777 215.765 274.665 215.343 274.665 214.842C274.665 214.411 274.748 214.057 274.913 213.778C275.079 213.5 275.303 213.28 275.585 213.117C275.866 212.955 276.181 212.832 276.529 212.749C276.877 212.666 277.232 212.603 277.593 212.56C278.05 212.507 278.422 212.464 278.707 212.431C278.992 212.395 279.199 212.337 279.328 212.257C279.457 212.178 279.522 212.048 279.522 211.869V211.835C279.522 211.4 279.399 211.064 279.154 210.825C278.912 210.587 278.551 210.467 278.07 210.467C277.57 210.467 277.175 210.578 276.887 210.8C276.602 211.019 276.405 211.263 276.295 211.531L274.898 211.213C275.064 210.749 275.306 210.375 275.624 210.089C275.946 209.801 276.315 209.592 276.733 209.463C277.151 209.33 277.59 209.264 278.05 209.264C278.355 209.264 278.679 209.301 279.02 209.374C279.365 209.443 279.686 209.572 279.984 209.761C280.286 209.95 280.533 210.22 280.725 210.572C280.917 210.92 281.013 211.372 281.013 211.929V217H279.562V215.956H279.502C279.406 216.148 279.262 216.337 279.07 216.523C278.877 216.708 278.63 216.862 278.329 216.985C278.027 217.108 277.666 217.169 277.245 217.169ZM277.568 215.976C277.979 215.976 278.33 215.895 278.622 215.732C278.917 215.57 279.141 215.358 279.293 215.096C279.449 214.831 279.527 214.547 279.527 214.246V213.261C279.474 213.314 279.371 213.364 279.219 213.411C279.07 213.454 278.899 213.492 278.707 213.525C278.514 213.555 278.327 213.583 278.145 213.609C277.963 213.633 277.81 213.652 277.688 213.669C277.399 213.705 277.136 213.767 276.897 213.853C276.662 213.939 276.473 214.063 276.33 214.226C276.191 214.385 276.121 214.597 276.121 214.862C276.121 215.23 276.257 215.509 276.529 215.697C276.801 215.883 277.147 215.976 277.568 215.976ZM86.858 239.149C86.2415 239.149 85.6913 238.992 85.2074 238.677C84.7268 238.359 84.349 237.906 84.0739 237.32C83.8021 236.73 83.6662 236.022 83.6662 235.197C83.6662 234.371 83.8037 233.665 84.0788 233.079C84.3572 232.492 84.7384 232.043 85.2223 231.732C85.7062 231.42 86.2547 231.264 86.8679 231.264C87.3419 231.264 87.723 231.344 88.0114 231.503C88.303 231.659 88.5284 231.841 88.6875 232.05C88.8499 232.259 88.9759 232.442 89.0653 232.602H89.1548V228.818H90.6413V239H89.1896V237.812H89.0653C88.9759 237.974 88.8466 238.16 88.6776 238.369C88.5118 238.577 88.2831 238.76 87.9915 238.915C87.6998 239.071 87.322 239.149 86.858 239.149ZM87.1861 237.881C87.6136 237.881 87.9749 237.769 88.2699 237.543C88.5682 237.315 88.7936 236.998 88.946 236.594C89.1018 236.189 89.1797 235.719 89.1797 235.182C89.1797 234.652 89.1035 234.187 88.951 233.79C88.7985 233.392 88.5748 233.082 88.2798 232.86C87.9848 232.638 87.6203 232.527 87.1861 232.527C86.7386 232.527 86.3658 232.643 86.0675 232.875C85.7692 233.107 85.5438 233.424 85.3913 233.825C85.2422 234.226 85.1676 234.678 85.1676 235.182C85.1676 235.692 85.2438 236.151 85.3963 236.559C85.5488 236.967 85.7741 237.29 86.0724 237.528C86.3741 237.764 86.7453 237.881 87.1861 237.881ZM96.0542 239.154C95.3018 239.154 94.6538 238.993 94.1103 238.672C93.57 238.347 93.1524 237.891 92.8574 237.305C92.5658 236.715 92.4199 236.024 92.4199 235.232C92.4199 234.449 92.5658 233.76 92.8574 233.163C93.1524 232.567 93.5634 232.101 94.0904 231.766C94.6207 231.432 95.2405 231.264 95.9498 231.264C96.3806 231.264 96.7982 231.335 97.2026 231.478C97.6069 231.621 97.9699 231.844 98.2914 232.149C98.6129 232.454 98.8664 232.85 99.052 233.337C99.2376 233.821 99.3304 234.41 99.3304 235.102V235.629H93.2601V234.516H97.8738C97.8738 234.125 97.7942 233.778 97.6351 233.477C97.476 233.172 97.2523 232.931 96.964 232.756C96.6789 232.58 96.3442 232.492 95.9597 232.492C95.5421 232.492 95.1775 232.595 94.8659 232.8C94.5577 233.003 94.3191 233.268 94.15 233.596C93.9843 233.921 93.9015 234.274 93.9015 234.655V235.525C93.9015 236.035 93.9909 236.469 94.1699 236.827C94.3522 237.185 94.6058 237.459 94.9306 237.648C95.2554 237.833 95.6349 237.926 96.0691 237.926C96.3508 237.926 96.6077 237.886 96.8397 237.807C97.0717 237.724 97.2722 237.601 97.4412 237.439C97.6103 237.277 97.7395 237.076 97.829 236.837L99.236 237.091C99.1233 237.505 98.9211 237.868 98.6294 238.18C98.3411 238.488 97.9782 238.728 97.5407 238.901C97.1065 239.07 96.611 239.154 96.0542 239.154ZM107.901 239.154C107.162 239.154 106.526 238.987 105.992 238.652C105.462 238.314 105.054 237.848 104.769 237.255C104.484 236.662 104.342 235.982 104.342 235.217C104.342 234.441 104.488 233.757 104.779 233.163C105.071 232.567 105.482 232.101 106.012 231.766C106.543 231.432 107.167 231.264 107.887 231.264C108.467 231.264 108.984 231.372 109.438 231.587C109.892 231.799 110.258 232.098 110.536 232.482C110.818 232.867 110.985 233.316 111.039 233.83H109.592C109.512 233.472 109.33 233.163 109.045 232.905C108.763 232.646 108.385 232.517 107.911 232.517C107.497 232.517 107.134 232.626 106.823 232.845C106.514 233.061 106.274 233.369 106.102 233.77C105.929 234.168 105.843 234.638 105.843 235.182C105.843 235.739 105.928 236.219 106.097 236.624C106.266 237.028 106.504 237.341 106.813 237.563C107.124 237.785 107.49 237.896 107.911 237.896C108.193 237.896 108.448 237.845 108.677 237.742C108.909 237.636 109.103 237.485 109.259 237.29C109.418 237.094 109.529 236.859 109.592 236.584H111.039C110.985 237.078 110.825 237.518 110.556 237.906C110.288 238.294 109.928 238.599 109.477 238.821C109.03 239.043 108.505 239.154 107.901 239.154ZM114.85 239.169C114.367 239.169 113.929 239.08 113.538 238.901C113.147 238.718 112.837 238.455 112.608 238.11C112.383 237.765 112.27 237.343 112.27 236.842C112.27 236.411 112.353 236.057 112.519 235.778C112.685 235.5 112.908 235.28 113.19 235.117C113.472 234.955 113.787 234.832 114.135 234.749C114.483 234.666 114.837 234.603 115.199 234.56C115.656 234.507 116.027 234.464 116.312 234.431C116.597 234.395 116.804 234.337 116.934 234.257C117.063 234.178 117.127 234.048 117.127 233.869V233.835C117.127 233.4 117.005 233.064 116.76 232.825C116.518 232.587 116.156 232.467 115.676 232.467C115.175 232.467 114.781 232.578 114.493 232.8C114.208 233.019 114.01 233.263 113.901 233.531L112.504 233.213C112.67 232.749 112.912 232.375 113.23 232.089C113.551 231.801 113.921 231.592 114.338 231.463C114.756 231.33 115.195 231.264 115.656 231.264C115.961 231.264 116.284 231.301 116.625 231.374C116.97 231.443 117.292 231.572 117.59 231.761C117.891 231.95 118.138 232.22 118.331 232.572C118.523 232.92 118.619 233.372 118.619 233.929V239H117.167V237.956H117.108C117.011 238.148 116.867 238.337 116.675 238.523C116.483 238.708 116.236 238.862 115.934 238.985C115.633 239.108 115.271 239.169 114.85 239.169ZM115.174 237.976C115.585 237.976 115.936 237.895 116.228 237.732C116.523 237.57 116.746 237.358 116.899 237.096C117.055 236.831 117.132 236.547 117.132 236.246V235.261C117.079 235.314 116.977 235.364 116.824 235.411C116.675 235.454 116.504 235.492 116.312 235.525C116.12 235.555 115.933 235.583 115.75 235.609C115.568 235.633 115.416 235.652 115.293 235.669C115.005 235.705 114.741 235.767 114.502 235.853C114.267 235.939 114.078 236.063 113.936 236.226C113.797 236.385 113.727 236.597 113.727 236.862C113.727 237.23 113.863 237.509 114.135 237.697C114.406 237.883 114.753 237.976 115.174 237.976ZM123.458 239.149C122.841 239.149 122.291 238.992 121.807 238.677C121.326 238.359 120.949 237.906 120.673 237.32C120.402 236.73 120.266 236.022 120.266 235.197C120.266 234.371 120.403 233.665 120.678 233.079C120.957 232.492 121.338 232.043 121.822 231.732C122.306 231.42 122.854 231.264 123.468 231.264C123.941 231.264 124.323 231.344 124.611 231.503C124.903 231.659 125.128 231.841 125.287 232.05C125.45 232.259 125.575 232.442 125.665 232.602H125.754V228.818H127.241V239H125.789V237.812H125.665C125.575 237.974 125.446 238.16 125.277 238.369C125.111 238.577 124.883 238.76 124.591 238.915C124.299 239.071 123.922 239.149 123.458 239.149ZM123.786 237.881C124.213 237.881 124.575 237.769 124.869 237.543C125.168 237.315 125.393 236.998 125.546 236.594C125.701 236.189 125.779 235.719 125.779 235.182C125.779 234.652 125.703 234.187 125.551 233.79C125.398 233.392 125.174 233.082 124.879 232.86C124.584 232.638 124.22 232.527 123.786 232.527C123.338 232.527 122.965 232.643 122.667 232.875C122.369 233.107 122.143 233.424 121.991 233.825C121.842 234.226 121.767 234.678 121.767 235.182C121.767 235.692 121.843 236.151 121.996 236.559C122.148 236.967 122.374 237.29 122.672 237.528C122.974 237.764 123.345 237.881 123.786 237.881ZM131.585 239.169C131.101 239.169 130.663 239.08 130.272 238.901C129.881 238.718 129.571 238.455 129.343 238.11C129.117 237.765 129.005 237.343 129.005 236.842C129.005 236.411 129.087 236.057 129.253 235.778C129.419 235.5 129.643 235.28 129.924 235.117C130.206 234.955 130.521 234.832 130.869 234.749C131.217 234.666 131.572 234.603 131.933 234.56C132.39 234.507 132.761 234.464 133.047 234.431C133.332 234.395 133.539 234.337 133.668 234.257C133.797 234.178 133.862 234.048 133.862 233.869V233.835C133.862 233.4 133.739 233.064 133.494 232.825C133.252 232.587 132.891 232.467 132.41 232.467C131.91 232.467 131.515 232.578 131.227 232.8C130.942 233.019 130.745 233.263 130.635 233.531L129.238 233.213C129.404 232.749 129.646 232.375 129.964 232.089C130.286 231.801 130.655 231.592 131.073 231.463C131.49 231.33 131.93 231.264 132.39 231.264C132.695 231.264 133.018 231.301 133.36 231.374C133.704 231.443 134.026 231.572 134.324 231.761C134.626 231.95 134.873 232.22 135.065 232.572C135.257 232.92 135.353 233.372 135.353 233.929V239H133.902V237.956H133.842C133.746 238.148 133.602 238.337 133.409 238.523C133.217 238.708 132.97 238.862 132.669 238.985C132.367 239.108 132.006 239.169 131.585 239.169ZM131.908 237.976C132.319 237.976 132.67 237.895 132.962 237.732C133.257 237.57 133.481 237.358 133.633 237.096C133.789 236.831 133.867 236.547 133.867 236.246V235.261C133.814 235.314 133.711 235.364 133.559 235.411C133.409 235.454 133.239 235.492 133.047 235.525C132.854 235.555 132.667 235.583 132.485 235.609C132.302 235.633 132.15 235.652 132.027 235.669C131.739 235.705 131.475 235.767 131.237 235.853C131.002 235.939 130.813 236.063 130.67 236.226C130.531 236.385 130.461 236.597 130.461 236.862C130.461 237.23 130.597 237.509 130.869 237.697C131.141 237.883 131.487 237.976 131.908 237.976ZM144.255 239.154C143.516 239.154 142.879 238.987 142.346 238.652C141.816 238.314 141.408 237.848 141.123 237.255C140.838 236.662 140.695 235.982 140.695 235.217C140.695 234.441 140.841 233.757 141.133 233.163C141.424 232.567 141.835 232.101 142.366 231.766C142.896 231.432 143.521 231.264 144.24 231.264C144.82 231.264 145.337 231.372 145.791 231.587C146.245 231.799 146.612 232.098 146.89 232.482C147.172 232.867 147.339 233.316 147.392 233.83H145.945C145.866 233.472 145.683 233.163 145.398 232.905C145.117 232.646 144.739 232.517 144.265 232.517C143.851 232.517 143.488 232.626 143.176 232.845C142.868 233.061 142.628 233.369 142.455 233.77C142.283 234.168 142.197 234.638 142.197 235.182C142.197 235.739 142.281 236.219 142.45 236.624C142.619 237.028 142.858 237.341 143.166 237.563C143.478 237.785 143.844 237.896 144.265 237.896C144.547 237.896 144.802 237.845 145.031 237.742C145.263 237.636 145.456 237.485 145.612 237.29C145.771 237.094 145.882 236.859 145.945 236.584H147.392C147.339 237.078 147.178 237.518 146.91 237.906C146.641 238.294 146.282 238.599 145.831 238.821C145.384 239.043 144.858 239.154 144.255 239.154ZM150.468 228.818V239H148.982V228.818H150.468ZM152.468 239V231.364H153.955V239H152.468ZM153.219 230.185C152.96 230.185 152.738 230.099 152.553 229.927C152.37 229.751 152.279 229.542 152.279 229.3C152.279 229.055 152.37 228.846 152.553 228.674C152.738 228.498 152.96 228.411 153.219 228.411C153.477 228.411 153.698 228.498 153.88 228.674C154.066 228.846 154.158 229.055 154.158 229.3C154.158 229.542 154.066 229.751 153.88 229.927C153.698 230.099 153.477 230.185 153.219 230.185ZM159.246 239.154C158.493 239.154 157.845 238.993 157.302 238.672C156.761 238.347 156.344 237.891 156.049 237.305C155.757 236.715 155.611 236.024 155.611 235.232C155.611 234.449 155.757 233.76 156.049 233.163C156.344 232.567 156.755 232.101 157.282 231.766C157.812 231.432 158.432 231.264 159.141 231.264C159.572 231.264 159.99 231.335 160.394 231.478C160.798 231.621 161.161 231.844 161.483 232.149C161.804 232.454 162.058 232.85 162.243 233.337C162.429 233.821 162.522 234.41 162.522 235.102V235.629H156.452V234.516H161.065C161.065 234.125 160.986 233.778 160.827 233.477C160.667 233.172 160.444 232.931 160.155 232.756C159.87 232.58 159.536 232.492 159.151 232.492C158.733 232.492 158.369 232.595 158.057 232.8C157.749 233.003 157.51 233.268 157.341 233.596C157.176 233.921 157.093 234.274 157.093 234.655V235.525C157.093 236.035 157.182 236.469 157.361 236.827C157.544 237.185 157.797 237.459 158.122 237.648C158.447 237.833 158.826 237.926 159.26 237.926C159.542 237.926 159.799 237.886 160.031 237.807C160.263 237.724 160.464 237.601 160.633 237.439C160.802 237.277 160.931 237.076 161.02 236.837L162.427 237.091C162.315 237.505 162.113 237.868 161.821 238.18C161.532 238.488 161.17 238.728 160.732 238.901C160.298 239.07 159.802 239.154 159.246 239.154ZM165.658 234.466V239H164.171V231.364H165.598V232.607H165.692C165.868 232.202 166.143 231.877 166.518 231.632C166.896 231.387 167.371 231.264 167.945 231.264C168.465 231.264 168.921 231.374 169.312 231.592C169.703 231.808 170.006 232.129 170.222 232.557C170.437 232.984 170.545 233.513 170.545 234.143V239H169.058V234.322C169.058 233.768 168.914 233.336 168.626 233.024C168.337 232.709 167.941 232.552 167.438 232.552C167.093 232.552 166.786 232.626 166.518 232.776C166.253 232.925 166.042 233.143 165.886 233.432C165.734 233.717 165.658 234.062 165.658 234.466ZM176.103 231.364V232.557H171.932V231.364H176.103ZM173.05 229.534H174.537V236.758C174.537 237.046 174.58 237.263 174.666 237.409C174.752 237.552 174.863 237.649 174.999 237.702C175.138 237.752 175.289 237.777 175.452 237.777C175.571 237.777 175.675 237.769 175.765 237.752C175.854 237.736 175.924 237.722 175.974 237.712L176.242 238.94C176.156 238.973 176.033 239.007 175.874 239.04C175.715 239.076 175.516 239.096 175.278 239.099C174.887 239.106 174.522 239.036 174.184 238.891C173.846 238.745 173.572 238.519 173.364 238.214C173.155 237.91 173.05 237.527 173.05 237.066V229.534ZM180.956 239.154C180.204 239.154 179.556 238.993 179.013 238.672C178.472 238.347 178.055 237.891 177.76 237.305C177.468 236.715 177.322 236.024 177.322 235.232C177.322 234.449 177.468 233.76 177.76 233.163C178.055 232.567 178.466 232.101 178.993 231.766C179.523 231.432 180.143 231.264 180.852 231.264C181.283 231.264 181.701 231.335 182.105 231.478C182.509 231.621 182.872 231.844 183.194 232.149C183.515 232.454 183.769 232.85 183.954 233.337C184.14 233.821 184.233 234.41 184.233 235.102V235.629H178.162V234.516H182.776C182.776 234.125 182.697 233.778 182.537 233.477C182.378 233.172 182.155 232.931 181.866 232.756C181.581 232.58 181.247 232.492 180.862 232.492C180.444 232.492 180.08 232.595 179.768 232.8C179.46 233.003 179.221 233.268 179.052 233.596C178.887 233.921 178.804 234.274 178.804 234.655V235.525C178.804 236.035 178.893 236.469 179.072 236.827C179.255 237.185 179.508 237.459 179.833 237.648C180.158 237.833 180.537 237.926 180.971 237.926C181.253 237.926 181.51 237.886 181.742 237.807C181.974 237.724 182.175 237.601 182.344 237.439C182.513 237.277 182.642 237.076 182.731 236.837L184.138 237.091C184.026 237.505 183.823 237.868 183.532 238.18C183.243 238.488 182.881 238.728 182.443 238.901C182.009 239.07 181.513 239.154 180.956 239.154ZM187.756 228.818L187.627 236.072H186.25L186.121 228.818H187.756ZM186.941 239.094C186.666 239.094 186.431 238.998 186.235 238.806C186.04 238.611 185.943 238.375 185.947 238.1C185.943 237.828 186.04 237.596 186.235 237.404C186.431 237.209 186.666 237.111 186.941 237.111C187.21 237.111 187.442 237.209 187.637 237.404C187.833 237.596 187.932 237.828 187.935 238.1C187.932 238.282 187.884 238.45 187.791 238.602C187.702 238.751 187.582 238.871 187.433 238.96C187.284 239.05 187.12 239.094 186.941 239.094Z" fill="#1A191E" fill-opacity="0.5"/>
<rect x="310" y="192" width="40" height="40" rx="20" fill="#0088DC"/>
<path d="M320.877 217V205.8H322.477L328.189 214.392V205.8H329.789V217H328.189L322.477 208.424V217H320.877ZM331.631 217V205.8H335.775C336.554 205.8 337.204 205.928 337.727 206.184C338.25 206.429 338.639 206.771 338.895 207.208C339.162 207.635 339.295 208.12 339.295 208.664C339.295 209.229 339.172 209.704 338.927 210.088C338.682 210.472 338.356 210.771 337.951 210.984C337.546 211.187 337.119 211.304 336.671 211.336L336.895 211.176C337.386 211.187 337.834 211.32 338.239 211.576C338.644 211.821 338.964 212.152 339.199 212.568C339.434 212.984 339.551 213.443 339.551 213.944C339.551 214.52 339.412 215.043 339.135 215.512C338.858 215.971 338.447 216.333 337.903 216.6C337.359 216.867 336.692 217 335.903 217H331.631ZM333.231 215.672H335.695C336.399 215.672 336.943 215.512 337.327 215.192C337.722 214.861 337.919 214.397 337.919 213.8C337.919 213.213 337.716 212.744 337.311 212.392C336.916 212.04 336.367 211.864 335.663 211.864H333.231V215.672ZM333.231 210.632H335.599C336.271 210.632 336.783 210.477 337.135 210.168C337.487 209.848 337.663 209.411 337.663 208.856C337.663 208.323 337.487 207.901 337.135 207.592C336.783 207.272 336.255 207.112 335.551 207.112H333.231V210.632Z" fill="white"/>
</g>
<path d="M-10 50C-10 16.8629 16.8629 -10 50 -10H330C363.137 -10 390 16.8629 390 50H370C370 27.9086 352.091 10 330 10H50C27.9086 10 10 27.9086 10 50H-10ZM380 348H0H380ZM-10 348V50C-10 16.8629 16.8629 -10 50 -10V10C27.9086 10 10 27.9086 10 50V348H-10ZM330 -10C363.137 -10 390 16.8629 390 50V348H370V50C370 27.9086 352.091 10 330 10V-10Z" fill="#1A191E" mask="url(#path-1-inside-1_1303_2758)"/>
<defs>
<clipPath id="clip0_1303_2758">
<path d="M0 50C0 22.3858 22.3858 0 50 0H330C357.614 0 380 22.3858 380 50V348H0V50Z" fill="white"/>
</clipPath>
</defs>
</svg>
