<svg width="50" height="50" viewBox="0 0 50 50" fill="none" xmlns="http://www.w3.org/2000/svg">
<rect width="50" height="50" rx="25" fill="#F1F6FA"/>
<path d="M22.6663 34.3333H17.9997V36.6666H15.6663V34.3333H14.4997C14.1903 34.3333 13.8935 34.2104 13.6747 33.9916C13.4559 33.7728 13.333 33.4761 13.333 33.1666V15.6666C13.333 15.3572 13.4559 15.0605 13.6747 14.8417C13.8935 14.6229 14.1903 14.5 14.4997 14.5H22.6663V12.855C22.6664 12.7703 22.6849 12.6866 22.7205 12.6098C22.7561 12.533 22.808 12.4649 22.8726 12.4101C22.9372 12.3554 23.013 12.3154 23.0946 12.2929C23.1763 12.2704 23.2618 12.2659 23.3453 12.2798L35.691 14.3378C35.9634 14.3831 36.2109 14.5236 36.3895 14.7342C36.5681 14.9448 36.6662 15.212 36.6663 15.4881V18H37.833V20.3333H36.6663V28.5H37.833V30.8333H36.6663V33.3451C36.6662 33.6213 36.5681 33.8885 36.3895 34.0991C36.2109 34.3097 35.9634 34.4502 35.691 34.4955L34.333 34.7218V36.6666H31.9997V35.1115L23.3453 36.5535C23.2618 36.5674 23.1763 36.5629 23.0946 36.5404C23.013 36.5179 22.9372 36.4779 22.8726 36.4231C22.808 36.3684 22.7561 36.3003 22.7205 36.2235C22.6849 36.1466 22.6664 36.063 22.6663 35.9783V34.3333ZM24.9997 33.9133L34.333 32.357V16.4763L24.9997 14.9211V33.9121V33.9133ZM30.2497 27.3333C29.2837 27.3333 28.4997 26.0266 28.4997 24.4166C28.4997 22.8066 29.2837 21.5 30.2497 21.5C31.2157 21.5 31.9997 22.8066 31.9997 24.4166C31.9997 26.0266 31.2157 27.3333 30.2497 27.3333Z" fill="#0088DC"/>
</svg>
