<svg width="40" height="40" viewBox="0 0 40 40" fill="none" xmlns="http://www.w3.org/2000/svg">
<rect width="40" height="40" rx="20" fill="white" fill-opacity="0.2"/>
<path d="M23.758 11.75C23.6351 12.3549 23.6351 12.9784 23.758 13.5833H13.1348L20.0556 19.6902L24.6838 15.5468C25.0743 16.0299 25.562 16.4323 26.1166 16.7247L20.0657 22.1432L12.6663 15.6147V26.4167H27.333V17.1583C27.9379 17.2812 28.5614 17.2812 29.1663 17.1583V27.3333C29.1663 27.5764 29.0698 27.8096 28.8979 27.9815C28.7259 28.1534 28.4928 28.25 28.2497 28.25H11.7497C11.5066 28.25 11.2734 28.1534 11.1015 27.9815C10.9296 27.8096 10.833 27.5764 10.833 27.3333V12.6667C10.833 12.4235 10.9296 12.1904 11.1015 12.0185C11.2734 11.8466 11.5066 11.75 11.7497 11.75H23.758ZM28.2497 15.4167C27.8885 15.4167 27.5309 15.3455 27.1973 15.2073C26.8636 15.0691 26.5605 14.8666 26.3051 14.6112C26.0498 14.3558 25.8472 14.0527 25.709 13.719C25.5708 13.3854 25.4997 13.0278 25.4997 12.6667C25.4997 12.3055 25.5708 11.9479 25.709 11.6143C25.8472 11.2806 26.0498 10.9775 26.3051 10.7221C26.5605 10.4668 26.8636 10.2642 27.1973 10.126C27.5309 9.98779 27.8885 9.91666 28.2497 9.91666C28.979 9.91666 29.6785 10.2064 30.1942 10.7221C30.7099 11.2378 30.9997 11.9373 30.9997 12.6667C30.9997 13.396 30.7099 14.0955 30.1942 14.6112C29.6785 15.1269 28.979 15.4167 28.2497 15.4167Z" fill="white"/>
</svg>
