<svg width="28" height="28" viewBox="0 0 28 28" fill="none" xmlns="http://www.w3.org/2000/svg">
<path d="M13.9997 0C6.26795 0 0 6.25066 0 13.9611C0 20.5083 4.52023 26.0023 10.6179 27.5112V18.2276H7.73121V13.9611H10.6179V12.1227C10.6179 7.3709 12.7745 5.1684 17.4526 5.1684C18.3396 5.1684 19.8701 5.34207 20.4962 5.51519V9.38242C20.1658 9.34779 19.5918 9.33048 18.8789 9.33048C16.5835 9.33048 15.6965 10.1977 15.6965 12.4522V13.9611H20.2694L19.4837 18.2276H15.6965V27.82C22.6286 26.9851 28 21.0991 28 13.9611C27.9994 6.25066 21.7315 0 13.9997 0Z" fill="black"/>
</svg>
