<svg width="64" height="64" viewBox="0 0 64 64" fill="none" xmlns="http://www.w3.org/2000/svg">
<circle cx="32" cy="32" r="32" fill="#F1F6FA"/>
<path d="M48 46.5248C48 46.9963 47.8127 47.4485 47.4793 47.7819C47.1459 48.1153 46.6937 48.3026 46.2222 48.3026H17.7778C17.3063 48.3026 16.8541 48.1153 16.5207 47.7819C16.1873 47.4485 16 46.9963 16 46.5248V27.8403C15.9998 27.5694 16.0615 27.3021 16.1805 27.0587C16.2994 26.8152 16.4724 26.6022 16.6862 26.4359L30.9084 15.3746C31.2205 15.1318 31.6046 15 32 15C32.3954 15 32.7795 15.1318 33.0916 15.3746L47.3138 26.4359C47.5276 26.6022 47.7006 26.8152 47.8195 27.0587C47.9385 27.3021 48.0002 27.5694 48 27.8403V46.5248V46.5248ZM44.4444 44.747V28.7079L32 19.0297L19.5556 28.7079V44.747H44.4444Z" fill="#0088DC"/>
</svg>
