<svg width="64" height="64" viewBox="0 0 64 64" fill="none" xmlns="http://www.w3.org/2000/svg">
<circle cx="32" cy="32" r="32" fill="#F1F6FA"/>
<path d="M36.5091 19.9091C36.3141 20.869 36.3141 21.8583 36.5091 22.8182H19.6524L30.6342 32.5084L37.9782 25.9338C38.5978 26.7004 39.3716 27.3389 40.2516 27.8029L30.6502 36.4007L18.9091 26.0415V43.1818H42.1818V28.4909C43.1417 28.6859 44.131 28.6859 45.0909 28.4909V44.6364C45.0909 45.0221 44.9377 45.3921 44.6649 45.6649C44.3921 45.9377 44.0221 46.0909 43.6364 46.0909H17.4545C17.0688 46.0909 16.6988 45.9377 16.426 45.6649C16.1532 45.3921 16 45.0221 16 44.6364V21.3636C16 20.9779 16.1532 20.6079 16.426 20.3351C16.6988 20.0623 17.0688 19.9091 17.4545 19.9091H36.5091ZM43.6364 25.7273C43.0633 25.7273 42.4959 25.6144 41.9665 25.3951C41.4371 25.1758 40.956 24.8544 40.5508 24.4492C40.1456 24.044 39.8242 23.5629 39.6049 23.0335C39.3856 22.5041 39.2727 21.9367 39.2727 21.3636C39.2727 20.7906 39.3856 20.2232 39.6049 19.6937C39.8242 19.1643 40.1456 18.6833 40.5508 18.2781C40.956 17.8729 41.4371 17.5515 41.9665 17.3322C42.4959 17.1129 43.0633 17 43.6364 17C44.7937 17 45.9036 17.4597 46.7219 18.2781C47.5403 19.0964 48 20.2063 48 21.3636C48 22.5209 47.5403 23.6309 46.7219 24.4492C45.9036 25.2675 44.7937 25.7273 43.6364 25.7273Z" fill="#0088DC"/>
</svg>
