<svg width="311" height="238" viewBox="0 0 311 238" fill="none" xmlns="http://www.w3.org/2000/svg">
<rect x="3.27344" width="20" height="200" rx="4" fill="#F3F3F3"/>
<rect x="3.27344" y="56" width="20" height="144" rx="4" fill="#3A404A"/>
<rect x="3.27344" y="128" width="20" height="72" rx="4" fill="#3A404A"/>
<path d="M5.90525 221.818H7.4365L7.35794 229.036C7.35084 229.689 7.2155 230.247 6.95193 230.711C6.69167 231.175 6.3282 231.53 5.86151 231.775C5.39486 232.017 4.84999 232.138 4.22688 232.138C3.65349 232.138 3.13924 232.034 2.68412 231.825C2.23232 231.616 1.87601 231.313 1.61519 230.915C1.35772 230.514 1.2321 230.027 1.23834 229.454H2.76462C2.76155 229.735 2.82353 229.979 2.95056 230.185C3.0809 230.39 3.25978 230.551 3.48721 230.667C3.71799 230.779 3.98253 230.836 4.28083 230.836C4.60564 230.836 4.88147 230.768 5.10833 230.632C5.33854 230.493 5.51476 230.289 5.637 230.02C5.75924 229.752 5.82247 229.424 5.82669 229.036L5.90525 221.818ZM11.6628 232.168C11.1789 232.168 10.7424 232.079 10.3532 231.9C9.96412 231.717 9.65709 231.454 9.43215 231.109C9.21052 230.765 9.10243 230.342 9.10788 229.842C9.11257 229.411 9.19929 229.056 9.36804 228.778C9.53679 228.499 9.76291 228.279 10.0464 228.116C10.3299 227.954 10.6461 227.831 10.995 227.749C11.3439 227.666 11.6992 227.603 12.061 227.56C12.5189 227.507 12.8906 227.464 13.176 227.43C13.4615 227.394 13.6692 227.336 13.7994 227.256C13.9295 227.177 13.9955 227.048 13.9975 226.869L13.9979 226.834C14.0026 226.4 13.8836 226.063 13.6409 225.825C13.4016 225.586 13.0416 225.467 12.561 225.467C12.0606 225.467 11.6649 225.578 11.3742 225.8C11.0867 226.019 10.8869 226.262 10.7746 226.531L9.38104 226.212C9.55181 225.748 9.79784 225.374 10.1191 225.089C10.4438 224.801 10.8156 224.592 11.2346 224.463C11.6537 224.33 12.0935 224.264 12.5542 224.264C12.8592 224.264 13.1819 224.3 13.5225 224.373C13.8664 224.443 14.1865 224.572 14.4828 224.761C14.7823 224.95 15.0263 225.22 15.2147 225.571C15.4032 225.919 15.4944 226.372 15.4883 226.928L15.4331 231.999H13.9814L13.9928 230.955H13.9331C13.8349 231.147 13.6887 231.336 13.4944 231.522C13.3002 231.707 13.0516 231.862 12.7486 231.984C12.4457 232.107 12.0837 232.168 11.6628 232.168ZM11.999 230.975C12.4099 230.975 12.7621 230.894 13.0556 230.731C13.3523 230.569 13.5784 230.357 13.7337 230.095C13.8923 229.83 13.9733 229.547 13.9766 229.245L13.9873 228.261C13.9337 228.314 13.8304 228.363 13.6774 228.41C13.5278 228.453 13.3567 228.491 13.1641 228.524C12.9716 228.554 12.784 228.582 12.6014 228.609C12.4189 228.632 12.2662 228.652 12.1434 228.668C11.8546 228.705 11.5905 228.766 11.3509 228.852C11.1146 228.938 10.9244 229.063 10.7801 229.225C10.6391 229.384 10.5672 229.596 10.5643 229.861C10.5603 230.229 10.6932 230.508 10.9629 230.697C11.2327 230.882 11.578 230.975 11.999 230.975ZM18.9489 227.465L18.8996 231.999H17.4131L17.4962 224.363H18.923L18.9095 225.606H19.0039C19.184 225.202 19.4626 224.877 19.8398 224.632C20.2203 224.386 20.6973 224.264 21.2707 224.264C21.791 224.264 22.2456 224.373 22.6343 224.592C23.023 224.807 23.3228 225.129 23.5336 225.556C23.7444 225.984 23.8463 226.512 23.8395 227.142L23.7866 231.999H22.3001L22.351 227.321C22.3571 226.768 22.2176 226.335 21.9326 226.024C21.6477 225.709 21.2534 225.551 20.7496 225.551C20.4049 225.551 20.0975 225.626 19.8274 225.775C19.5606 225.924 19.3478 226.143 19.1888 226.431C19.0333 226.716 18.9533 227.061 18.9489 227.465Z" fill="#1A191E"/>
<rect x="59.7549" width="20" height="200" rx="4" fill="#F3F3F3"/>
<rect x="59.9824" y="40" width="20" height="160" rx="4" fill="#3A404A"/>
<rect x="60.0967" y="103" width="20" height="97" rx="4" fill="#3A404A"/>
<path d="M58.9894 231.999L59.1002 221.818H65.4141L65.3997 223.14H60.622L60.5883 226.242H64.9136L64.8992 227.56H60.5739L60.5256 231.999H58.9894ZM69.8022 232.153C69.0498 232.153 68.4036 231.992 67.8635 231.671C67.3268 231.346 66.9142 230.89 66.6256 230.304C66.3403 229.714 66.202 229.023 66.2106 228.231C66.2191 227.449 66.3725 226.759 66.6706 226.163C66.9721 225.566 67.3882 225.101 67.9188 224.766C68.4527 224.431 69.0744 224.264 69.7836 224.264C70.2145 224.264 70.6314 224.335 71.0342 224.477C71.437 224.62 71.7975 224.844 72.1156 225.149C72.4338 225.454 72.683 225.85 72.8634 226.337C73.0437 226.821 73.1301 227.409 73.1226 228.102L73.1168 228.629H67.0465L67.0586 227.515H71.6723C71.6765 227.124 71.6007 226.778 71.4449 226.476C71.2892 226.171 71.0681 225.931 70.7816 225.755C70.4985 225.579 70.1647 225.492 69.7802 225.492C69.3626 225.492 68.9969 225.594 68.6831 225.8C68.3727 226.002 68.1312 226.267 67.9585 226.595C67.7893 226.92 67.7026 227.273 67.6984 227.654L67.689 228.524C67.6834 229.035 67.7682 229.469 67.9433 229.827C68.1217 230.185 68.3722 230.458 68.695 230.647C69.0178 230.832 69.3963 230.925 69.8305 230.925C70.1122 230.925 70.3695 230.885 70.6024 230.806C70.8353 230.723 71.0371 230.6 71.2079 230.438C71.3787 230.276 71.5102 230.075 71.6023 229.837L73.0065 230.09C72.8893 230.504 72.6831 230.867 72.3881 231.179C72.0964 231.487 71.7308 231.727 71.2914 231.9C70.8554 232.069 70.359 232.153 69.8022 232.153ZM81.1265 224.363L78.2742 231.999H76.6833L73.9923 224.363H75.5881L77.4581 230.239H77.5377L79.5306 224.363H81.1265Z" fill="#1A191E"/>
<rect x="117.078" width="20" height="200" rx="4" fill="#F3F3F3"/>
<rect x="117.078" y="92" width="20" height="108" rx="4" fill="#3A404A"/>
<rect x="117.078" y="140" width="20" height="60" rx="4" fill="#3A404A"/>
<path d="M115.253 221.818H117.117L120.272 229.732H120.392L123.719 221.818H125.584L125.473 231.999H124.011L124.091 224.632H123.997L120.914 231.984H119.701L116.778 224.627H116.684L116.603 231.999H115.142L115.253 221.818ZM129.807 232.168C129.323 232.168 128.887 232.079 128.498 231.9C128.109 231.717 127.802 231.454 127.577 231.109C127.355 230.765 127.247 230.342 127.252 229.842C127.257 229.411 127.344 229.056 127.513 228.778C127.681 228.499 127.907 228.279 128.191 228.116C128.474 227.954 128.791 227.831 129.14 227.749C129.488 227.666 129.844 227.603 130.206 227.56C130.663 227.507 131.035 227.464 131.321 227.43C131.606 227.394 131.814 227.336 131.944 227.256C132.074 227.177 132.14 227.048 132.142 226.869L132.142 226.834C132.147 226.4 132.028 226.063 131.785 225.825C131.546 225.586 131.186 225.467 130.706 225.467C130.205 225.467 129.809 225.578 129.519 225.8C129.231 226.019 129.031 226.262 128.919 226.531L127.526 226.212C127.696 225.748 127.942 225.374 128.264 225.089C128.588 224.801 128.96 224.592 129.379 224.463C129.798 224.33 130.238 224.264 130.699 224.264C131.004 224.264 131.326 224.3 131.667 224.373C132.011 224.443 132.331 224.572 132.627 224.761C132.927 224.95 133.171 225.22 133.359 225.571C133.548 225.919 133.639 226.372 133.633 226.928L133.578 231.999H132.126L132.137 230.955H132.078C131.979 231.147 131.833 231.336 131.639 231.522C131.445 231.707 131.196 231.862 130.893 231.984C130.59 232.107 130.228 232.168 129.807 232.168ZM130.143 230.975C130.554 230.975 130.907 230.894 131.2 230.731C131.497 230.569 131.723 230.357 131.878 230.095C132.037 229.83 132.118 229.547 132.121 229.245L132.132 228.261C132.078 228.314 131.975 228.363 131.822 228.41C131.672 228.453 131.501 228.491 131.309 228.524C131.116 228.554 130.929 228.582 130.746 228.609C130.563 228.632 130.411 228.652 130.288 228.668C129.999 228.705 129.735 228.766 129.495 228.852C129.259 228.938 129.069 229.063 128.925 229.225C128.784 229.384 128.712 229.596 128.709 229.861C128.705 230.229 128.838 230.508 129.107 230.697C129.377 230.882 129.723 230.975 130.143 230.975ZM135.558 231.999L135.641 224.363H137.077L137.064 225.576H137.144C137.288 225.165 137.536 224.842 137.89 224.607C138.247 224.368 138.65 224.249 139.097 224.249C139.19 224.249 139.299 224.252 139.425 224.259C139.554 224.265 139.655 224.274 139.728 224.284L139.713 225.705C139.653 225.689 139.547 225.671 139.395 225.651C139.243 225.628 139.091 225.616 138.938 225.616C138.587 225.616 138.273 225.69 137.996 225.84C137.723 225.985 137.505 226.189 137.343 226.451C137.181 226.71 137.098 227.005 137.095 227.336L137.044 231.999H135.558Z" fill="#1A191E"/>
<rect x="174.229" width="20" height="200" rx="4" fill="#F3F3F3"/>
<rect x="174.229" y="116" width="20" height="84" rx="4" fill="#3A404A"/>
<rect x="174.229" y="156" width="20" height="44" rx="4" fill="#3A404A"/>
<path d="M174.153 231.999H172.523L176.297 221.818H178.072L181.626 231.999H179.995L177.207 223.667H177.127L174.153 231.999ZM174.47 228.012H179.76L179.746 229.305H174.456L174.47 228.012ZM183.096 231.999L183.207 221.818H184.693L184.652 225.601H184.741C184.829 225.442 184.956 225.258 185.12 225.049C185.285 224.84 185.512 224.658 185.802 224.502C186.093 224.343 186.475 224.264 186.949 224.264C187.565 224.264 188.113 224.419 188.594 224.731C189.074 225.043 189.449 225.492 189.718 226.078C189.99 226.665 190.121 227.371 190.112 228.196C190.103 229.021 189.958 229.729 189.677 230.319C189.395 230.905 189.012 231.358 188.528 231.676C188.044 231.991 187.494 232.148 186.878 232.148C186.414 232.148 186.035 232.07 185.742 231.915C185.452 231.759 185.225 231.576 185.062 231.368C184.898 231.159 184.772 230.973 184.685 230.811H184.56L184.548 231.999H183.096ZM184.594 228.181C184.588 228.718 184.661 229.189 184.812 229.593C184.964 229.997 185.186 230.314 185.478 230.542C185.771 230.768 186.131 230.881 186.558 230.881C187.002 230.881 187.375 230.763 187.676 230.528C187.977 230.289 188.206 229.966 188.362 229.558C188.523 229.15 188.606 228.691 188.611 228.181C188.617 227.677 188.545 227.225 188.397 226.824C188.252 226.423 188.03 226.106 187.731 225.874C187.436 225.642 187.064 225.526 186.617 225.526C186.186 225.526 185.82 225.637 185.519 225.86C185.222 226.082 184.995 226.391 184.838 226.789C184.681 227.187 184.6 227.651 184.594 228.181ZM191.74 231.999L191.823 224.363H193.26L193.247 225.576H193.326C193.47 225.165 193.719 224.842 194.073 224.607C194.43 224.368 194.832 224.249 195.28 224.249C195.373 224.249 195.482 224.252 195.608 224.259C195.737 224.265 195.838 224.274 195.911 224.284L195.895 225.705C195.836 225.689 195.73 225.671 195.578 225.651C195.426 225.628 195.273 225.616 195.121 225.616C194.769 225.616 194.455 225.69 194.179 225.84C193.905 225.985 193.688 226.189 193.526 226.451C193.364 226.71 193.281 227.005 193.277 227.336L193.227 231.999H191.74Z" fill="#1A191E"/>
<rect x="231.053" width="20" height="200" rx="4" fill="#F3F3F3"/>
<rect x="230.71" y="64" width="20" height="136" rx="4" fill="#3A404A"/>
<rect x="230.824" y="149" width="20" height="51" rx="4" fill="#3A404A"/>
<path d="M229.556 221.818H231.421L234.576 229.732H234.695L238.023 221.818H239.887L239.776 231.999H238.315L238.395 224.632H238.301L235.218 231.984H234.005L231.082 224.627H230.987L230.907 231.999H229.445L229.556 221.818ZM244.111 232.168C243.627 232.168 243.191 232.079 242.801 231.9C242.412 231.717 242.105 231.454 241.88 231.109C241.659 230.765 241.551 230.342 241.556 229.842C241.561 229.411 241.648 229.056 241.816 228.778C241.985 228.499 242.211 228.279 242.495 228.116C242.778 227.954 243.094 227.831 243.443 227.749C243.792 227.666 244.147 227.603 244.509 227.56C244.967 227.507 245.339 227.464 245.624 227.43C245.91 227.394 246.117 227.336 246.248 227.256C246.378 227.177 246.444 227.048 246.446 226.869L246.446 226.834C246.451 226.4 246.332 226.063 246.089 225.825C245.85 225.586 245.49 225.467 245.009 225.467C244.509 225.467 244.113 225.578 243.822 225.8C243.535 226.019 243.335 226.262 243.223 226.531L241.829 226.212C242 225.748 242.246 225.374 242.567 225.089C242.892 224.801 243.264 224.592 243.683 224.463C244.102 224.33 244.542 224.264 245.002 224.264C245.307 224.264 245.63 224.3 245.971 224.373C246.315 224.443 246.635 224.572 246.931 224.761C247.231 224.95 247.475 225.22 247.663 225.571C247.851 225.919 247.943 226.372 247.937 226.928L247.881 231.999H246.43L246.441 230.955H246.381C246.283 231.147 246.137 231.336 245.943 231.522C245.748 231.707 245.5 231.862 245.197 231.984C244.894 232.107 244.532 232.168 244.111 232.168ZM244.447 230.975C244.858 230.975 245.21 230.894 245.504 230.731C245.801 230.569 246.027 230.357 246.182 230.095C246.341 229.83 246.422 229.547 246.425 229.245L246.436 228.261C246.382 228.314 246.279 228.363 246.126 228.41C245.976 228.453 245.805 228.491 245.612 228.524C245.42 228.554 245.232 228.582 245.05 228.609C244.867 228.632 244.714 228.652 244.592 228.668C244.303 228.705 244.039 228.766 243.799 228.852C243.563 228.938 243.373 229.063 243.228 229.225C243.087 229.384 243.015 229.596 243.013 229.861C243.009 230.229 243.141 230.508 243.411 230.697C243.681 230.882 244.026 230.975 244.447 230.975ZM249.861 231.999L249.944 224.363H251.431L251.348 231.999H249.861ZM250.708 223.185C250.449 223.185 250.228 223.099 250.045 222.926C249.864 222.751 249.775 222.542 249.778 222.3C249.781 222.055 249.874 221.846 250.058 221.674C250.246 221.498 250.469 221.41 250.727 221.41C250.986 221.41 251.205 221.498 251.386 221.674C251.569 221.846 251.66 222.055 251.657 222.3C251.655 222.542 251.559 222.751 251.372 222.926C251.188 223.099 250.966 223.185 250.708 223.185Z" fill="#1A191E"/>
<rect x="288.212" width="20" height="200" rx="4" fill="#F3F3F3"/>
<rect x="287.855" y="47" width="20" height="153" rx="4" fill="#3A404A"/>
<rect x="287.855" y="159" width="20" height="41" rx="4" fill="#3A404A"/>
<path d="M290.666 221.818H292.197L292.119 229.036C292.112 229.689 291.976 230.247 291.713 230.711C291.452 231.175 291.089 231.53 290.622 231.775C290.156 232.017 289.611 232.138 288.988 232.138C288.414 232.138 287.9 232.034 287.445 231.825C286.993 231.616 286.637 231.313 286.376 230.915C286.118 230.514 285.993 230.027 285.999 229.454H287.525C287.522 229.735 287.584 229.979 287.711 230.185C287.842 230.39 288.021 230.551 288.248 230.667C288.479 230.779 288.743 230.836 289.042 230.836C289.366 230.836 289.642 230.768 289.869 230.632C290.099 230.493 290.276 230.289 290.398 230.02C290.52 229.752 290.583 229.424 290.587 229.036L290.666 221.818ZM299.075 228.832L299.124 224.363H300.615L300.532 231.999H299.07L299.085 230.677H299.005C298.825 231.084 298.54 231.424 298.149 231.696C297.761 231.964 297.281 232.098 296.708 232.098C296.217 232.098 295.784 231.991 295.409 231.775C295.037 231.557 294.745 231.233 294.534 230.806C294.327 230.378 294.226 229.85 294.233 229.22L294.286 224.363H295.773L295.722 229.041C295.716 229.561 295.856 229.976 296.141 230.284C296.426 230.592 296.799 230.746 297.259 230.746C297.538 230.746 297.815 230.677 298.092 230.537C298.372 230.398 298.604 230.188 298.79 229.906C298.978 229.624 299.074 229.266 299.075 228.832ZM304.065 227.465L304.016 231.999H302.529L302.612 224.363H304.039L304.026 225.606H304.12C304.3 225.202 304.579 224.877 304.956 224.632C305.337 224.386 305.813 224.264 306.387 224.264C306.907 224.264 307.362 224.373 307.751 224.592C308.139 224.807 308.439 225.129 308.65 225.556C308.861 225.984 308.963 226.512 308.956 227.142L308.903 231.999H307.416L307.467 227.321C307.473 226.768 307.334 226.335 307.049 226.024C306.764 225.709 306.37 225.551 305.866 225.551C305.521 225.551 305.214 225.626 304.944 225.775C304.677 225.924 304.464 226.143 304.305 226.431C304.149 226.716 304.07 227.061 304.065 227.465Z" fill="#1A191E"/>
</svg>
