<svg width="50" height="50" viewBox="0 0 50 50" fill="none" xmlns="http://www.w3.org/2000/svg">
<rect width="50" height="50" rx="25" fill="#F1F6FA"/>
<path d="M25 35C19.477 35 15 30.523 15 25C15 19.477 19.477 15 25 15C30.523 15 35 19.477 35 25C35 30.523 30.523 35 25 35ZM22.71 32.667C21.7234 30.5743 21.1519 28.3102 21.027 26H17.062C17.2566 27.5389 17.8939 28.9882 18.8966 30.1717C19.8992 31.3552 21.224 32.2221 22.71 32.667ZM23.03 26C23.181 28.439 23.878 30.73 25 32.752C26.1523 30.6766 26.8254 28.3695 26.97 26H23.03ZM32.938 26H28.973C28.8481 28.3102 28.2766 30.5743 27.29 32.667C28.776 32.2221 30.1008 31.3552 31.1034 30.1717C32.1061 28.9882 32.7434 27.5389 32.938 26ZM17.062 24H21.027C21.1519 21.6898 21.7234 19.4257 22.71 17.333C21.224 17.7779 19.8992 18.6448 18.8966 19.8283C17.8939 21.0118 17.2566 22.4611 17.062 24ZM23.031 24H26.969C26.8248 21.6306 26.152 19.3235 25 17.248C23.8477 19.3234 23.1746 21.6305 23.03 24H23.031ZM27.29 17.333C28.2766 19.4257 28.8481 21.6898 28.973 24H32.938C32.7434 22.4611 32.1061 21.0118 31.1034 19.8283C30.1008 18.6448 28.776 17.7779 27.29 17.333Z" fill="#0088DC"/>
</svg>
