<svg width="64" height="64" viewBox="0 0 64 64" fill="none" xmlns="http://www.w3.org/2000/svg">
<circle cx="32" cy="32" r="32" fill="#F1F6FA"/>
<path d="M32 35.2751C33.8088 35.2751 35.275 33.8088 35.275 32C35.275 30.1913 33.8088 28.725 32 28.725C30.1912 28.725 28.7249 30.1913 28.7249 32C28.7249 33.8088 30.1912 35.2751 32 35.2751Z" fill="#0088DC"/>
<path d="M32 33.6384C31.0953 33.6384 30.3616 32.9048 30.3616 32V23.3891C30.3616 22.4844 31.0953 21.7507 32 21.7507C32.9047 21.7507 33.6384 22.4844 33.6384 23.3891V32C33.6384 32.9048 32.9047 33.6384 32 33.6384Z" fill="#0088DC"/>
<path d="M27.8935 37.745C27.474 37.745 27.0551 37.585 26.7351 37.265C26.0951 36.625 26.0951 35.5876 26.7351 34.9482L30.8416 30.8417C31.481 30.2017 32.519 30.2017 33.1584 30.8417C33.7984 31.4817 33.7984 32.5191 33.1584 33.1585L29.0519 37.265C28.7319 37.585 28.3124 37.745 27.8935 37.745Z" fill="#0088DC"/>
<path d="M32 48C23.1779 48 16 40.8227 16 32C16 23.1773 23.1779 16 32 16C40.8221 16 48 23.1773 48 32C48 40.8227 40.8221 48 32 48ZM32 19.2768C24.9844 19.2768 19.2768 24.9844 19.2768 32C19.2768 39.0156 24.9844 44.7232 32 44.7232C39.0156 44.7232 44.7232 39.0156 44.7232 32C44.7232 24.9844 39.0156 19.2768 32 19.2768Z" fill="#0088DC"/>
</svg>
