<svg width="64" height="64" viewBox="0 0 64 64" fill="none" xmlns="http://www.w3.org/2000/svg">
<circle cx="32" cy="32" r="32" fill="#F1F6FA"/>
<path d="M36.1246 16.0834C30.9181 16.0856 26.456 19.8059 25.5176 24.9272C29.9991 22.4748 35.6201 24.1197 38.0725 28.6012C39.5865 31.3679 39.5865 34.7154 38.0725 37.4821C43.9328 36.4086 47.8133 30.7876 46.7398 24.9272C45.8011 19.8028 41.3343 16.0814 36.1246 16.0834Z" fill="#0088DC" fill-opacity="0.12"/>
<path d="M23.7913 46.9167C28.0485 46.9167 31.4997 43.4655 31.4997 39.2083C31.4997 34.9511 28.0485 31.5 23.7913 31.5C19.5341 31.5 16.083 34.9511 16.083 39.2083C16.083 43.4655 19.5341 46.9167 23.7913 46.9167Z" fill="#0088DC"/>
<path d="M29.9586 23.7916C25.2051 23.7921 21.2257 27.3954 20.7549 32.1256C24.6642 30.446 29.195 32.2535 30.8747 36.1629C31.7089 38.1045 31.7089 40.3037 30.8747 42.2454C35.958 41.7399 39.6691 37.2093 39.1636 32.126C38.6932 27.395 34.7129 23.7912 29.9586 23.7916Z" fill="#0088DC" fill-opacity="0.4"/>
</svg>
