<svg width="50" height="50" viewBox="0 0 50 50" fill="none" xmlns="http://www.w3.org/2000/svg">
<rect width="50" height="50" rx="25" fill="#F1F6FA"/>
<path d="M23.8333 13.3333L32.3477 15.9933C32.5851 16.0674 32.7927 16.2155 32.94 16.4159C33.0874 16.6164 33.1668 16.8587 33.1667 17.1074V19.1666H35.5C35.8094 19.1666 36.1062 19.2895 36.325 19.5083C36.5438 19.7271 36.6667 20.0238 36.6667 20.3333V22.6666H21.5V20.3333C21.5 20.0238 21.6229 19.7271 21.8417 19.5083C22.0605 19.2895 22.3572 19.1666 22.6667 19.1666H30.8333V17.9649L23.8333 15.7763L16.8333 17.9649V26.6029C16.8332 27.3172 16.997 28.022 17.3121 28.6629C17.6272 29.3039 18.0853 29.864 18.651 30.3001L18.8715 30.4588L23.8333 33.8433L28.2457 30.8333H22.6667C22.3572 30.8333 22.0605 30.7103 21.8417 30.4915C21.6229 30.2728 21.5 29.976 21.5 29.6666V24.9999H36.6667V29.6666C36.6667 29.976 36.5438 30.2728 36.325 30.4915C36.1062 30.7103 35.8094 30.8333 35.5 30.8333L31.7433 30.8344C31.2918 31.4294 30.7435 31.9544 30.11 32.3861L23.8333 36.6666L17.5567 32.3873C16.6146 31.7449 15.8437 30.8822 15.311 29.8742C14.7783 28.8661 14.4999 27.7431 14.5 26.6029V17.1074C14.5001 16.8589 14.5797 16.6168 14.727 16.4166C14.8743 16.2164 15.0817 16.0685 15.319 15.9944L23.8333 13.3333Z" fill="#0088DC"/>
</svg>
