<svg width="64" height="64" viewBox="0 0 64 64" fill="none" xmlns="http://www.w3.org/2000/svg">
<circle cx="32" cy="32" r="32" fill="#F1F6FA"/>
<path d="M20.1389 18.656L32.0909 16L44.0429 18.656C44.3659 18.7278 44.6548 18.9076 44.8618 19.1657C45.0689 19.4238 45.1818 19.7448 45.1818 20.0756V34.6022C45.1817 36.0389 44.8269 37.4533 44.1489 38.72C43.4709 39.9867 42.4907 41.0664 41.2953 41.8633L32.0909 48L22.8865 41.8633C21.6913 41.0665 20.7112 39.9871 20.0332 38.7207C19.3553 37.4543 19.0003 36.0401 19 34.6036V20.0756C19.0001 19.7448 19.1129 19.4238 19.32 19.1657C19.527 18.9076 19.8159 18.7278 20.1389 18.656V18.656ZM21.9091 21.2422V34.6022C21.9091 35.5599 22.1456 36.5029 22.5975 37.3473C23.0494 38.1918 23.7028 38.9116 24.4996 39.4429L32.0909 44.5047L39.6822 39.4429C40.4788 38.9117 41.1321 38.1921 41.584 37.348C42.0359 36.5038 42.2725 35.5612 42.2727 34.6036V21.2422L32.0909 18.9818L21.9091 21.2422ZM32.0909 30.5455C31.1265 30.5455 30.2016 30.1623 29.5196 29.4804C28.8377 28.7984 28.4545 27.8735 28.4545 26.9091C28.4545 25.9447 28.8377 25.0197 29.5196 24.3378C30.2016 23.6558 31.1265 23.2727 32.0909 23.2727C33.0553 23.2727 33.9803 23.6558 34.6622 24.3378C35.3442 25.0197 35.7273 25.9447 35.7273 26.9091C35.7273 27.8735 35.3442 28.7984 34.6622 29.4804C33.9803 30.1623 33.0553 30.5455 32.0909 30.5455V30.5455ZM25.5847 37.8182C25.761 36.2159 26.5224 34.7349 27.723 33.6592C28.9236 32.5835 30.4789 31.9887 32.0909 31.9887C33.7029 31.9887 35.2582 32.5835 36.4588 33.6592C37.6594 34.7349 38.4208 36.2159 38.5971 37.8182H25.5847Z" fill="#0088DC"/>
</svg>
