<svg width="64" height="64" viewBox="0 0 64 64" fill="none" xmlns="http://www.w3.org/2000/svg">
<circle cx="32" cy="32" r="32" fill="#F1F6FA"/>
<path fill-rule="evenodd" clip-rule="evenodd" d="M32 12C20.9543 12 12 20.9543 12 32C12 43.0458 20.9543 52 32 52C43.0458 52 52 43.0458 52 32C52 20.9543 43.0458 12 32 12ZM14.7907 32C14.7907 22.4956 22.4956 14.7907 32 14.7907C36.2502 14.7907 40.1407 16.3315 43.1431 18.8849C43.1306 18.8965 43.1185 18.9083 43.1064 18.9203L18.9204 43.1059C18.9082 43.1181 18.8964 43.1304 18.8848 43.1429C16.3314 40.1405 14.7907 36.2502 14.7907 32ZM20.8567 45.1148C23.8592 47.6685 27.7497 49.2093 32 49.2093C41.5044 49.2093 49.2093 41.5044 49.2093 32C49.2093 27.7498 47.6685 23.8594 45.115 20.857C45.1034 20.8694 45.0917 20.8816 45.0796 20.8937L20.8937 45.0793C20.8815 45.0913 20.8692 45.1033 20.8567 45.1148Z" fill="#0088DC"/>
</svg>
