<svg width="64" height="64" viewBox="0 0 64 64" fill="none" xmlns="http://www.w3.org/2000/svg">
<circle cx="32" cy="32" r="32" fill="#F1F6FA"/>
<path d="M19.1663 37.6667C17.4635 37.6667 16.083 36.2863 16.083 34.5834C16.083 32.8805 17.4635 31.5 19.1663 31.5C20.8692 31.5 22.2497 32.8805 22.2497 34.5834C22.2475 36.2853 20.8683 37.6645 19.1663 37.6667ZM19.1663 22.25C17.4635 22.25 16.083 20.8696 16.083 19.1667C16.083 17.4638 17.4635 16.0834 19.1663 16.0834C20.8692 16.0834 22.2497 17.4638 22.2497 19.1667C22.2475 20.8687 20.8683 22.2478 19.1663 22.25ZM34.583 22.25C32.8801 22.25 31.4997 20.8696 31.4997 19.1667C31.4997 17.4638 32.8801 16.0834 34.583 16.0834C36.2859 16.0834 37.6663 17.4638 37.6663 19.1667C37.6641 20.8687 36.285 22.2478 34.583 22.25ZM34.583 37.6667C32.8801 37.6667 31.4997 36.2863 31.4997 34.5834C31.4997 32.8805 32.8801 31.5 34.583 31.5C36.2859 31.5 37.6663 32.8805 37.6663 34.5834C37.6641 36.2853 36.285 37.6645 34.583 37.6667Z" fill="#0088DC" fill-opacity="0.6"/>
<path d="M28.4163 46.9167C26.7135 46.9167 25.333 45.5363 25.333 43.8334C25.333 42.1305 26.7135 40.75 28.4163 40.75C30.1192 40.75 31.4997 42.1305 31.4997 43.8334C31.4975 45.5353 30.1183 46.9145 28.4163 46.9167ZM28.4163 31.5C26.7135 31.5 25.333 30.1196 25.333 28.4167C25.333 26.7138 26.7135 25.3334 28.4163 25.3334C30.1192 25.3334 31.4997 26.7138 31.4997 28.4167C31.4975 30.1187 30.1183 31.4978 28.4163 31.5ZM43.833 31.5C42.1301 31.5 40.7497 30.1196 40.7497 28.4167C40.7497 26.7138 42.1301 25.3334 43.833 25.3334C45.5359 25.3334 46.9163 26.7138 46.9163 28.4167C46.9141 30.1187 45.535 31.4978 43.833 31.5ZM43.833 46.9167C42.1301 46.9167 40.7497 45.5363 40.7497 43.8334C40.7497 42.1305 42.1301 40.75 43.833 40.75C45.5359 40.75 46.9163 42.1305 46.9163 43.8334C46.9141 45.5353 45.535 46.9145 43.833 46.9167Z" fill="#0088DC"/>
<path d="M31.9291 20.7083C31.357 19.7602 31.357 18.5732 31.9291 17.625H21.8209C22.393 18.5732 22.393 19.7602 21.8209 20.7083H31.9291ZM19.1667 31.5C19.7096 31.5031 20.2419 31.6512 20.7083 31.9291V21.8209C19.7602 22.393 18.5732 22.393 17.625 21.8209V31.9291C18.0915 31.6512 18.6237 31.5031 19.1667 31.5Z" fill="#0088DC" fill-opacity="0.12"/>
<path d="M43.8333 40.75C44.3763 40.7531 44.9085 40.9012 45.375 41.1791V31.0709C44.4268 31.643 43.2398 31.643 42.2917 31.0709V41.1791C42.7581 40.9012 43.2904 40.7531 43.8333 40.75ZM28.4167 40.75C28.9596 40.7531 29.4919 40.9012 29.9583 41.1791V31.0709C29.0102 31.643 27.8232 31.643 26.875 31.0709V41.1791C27.3415 40.9012 27.8737 40.7531 28.4167 40.75Z" fill="#0088DC" fill-opacity="0.6"/>
<path d="M31.9294 33.0416H29.9587V36.125H31.9294C31.3573 35.1768 31.3573 33.9898 31.9294 33.0416ZM26.8754 36.125V33.0416H21.8213C22.3934 33.9898 22.3934 35.1768 21.8213 36.125H26.8754Z" fill="#0088DC" fill-opacity="0.12"/>
<path d="M41.1794 42.2917H31.0713C31.6434 43.2398 31.6434 44.4268 31.0713 45.375H41.1794C40.6073 44.4268 40.6073 43.2398 41.1794 42.2917ZM41.1794 29.9583C40.6073 29.0102 40.6073 27.8232 41.1794 26.875H31.0713C31.6434 27.8232 31.6434 29.0102 31.0713 29.9583H41.1794Z" fill="#0088DC" fill-opacity="0.6"/>
<path d="M36.1253 26.875V21.8209C35.1772 22.393 33.9902 22.393 33.042 21.8209V26.875H36.1253ZM33.042 29.9583V31.9291C33.9902 31.357 35.1772 31.357 36.1253 31.9291V29.9583H33.042Z" fill="#0088DC" fill-opacity="0.12"/>
</svg>
