<svg width="28" height="19" viewBox="0 0 28 19" fill="none" xmlns="http://www.w3.org/2000/svg">
<path d="M27.7211 4.09969C27.7211 4.09969 27.4477 2.23715 26.6055 1.41932C25.5391 0.342957 24.3469 0.33768 23.8 0.274365C19.8844 -3.48074e-06 14.0055 -3.33085e-06 14.0055 -3.33085e-06H13.9945C13.9945 -3.33085e-06 8.11564 -3.48074e-06 4.20001 0.274365C3.65314 0.33768 2.46095 0.342957 1.39454 1.41932C0.552357 2.23715 0.284388 4.09969 0.284388 4.09969C0.284388 4.09969 1.33514e-05 6.28936 1.33514e-05 8.47375V10.521C1.33514e-05 12.7054 0.27892 14.895 0.27892 14.895C0.27892 14.895 0.552357 16.7576 1.38908 17.5754C2.45548 18.6518 3.85548 18.6148 4.47892 18.7309C6.72111 18.9367 14 19 14 19C14 19 19.8844 18.9894 23.8 18.7203C24.3469 18.657 25.5391 18.6518 26.6055 17.5754C27.4477 16.7576 27.7211 14.895 27.7211 14.895C27.7211 14.895 28 12.7106 28 10.521V8.47375C28 6.28936 27.7211 4.09969 27.7211 4.09969ZM11.107 13.0061V5.41349L18.6703 9.22299L11.107 13.0061Z" fill="black"/>
</svg>
